<svg xmlns="http://www.w3.org/2000/svg" width="100.808" height="100.808" viewBox="0 0 100.808 100.808">
  <g id="dep-Icon3" transform="translate(0 0.15)">
    <path id="Path_48615" data-name="Path 48615" d="M244.94,197.3a1.566,1.566,0,0,0-1.172,1.879,42.252,42.252,0,0,1-48.238,51.172l2.224-1.284a1.566,1.566,0,0,0-1.566-2.713l-5.753,3.32a1.566,1.566,0,0,0-.573,2.139l3.322,5.754a1.566,1.566,0,0,0,2.139.574h0A1.566,1.566,0,0,0,195.9,256l-1.546-2.675a45.391,45.391,0,0,0,52.467-54.855,1.566,1.566,0,0,0-1.879-1.172" transform="translate(-152.165 -158.419)" fill="#007066"/>
    <path id="Path_48616" data-name="Path 48616" d="M28.291,64.716a1.566,1.566,0,0,0,1.172-1.879A42.252,42.252,0,0,1,77.7,11.665l-2.224,1.284a1.566,1.566,0,0,0,1.548,2.723l.018-.01,5.753-3.32a1.566,1.566,0,0,0,.573-2.139L80.047,4.448a1.566,1.566,0,0,0-2.139-.574h0a1.566,1.566,0,0,0-.573,2.139l1.546,2.675A45.391,45.391,0,0,0,26.412,63.544a1.566,1.566,0,0,0,1.879,1.172" transform="translate(-20.258 -3.09)" fill="#007066"/>
    <path id="Path_48617" data-name="Path 48617" d="M60.065,376.061a4.634,4.634,0,0,0-2.506-6.714v-1.854a1.566,1.566,0,1,0-3.132,0v1.566H51.294v-1.566a1.566,1.566,0,1,0-3.132,0v1.566H46.6a1.566,1.566,0,1,0,0,3.132h1.566v9.4H46.6a1.566,1.566,0,1,0,0,3.132h1.566v1.566a1.566,1.566,0,1,0,3.132,0v-1.566h3.132v1.566a1.566,1.566,0,1,0,3.132,0v-1.566a4.689,4.689,0,0,0,2.506-8.659m-8.771-3.87h4.7a1.566,1.566,0,0,1,0,3.132h-4.7v-3.132m6.265,9.4H51.294v-3.132h6.265a1.566,1.566,0,0,1,0,3.132" transform="translate(-36.129 -293.746)" fill="#007066"/>
    <path id="Path_48618" data-name="Path 48618" d="M399.925,48.8h-4.7a1.566,1.566,0,0,0,0,3.132h2.349V53.5a1.566,1.566,0,0,0,3.132,0V51.857a4.7,4.7,0,0,0-.783-9.317h-1.566a1.566,1.566,0,1,1,0-3.132h4.7a1.566,1.566,0,0,0,0-3.132h-2.349V34.709a1.566,1.566,0,1,0-3.132,0v1.646a4.7,4.7,0,0,0,.783,9.317h1.566a1.566,1.566,0,1,1,0,3.132" transform="translate(-315.848 -26.742)" fill="#007066"/>
    <path id="Path_48619" data-name="Path 48619" d="M50.4,84.86A34.415,34.415,0,0,0,80.978,34.568,17.37,17.37,0,1,0,66.239,19.828,34.417,34.417,0,0,0,19.827,66.24,17.37,17.37,0,1,0,34.568,80.981,34.3,34.3,0,0,0,50.4,84.86M59.9,80.247a31.5,31.5,0,0,0,6.586-11.832h9.505A31.429,31.429,0,0,1,59.9,80.247m18.07-14.965H67.4a59.579,59.579,0,0,0,1.76-13.312H81.647a31.1,31.1,0,0,1-3.679,13.312m3.7-16.445H69.155A59.576,59.576,0,0,0,67.4,35.526H77.949a31.1,31.1,0,0,1,3.72,13.312M83.293,3.419a14.1,14.1,0,1,1-14.1,14.1,14.1,14.1,0,0,1,14.1-14.1M67.379,24.1a17.312,17.312,0,0,0,7.27,8.3H66.484a31.481,31.481,0,0,0-6.578-11.829A31.125,31.125,0,0,1,67.379,24.1M51.97,19.245c4.542.949,8.561,5.98,11.139,13.156H51.97Zm0,16.288H64.115a55.638,55.638,0,0,1,1.909,13.3H51.97Zm0,16.437H66.025a55.64,55.64,0,0,1-1.909,13.312H51.97Zm0,16.445H63.108c-2.578,7.168-6.6,12.2-11.139,13.156ZM48.838,81.571c-4.542-.949-8.561-5.98-11.139-13.156H48.838Zm0-16.288H36.692a55.642,55.642,0,0,1-1.909-13.312H48.837V65.283Zm0-16.445H34.783a55.641,55.641,0,0,1,1.909-13.312H48.838Zm0-29.593V32.4H37.7c2.578-7.176,6.6-12.207,11.139-13.156m-7.928,1.315a31.5,31.5,0,0,0-6.578,11.833H24.819A31.43,31.43,0,0,1,40.909,20.561M22.847,35.526H33.412a59.578,59.578,0,0,0-1.76,13.312H19.16a31.1,31.1,0,0,1,3.687-13.312M19.138,51.97H31.652a59.577,59.577,0,0,0,1.76,13.312H22.858a31.125,31.125,0,0,1-3.72-13.312M17.514,97.389a14.1,14.1,0,1,1,14.1-14.1,14.1,14.1,0,0,1-14.1,14.1m8.644-28.974h8.166A31.482,31.482,0,0,0,40.9,80.244a31.13,31.13,0,0,1-7.474-3.528,17.315,17.315,0,0,0-7.27-8.3" transform="translate(0 -0.15)" fill="#cca079"/>
  </g>
</svg>
