<svg xmlns="http://www.w3.org/2000/svg" width="94.189" height="94.189" viewBox="0 0 94.189 94.189">
  <g id="dep-Icon4" transform="translate(0.357 -0.083)">
    <path id="Path_48620" data-name="Path 48620" d="M65.954,42.537a3.643,3.643,0,0,0,2.593-1.074l5-5H89.632A4.563,4.563,0,0,0,94.189,31.9V10.634a4.563,4.563,0,0,0-4.558-4.558h-31.9V3.038A3.041,3.041,0,0,0,54.691,0H12.782a3.018,3.018,0,0,0-2.148.89L.89,10.634A3.018,3.018,0,0,0,0,12.782V91.151a3.041,3.041,0,0,0,3.038,3.038H54.691a3.041,3.041,0,0,0,3.038-3.038V79H72.292l5,5a3.667,3.667,0,0,0,6.261-2.593V79h6.077a4.563,4.563,0,0,0,4.558-4.558V53.171a4.562,4.562,0,0,0-4.555-4.558H57.729V36.46h4.558V38.87a3.672,3.672,0,0,0,3.667,3.667M10.634,5.186v5.448H5.186Zm-7.6,85.965V13.673H13.673V3.038H54.691V6.356a4.551,4.551,0,0,0-3.038,4.278V31.9a4.551,4.551,0,0,0,3.038,4.278V48.895a4.551,4.551,0,0,0-3.038,4.278V74.442a4.551,4.551,0,0,0,3.038,4.278V91.151Zm88.113-37.98V74.44a1.522,1.522,0,0,1-1.519,1.519H80.517v5.448a.653.653,0,0,1-1.074.445L73.55,75.959H56.21a1.522,1.522,0,0,1-1.519-1.519V53.171a1.522,1.522,0,0,1,1.519-1.519H89.635A1.519,1.519,0,0,1,91.151,53.171ZM56.21,33.422A1.522,1.522,0,0,1,54.691,31.9V10.634A1.522,1.522,0,0,1,56.21,9.115H89.632a1.522,1.522,0,0,1,1.519,1.519V31.9a1.522,1.522,0,0,1-1.519,1.519H72.292L66.4,39.315a.653.653,0,0,1-1.074-.445V33.422Z" transform="translate(-0.357 0.083)" fill="#cca079"/>
    <path id="Path_48621" data-name="Path 48621" d="M353.709,68.328l-2.045-2.248L336.026,80.3l-3.534-3.534-2.148,2.148,5.581,5.581Z" transform="translate(-267.969 -53.449)" fill="#007066"/>
    <path id="Path_48622" data-name="Path 48622" d="M65.422,272H32v12.153H65.422Zm-3.038,9.115H35.038v-6.077H62.384Z" transform="translate(-26.28 -220.265)" fill="#bbb"/>
    <rect id="Rectangle_2953" data-name="Rectangle 2953" width="33" height="3" transform="translate(5.916 67)" fill="#bbb"/>
    <rect id="Rectangle_2954" data-name="Rectangle 2954" width="40" height="3" transform="translate(5.916 73)" fill="#bbb"/>
    <rect id="Rectangle_2955" data-name="Rectangle 2955" width="40" height="3" transform="translate(5.916 79)" fill="#bbb"/>
    <rect id="Rectangle_2956" data-name="Rectangle 2956" width="9" height="2" transform="translate(5.916 86)" fill="#007066"/>
    <rect id="Rectangle_2957" data-name="Rectangle 2957" width="9" height="2" transform="translate(17.916 86)" fill="#007066"/>
    <rect id="Rectangle_2958" data-name="Rectangle 2958" width="9" height="2" transform="translate(29.916 86)" fill="#007066"/>
    <path id="Path_48623" data-name="Path 48623" d="M67.749,48A19.749,19.749,0,1,0,87.5,67.749,19.772,19.772,0,0,0,67.749,48m0,36.46a16.647,16.647,0,0,1-12.084-5.2,14.057,14.057,0,0,1,4.507-4.7l7.576,7.479,7.576-7.479a14.057,14.057,0,0,1,4.507,4.7A16.647,16.647,0,0,1,67.749,84.46ZM61.673,63.192a6.077,6.077,0,1,1,6.077,6.077,6.083,6.083,0,0,1-6.077-6.077m1.4,9.961a13.335,13.335,0,0,1,9.349,0l-4.675,4.615ZM81.84,76.7a17.26,17.26,0,0,0-8.365-6.422,9.115,9.115,0,1,0-11.452,0A17.26,17.26,0,0,0,53.659,76.7a16.711,16.711,0,1,1,28.181,0Z" transform="translate(-39.242 -38.802)" fill="#007066"/>
    <path id="Path_48624" data-name="Path 48624" d="M340.492,307.684l6.522-6.522,6.522,6.522,2.148-2.148-6.522-6.522,6.522-6.522-2.148-2.148-6.522,6.522-6.522-6.522-2.148,2.148,6.522,6.522-6.522,6.522Z" transform="translate(-274.45 -235.125)" fill="#007066"/>
  </g>
</svg>
