<svg xmlns="http://www.w3.org/2000/svg" width="98.123" height="102.716" viewBox="0 0 98.123 102.716">
  <g id="edara5" transform="translate(0 0)">
    <path id="Path_48625" data-name="Path 48625" d="M130.6,224.731h8.618a1.5,1.5,0,0,0,0-3.009H130.6a1.5,1.5,0,0,0,0,3.009Z" transform="translate(-103.196 -177.241)" fill="#007066"/>
    <path id="Path_48626" data-name="Path 48626" d="M130.6,261.079h35a1.5,1.5,0,0,0,0-3.009h-35a1.5,1.5,0,0,0,0,3.009Z" transform="translate(-103.196 -206.297)" fill="#007066"/>
    <path id="Path_48627" data-name="Path 48627" d="M267.888,294.417h-9.331a1.5,1.5,0,0,0,0,3.009h9.331a1.5,1.5,0,1,0,0-3.009" transform="translate(-205.483 -235.352)" fill="#007066"/>
    <path id="Path_48628" data-name="Path 48628" d="M96.181,10.1,76.706.369a3.527,3.527,0,0,0-3.139,0L54.091,10.1h0a3.492,3.492,0,0,0-1.941,3.14v2.8H31.006a1.5,1.5,0,1,0,0,3.009H52.15v4.576a38.33,38.33,0,0,0,.494,6.27H27.4a1.5,1.5,0,0,0,0,3.009H53.287a29.436,29.436,0,0,0,1.5,4.283H27.4a1.5,1.5,0,1,0,0,3.009H56.321a29.6,29.6,0,0,0,1.738,2.622q.623.84,1.319,1.66H42.04a1.5,1.5,0,0,0,0,3.009H62.248A67.116,67.116,0,0,0,73.3,55.622a3.5,3.5,0,0,0,3.672,0l.456-.281V91.88H38.061V89.074a1.5,1.5,0,1,0-3.009,0V99.205a.5.5,0,0,1-.5.5H3.511a.5.5,0,0,1-.5-.5V77.533a.5.5,0,0,1,.5-.5H34.55a.5.5,0,0,1,.5.5v4.519a1.5,1.5,0,1,0,3.009,0V77.533a3.494,3.494,0,0,0-.115-.874H62.4a1.5,1.5,0,1,0,0-3.009H33.226V69.367H62.4a1.5,1.5,0,1,0,0-3.009H33.163a14.083,14.083,0,0,0-1.089-4.283H47.657a1.5,1.5,0,0,0,0-3.009H30.31a14.169,14.169,0,0,0-17.931-3.931V19.052H23.984a1.5,1.5,0,0,0,0-3.009H11.878A2.51,2.51,0,0,0,9.37,18.55V57.282A14.156,14.156,0,0,0,4.835,67.671v6.352H3.511A3.515,3.515,0,0,0,0,77.533V99.205a3.515,3.515,0,0,0,3.511,3.511H34.55a3.515,3.515,0,0,0,3.511-3.511V94.889H77.93a2.51,2.51,0,0,0,2.508-2.508V53.408c5.356-3.584,9.064-6.93,11.775-10.586,3.976-5.362,5.91-11.641,5.91-19.193V13.243A3.491,3.491,0,0,0,96.181,10.1ZM24.2,74.023H13.863V67.671a5.168,5.168,0,1,1,10.336,0v6.352ZM7.844,67.671a11.187,11.187,0,1,1,22.373,0v6.352H27.208V67.671a8.177,8.177,0,1,0-16.355,0v6.352H7.844ZM95.114,23.628c0,14.46-7.542,21.98-19.712,29.427a.512.512,0,0,1-.531,0C62.7,45.608,55.159,38.088,55.159,23.628V13.243a.5.5,0,0,1,.277-.449L74.912,3.06a.5.5,0,0,1,.448,0l19.476,9.733a.5.5,0,0,1,.277.449V23.628Z" transform="translate(0 0)" fill="#cca079"/>
    <path id="Path_48629" data-name="Path 48629" d="M313.4,52.13a15.226,15.226,0,1,0,14.344,20.338,1.5,1.5,0,0,0-2.835-1.011,12.223,12.223,0,1,1,.515-6.253,1.5,1.5,0,0,0,2.963-.526A15.2,15.2,0,0,0,313.4,52.13Z" transform="translate(-238.358 -41.672)" fill="#007066"/>
    <path id="Path_48630" data-name="Path 48630" d="M352.5,105.747l-5.928,5.928-3.447-3.447a1.5,1.5,0,0,0-2.128,2.128l4.511,4.511a1.5,1.5,0,0,0,2.128,0l6.992-6.992a1.5,1.5,0,0,0-2.128-2.128Z" transform="translate(-272.231 -84.18)" fill="#007066"/>
  </g>
</svg>
