<svg xmlns="http://www.w3.org/2000/svg" width="96.983" height="94.67" viewBox="0 0 96.983 94.67">
  <g id="edara2" transform="translate(0 0)">
    <path id="Path_48599" data-name="Path 48599" d="M6.93,12.734v7.585a1.294,1.294,0,0,0,2.587,0V12.734a1.294,1.294,0,1,0-2.587,0" transform="translate(4.277 7.061)" fill="#bbb"/>
    <path id="Path_48600" data-name="Path 48600" d="M6.93,23.724v5.87a1.294,1.294,0,1,0,2.587,0v-5.87a1.294,1.294,0,1,0-2.587,0" transform="translate(4.277 13.843)" fill="#bbb"/>
    <path id="Path_48601" data-name="Path 48601" d="M6.93,32.394v7.665a1.294,1.294,0,1,0,2.587,0V32.394a1.294,1.294,0,0,0-2.587,0" transform="translate(4.277 19.194)" fill="#bbb"/>
    <path id="Path_48602" data-name="Path 48602" d="M6.93,42.424v6.808a1.294,1.294,0,0,0,2.587,0V42.424a1.294,1.294,0,1,0-2.587,0" transform="translate(4.277 25.385)" fill="#bbb"/>
    <path id="Path_48603" data-name="Path 48603" d="M4.69,16.036a4.691,4.691,0,0,0,4.5-3.4h8.652a1.294,1.294,0,0,0,0-2.587H9.186a4.685,4.685,0,1,0-4.5,5.984m0-6.808a2.115,2.115,0,0,1,2.1,1.957c0,.065-.032.113-.032.162,0,.065.032.113.032.162a2.106,2.106,0,1,1-2.1-2.28" transform="translate(0 4.098)" fill="#bbb"/>
    <path id="Path_48604" data-name="Path 48604" d="M4.69,25.89a4.691,4.691,0,0,0,4.5-3.4h8.652a1.294,1.294,0,1,0,0-2.587H9.186a4.685,4.685,0,1,0-4.5,5.984m0-6.808a2.114,2.114,0,0,1,2.1,1.941c0,.049-.032.113-.032.162,0,.065.032.113.032.162a2.105,2.105,0,1,1-2.1-2.264" transform="translate(0 10.19)" fill="#bbb"/>
    <path id="Path_48605" data-name="Path 48605" d="M4.69,35.756a4.691,4.691,0,0,0,4.5-3.4h8.652a1.294,1.294,0,0,0,0-2.587H9.186a4.685,4.685,0,1,0-4.5,5.984m0-6.808a2.115,2.115,0,0,1,2.1,1.957c0,.065-.032.113-.032.162,0,.065.032.113.032.162a2.106,2.106,0,1,1-2.1-2.28" transform="translate(0 16.269)" fill="#bbb"/>
    <path id="Path_48606" data-name="Path 48606" d="M4.69,45.61a4.691,4.691,0,0,0,4.5-3.4h8.652a1.294,1.294,0,1,0,0-2.587H9.186a4.685,4.685,0,1,0-4.5,5.984m0-6.792a2.114,2.114,0,0,1,2.1,1.941c0,.049-.032.113-.032.162,0,.065.032.113.032.162a2.105,2.105,0,1,1-2.1-2.264" transform="translate(0 22.36)" fill="#bbb"/>
    <path id="Path_48607" data-name="Path 48607" d="M17.838,52.08a1.294,1.294,0,0,0,0-2.587H9.186a4.69,4.69,0,1,0,0,2.587ZM4.69,52.9a2.11,2.11,0,1,1,2.1-2.264c0,.065-.032.113-.032.162,0,.065.032.113.032.162A2.1,2.1,0,0,1,4.69,52.9" transform="translate(0 28.44)" fill="#bbb"/>
    <path id="Path_48608" data-name="Path 48608" d="M53.89,13.742A17.991,17.991,0,1,0,53.873,39.2a17.87,17.87,0,0,0,.016-25.454M52.046,37.385a15.42,15.42,0,1,1,0-21.816,15.422,15.422,0,0,1,0,21.816" transform="translate(14.291 5.227)" fill="#007066"/>
    <path id="Path_48609" data-name="Path 48609" d="M91.046,63.442l-8.506-8.506V5.612A5.625,5.625,0,0,0,76.928,0h-64.4A5.625,5.625,0,0,0,6.92,5.612v5a1.294,1.294,0,0,0,2.587,0v-5a3.03,3.03,0,0,1,3.024-3.024h7.342V92.082H12.532a3.03,3.03,0,0,1-3.024-3.024V84.805a1.294,1.294,0,0,0-2.587,0v4.253a5.625,5.625,0,0,0,5.612,5.612h64.38a5.625,5.625,0,0,0,5.612-5.612V71.172l.388.388a5.72,5.72,0,0,0,8.1,0,5.783,5.783,0,0,0,1.7-4.059,5.673,5.673,0,0,0-1.666-4.059M79.952,89.058a3.03,3.03,0,0,1-3.024,3.024H22.461V2.587H76.928a3.03,3.03,0,0,1,3.024,3.024V52.348L78.27,50.666a5.779,5.779,0,0,0-4.059-1.682,5.842,5.842,0,0,0-3.024.889l-2.2-2.2a23.91,23.91,0,0,0-.873-32.926A23.992,23.992,0,1,0,67.16,49.5l2.2,2.2a5.735,5.735,0,0,0,.809,7.1l9.8,9.8V89.058ZM51.166,53.076a21.17,21.17,0,0,1-15.1-6.258,21.376,21.376,0,1,1,15.1,6.258M89.2,69.749a3.162,3.162,0,0,1-4.463,0L71.963,56.973a3.17,3.17,0,0,1,2.232-5.4,3.224,3.224,0,0,1,2.248.938L89.218,65.286a3.131,3.131,0,0,1,.922,2.232,3.175,3.175,0,0,1-.938,2.232" transform="translate(4.271 0)" fill="#cca079"/>
    <path id="Path_48610" data-name="Path 48610" d="M38.767,12.632a7.54,7.54,0,0,0-9.137,7.374,1.294,1.294,0,1,0,2.587,0,4.941,4.941,0,0,1,1.827-3.849,5.014,5.014,0,0,1,4.2-1,4.958,4.958,0,0,1,.5,9.541,4.252,4.252,0,0,0-2.879,4.027V30.5a1.294,1.294,0,1,0,2.587,0V28.723a1.658,1.658,0,0,1,1.116-1.569,7.544,7.544,0,0,0-.809-14.522" transform="translate(18.287 7.696)" fill="#007066"/>
    <path id="Path_48611" data-name="Path 48611" d="M35.689,25.521a1.454,1.454,0,0,0-.42-.275,1.326,1.326,0,0,0-1.407.275,1.058,1.058,0,0,0-.275.42,1,1,0,0,0-.1.485,1.318,1.318,0,0,0,.1.5,1.709,1.709,0,0,0,.275.42.91.91,0,0,0,.42.275,1.318,1.318,0,0,0,.5.1,1.238,1.238,0,0,0,.485-.1,1.454,1.454,0,0,0,.42-.275,1.265,1.265,0,0,0,.275-.42,1.306,1.306,0,0,0,.081-.5,1.606,1.606,0,0,0-.081-.485,1.265,1.265,0,0,0-.275-.42" transform="translate(20.669 15.523)" fill="#007066"/>
    <path id="Path_48612" data-name="Path 48612" d="M61.215,49.5H21.044a1.294,1.294,0,1,0,0,2.587H61.215a1.294,1.294,0,0,0,0-2.587" transform="translate(12.189 30.551)" fill="#007066"/>
    <path id="Path_48613" data-name="Path 48613" d="M61.215,43.47H21.044a1.294,1.294,0,1,0,0,2.587H61.215a1.294,1.294,0,0,0,0-2.587" transform="translate(12.189 26.829)" fill="#007066"/>
  </g>
</svg>
