<svg xmlns="http://www.w3.org/2000/svg" width="104.916" height="90.781" viewBox="0 0 104.916 90.781">
  <g id="edara1" transform="translate(0 0)">
    <path id="Path_48588" data-name="Path 48588" d="M97.782,8.629H94.574V1.569A1.569,1.569,0,0,0,93,0C66.3,0,55.745,6.087,52.474,8.629,49.218,6.079,38.629,0,11.951,0a1.6,1.6,0,0,0-1.608,1.569v7.06h-3.2A7.154,7.154,0,0,0,0,15.759v67.9a7.158,7.158,0,0,0,7.146,7.127H76.669a1.569,1.569,0,0,0,1.569-1.568c0-.015,0-.029,0-.044A1.546,1.546,0,0,0,76.717,87.6H57.655a46.784,46.784,0,0,1,12.79-4.1,1.6,1.6,0,0,0-.592-3.138c-8.236,1.6-13.116,3.922-15.806,5.569v-15.3a25.2,25.2,0,0,0,12.158-4.059l3.326,3.3-.671.722a1.5,1.5,0,0,0-.475,1.082,1.569,1.569,0,0,0,.475,1.133L84.051,88a6.605,6.605,0,0,0,9.34.073L93.464,88l1.467-1.416a6.754,6.754,0,0,0,0-9.484L79.74,61.914a1.6,1.6,0,0,0-2.243,0l-.686.706-3.322-3.35a24.953,24.953,0,0,0-19.446-38.6v-9.3c1.863-1.6,10.833-7.931,37.37-8.209V67.233a1.581,1.581,0,1,0,3.161,0V11.845h3.208a3.946,3.946,0,0,1,3.961,3.922V83.654a3.924,3.924,0,0,1-.871,2.451,1.586,1.586,0,0,0,2.475,1.985,7.131,7.131,0,0,0,1.569-4.436v-67.9a7.13,7.13,0,0,0-7.13-7.13ZM13.52,3.212c26.3.231,35.475,6.6,37.338,8.209v9.248a25.043,25.043,0,0,0,0,49.964V85.965c-4.483-2.785-15.1-7.311-37.338-7.5Zm-6.373,84.4a3.969,3.969,0,0,1-3.961-3.961v-67.9a3.922,3.922,0,0,1,3.922-3.922h3.224V80.011a1.608,1.608,0,0,0,1.608,1.6c19.811,0,30.287,3.448,35.3,5.993Zm85.537-8.236a3.5,3.5,0,0,1,.011,4.942l-.011.012-1.435,1.416a3.424,3.424,0,0,1-4.841.117q-.06-.057-.117-.117L72.233,71.688l3.181-3.161,2.553-2.545.655-.663ZM70.178,58.525a1.62,1.62,0,0,0,.141,2.079l4.271,4.291L73.175,66.26l-1.4,1.4-4.248-4.248a1.531,1.531,0,0,0-1.13-.467,1.684,1.684,0,0,0-.941.278,21.909,21.909,0,1,1,2.353-33.259l.192.192a21.7,21.7,0,0,1,2.177,28.353Z" transform="translate(0 0)" fill="#cca079"/>
    <path id="Path_48589" data-name="Path 48589" d="M93.631,66.481a92.406,92.406,0,0,1,18.661,2.691,1.088,1.088,0,0,0,.392.051,1.588,1.588,0,0,0,1.53-1.176,1.569,1.569,0,0,0-1.089-1.933l-.017,0a94.776,94.776,0,0,0-19.32-2.781,1.514,1.514,0,0,0-1.667,1.344q-.006.059-.008.119a1.569,1.569,0,0,0,1.442,1.686l.076,0" transform="translate(-73.236 -50.346)" fill="#007066"/>
    <path id="Path_48590" data-name="Path 48590" d="M93.77,120.606c2.691.188,5.311.392,7.762.71h.188a1.585,1.585,0,0,0,.192-3.165c-2.522-.278-5.216-.565-7.974-.7a1.571,1.571,0,0,0-.169,3.138Z" transform="translate(-73.376 -93.383)" fill="#007066"/>
    <path id="Path_48591" data-name="Path 48591" d="M93.724,174.955c.945.09,1.891.137,2.789.188h.09a1.569,1.569,0,0,0,1.628-1.467,1.6,1.6,0,0,0-1.463-1.694c-.918-.047-1.883-.145-2.875-.188a1.583,1.583,0,0,0-.169,3.161" transform="translate(-73.33 -136.593)" fill="#007066"/>
    <path id="Path_48592" data-name="Path 48592" d="M93.732,229.284c.663.043,1.3.09,1.937.141h.114a1.608,1.608,0,0,0,1.569-1.467,1.655,1.655,0,0,0-1.482-1.741c-.639,0-1.3-.051-1.961-.1a1.585,1.585,0,0,0-.176,3.165" transform="translate(-73.337 -179.787)" fill="#007066"/>
    <path id="Path_48593" data-name="Path 48593" d="M99.236,280.664l-5.354-.424a1.62,1.62,0,0,0-1.675,1.514,1.569,1.569,0,0,0,1.437,1.691l.061,0c1.8.1,3.53.235,5.217.392h.165a1.569,1.569,0,0,0,1.569-1.416A1.612,1.612,0,0,0,99.236,280.664Z" transform="translate(-73.311 -222.821)" fill="#007066"/>
    <path id="Path_48594" data-name="Path 48594" d="M185.1,151.26a15.461,15.461,0,1,0,22.034,0A15.626,15.626,0,0,0,185.1,151.26Zm19.795,2.283a12.39,12.39,0,1,1-8.778-3.652,12.39,12.39,0,0,1,8.778,3.652" transform="translate(-143.561 -116.675)" fill="#bbb"/>
    <path id="Path_48595" data-name="Path 48595" d="M331.382,63.309a95.607,95.607,0,0,0-19.32,2.781,1.581,1.581,0,0,0,.392,3.138,1.218,1.218,0,0,0,.424-.051,91.29,91.29,0,0,1,18.658-2.691,1.6,1.6,0,0,0,1.51-1.693h0a1.5,1.5,0,0,0-1.513-1.491Q331.457,63.3,331.382,63.309Z" transform="translate(-247.022 -50.331)" fill="#007066"/>
    <path id="Path_48596" data-name="Path 48596" d="M374.987,117.445c-2.785.137-5.452.424-7.977.7a1.585,1.585,0,1,0,.188,3.165h.188c2.455-.333,5.071-.522,7.762-.71a1.593,1.593,0,0,0,1.51-1.651,1.569,1.569,0,0,0-1.627-1.508Z" transform="translate(-290.627 -93.379)" fill="#007066"/>
    <path id="Path_48597" data-name="Path 48597" d="M394.842,171.793c-.992.043-1.961.141-2.883.188a1.608,1.608,0,0,0-1.467,1.694,1.569,1.569,0,0,0,1.569,1.467h.1c.941-.051,1.863-.1,2.828-.188a1.612,1.612,0,0,0,1.51-1.7,1.569,1.569,0,0,0-1.655-1.459" transform="translate(-310.482 -136.592)" fill="#007066"/>
    <path id="Path_48598" data-name="Path 48598" d="M398.243,226.121c-.686.047-1.349.1-2.008.1a1.624,1.624,0,0,0-1.463,1.741,1.593,1.593,0,0,0,1.569,1.467h.121c.631-.051,1.271-.1,1.93-.141a1.585,1.585,0,0,0-.161-3.165Z" transform="translate(-313.883 -179.789)" fill="#007066"/>
  </g>
</svg>
