<svg xmlns="http://www.w3.org/2000/svg" width="95.491" height="103.989" viewBox="0 0 95.491 103.989">
  <g id="Icon" transform="translate(-1)">
    <rect id="Rectangle_16058" data-name="Rectangle 16058" width="71" height="90" rx="8" transform="translate(12 13.989)" fill="#eaeaea"/>
    <path id="Path_59403" data-name="Path 59403" d="M72.625,80.559V89.9a1.871,1.871,0,0,1-1.865,1.865H6.6A1.871,1.871,0,0,1,4.73,89.9V5.6A1.871,1.871,0,0,1,6.6,3.731h47.75V16.414a5.612,5.612,0,0,0,5.6,5.6H72.625V37.882a24.125,24.125,0,0,1,3.714,3.191l.019.019V20.144h0a1.878,1.878,0,0,0-.541-1.324L57.535.541A1.91,1.91,0,0,0,56.211,0H6.6A5.612,5.612,0,0,0,1,5.6V89.9a5.612,5.612,0,0,0,5.6,5.6H70.759a5.612,5.612,0,0,0,5.6-5.6V84.29ZM58.076,6.36l11.9,11.919H59.941a1.871,1.871,0,0,1-1.865-1.865Z" fill="#cca079"/>
    <path id="Path_59404" data-name="Path 59404" d="M73.752,280.8H56.965a1.865,1.865,0,1,0,0,3.731H73.752a1.865,1.865,0,1,0,0-3.731Z" transform="translate(-44.009 -228.425)" fill="#91663f"/>
    <path id="Path_59405" data-name="Path 59405" d="M80.6,346H57.655c-1.4,0-2.555.839-2.555,1.865s1.138,1.865,2.555,1.865H80.6c1.4,0,2.555-.839,2.555-1.865S82,346,80.6,346Z" transform="translate(-44.009 -281.463)" fill="#91663f"/>
    <path id="Path_59406" data-name="Path 59406" d="M74.953,211.5H57.065a1.865,1.865,0,1,0,0,3.731H74.953a1.865,1.865,0,0,0,0-3.731Z" transform="translate(-44.091 -172.05)" fill="#91663f"/>
    <path id="Path_59407" data-name="Path 59407" d="M182.865,419.5a1.961,1.961,0,0,0-1.324.541,1.846,1.846,0,0,0-.541,1.324,1.961,1.961,0,0,0,.541,1.324,1.847,1.847,0,0,0,1.324.541,1.961,1.961,0,0,0,1.324-.541,1.846,1.846,0,0,0,.541-1.324,1.961,1.961,0,0,0-.541-1.324A1.878,1.878,0,0,0,182.865,419.5Z" transform="translate(-146.426 -341.254)" fill="#91663f"/>
    <path id="Path_59408" data-name="Path 59408" d="M72.863,419.5h-15.8a1.865,1.865,0,0,0,0,3.731H72.882a1.865,1.865,0,1,0-.019-3.731Z" transform="translate(-44.091 -341.254)" fill="#91663f"/>
    <path id="Path_59409" data-name="Path 59409" d="M56.965,145.831a1.961,1.961,0,0,0,1.324-.541,1.846,1.846,0,0,0,.541-1.324,1.961,1.961,0,0,0-.541-1.324,1.846,1.846,0,0,0-1.324-.541,1.926,1.926,0,0,0-1.324.541,1.846,1.846,0,0,0-.541,1.324,1.961,1.961,0,0,0,.541,1.324,1.878,1.878,0,0,0,1.324.541Z" transform="translate(-44.009 -115.595)" fill="#91663f"/>
    <path id="Path_59410" data-name="Path 59410" d="M127.25,142.1H99.365a1.865,1.865,0,1,0,0,3.731H127.25a1.865,1.865,0,1,0,0-3.731Z" transform="translate(-78.5 -115.595)" fill="#91663f"/>
    <path id="Path_59411" data-name="Path 59411" d="M57.065,76.531H92.841a1.865,1.865,0,1,0,0-3.731H57.065a1.865,1.865,0,0,0,0,3.731Z" transform="translate(-44.091 -59.221)" fill="#91663f"/>
    <g id="Group_25694" data-name="Group 25694" transform="translate(34.652 33.559)">
      <path id="Path_59412" data-name="Path 59412" d="M239.414,222a16.414,16.414,0,1,0,16.414,16.414A16.414,16.414,0,0,0,239.414,222Zm0,29.1A12.683,12.683,0,1,1,252.1,238.414,12.683,12.683,0,0,1,239.414,251.1Z" transform="translate(-215.244 -214.152)" fill="#007066"/>
      <path id="Path_59413" data-name="Path 59413" d="M241.4,231.045l-14.138-14.138-.672-.672-.111-.111c.037-.074.074-.131.111-.2a24.173,24.173,0,0,0-3.357-28.332c0-.019-.019-.019-.037-.037l-.111-.111c0-.019-.019-.019-.019-.037a24.269,24.269,0,0,0-3.714-3.19v.019a24.218,24.218,0,0,0-30.533,2.368c-.111.111-.243.224-.354.354a24.154,24.154,0,0,0,29.023,38.069l5.6,5.6,9.345,9.345a6.324,6.324,0,1,0,8.972-8.914Zm-35.831-6.36a20.52,20.52,0,1,1,15.575-7.162,20.52,20.52,0,0,1-15.575,7.162Zm33.182,12.665a2.612,2.612,0,0,1-3.675,0l-14.419-14.476a.569.569,0,0,1,.13-.093c.15-.111.3-.242.424-.354q.756-.643,1.455-1.343a12.707,12.707,0,0,0,1.753-1.716l14.306,14.306a2.6,2.6,0,0,1,.027,3.676Z" transform="translate(-181.403 -179.904)" fill="#007066"/>
      <path id="Path_59414" data-name="Path 59414" d="M302.865,265a1.865,1.865,0,0,0,0,3.731,4.669,4.669,0,0,1,4.664,4.664,1.865,1.865,0,0,0,3.731,0A8.406,8.406,0,0,0,302.865,265Z" transform="translate(-278.696 -249.131)" fill="#007066"/>
    </g>
  </g>
</svg>
