<svg xmlns="http://www.w3.org/2000/svg" width="120.354" height="100.993" viewBox="0 0 120.354 100.993">
  <g id="Icon3" transform="translate(1.498 -7.303)">
    <circle id="Ellipse_219" data-name="Ellipse 219" cx="40.232" cy="40.232" r="40.232" transform="translate(11.468 27.832)" fill="#bbb" opacity="0.3"/>
    <path id="Path_51124" data-name="Path 51124" d="M229.733,175.175s9.812-.153,10.681-4.46-.526-9.1,3.042-12.361,6.518-3.544,10.025-2.394A8.1,8.1,0,0,1,259,164.827l-1.147,4.833,4.217,4.274,10.442.707,7.759,3.736-3.448-9.291-5.557-7.474,3.441-5.555s1.911-2.875,6.608-1.822,6.626.6,6.626.6" transform="translate(-226.325 -100.115)" fill="none" stroke="#c48e61" stroke-linecap="round" stroke-linejoin="round" stroke-width="3"/>
    <path id="Path_51125" data-name="Path 51125" d="M241.284,175.3s4.181-.789,4.892-4.1,3.077-5.467,5.523-4.39,5.207,2.34,5.207,2.34a11.257,11.257,0,0,1,2.294,3.743c.868,2.332,2.294,5.876,2.294,5.876" transform="translate(-211.072 -83.578)" fill="none" stroke="#c48e61" stroke-linecap="round" stroke-linejoin="round" stroke-width="3"/>
    <path id="Path_51126" data-name="Path 51126" d="M254.819,183.607s1.172-5.917,4.952-6.233,5.755-4.576,4.65-7.021-3.79-7.5-3.79-7.5" transform="translate(-193.2 -88.423)" fill="none" stroke="#c48e61" stroke-linecap="round" stroke-linejoin="round" stroke-width="3"/>
    <path id="Path_51129" data-name="Path 51129" d="M325.028,182.954a48.381,48.381,0,1,1-48.381-48.381" transform="translate(-228.264 -125.77)" fill="none" stroke="#005f54" stroke-linecap="round" stroke-linejoin="round" stroke-width="3"/>
    <g id="Group_25026" data-name="Group 25026" transform="translate(54.921 9.625)">
      <g id="Group_25027" data-name="Group 25027" transform="translate(9.335 2.822)">
        <g id="Group_25026-2" data-name="Group 25026" transform="translate(0 0)">
          <path id="Path_53178" data-name="Path 53178" d="M115.8,143.228c-1.255-2.616-5.743-6.244-10.08-9.755-2.421-1.955-4.7-3.8-6.161-5.26a1.332,1.332,0,0,0-1.393-.312c-.892.325-1.451.576-1.888.765a4.405,4.405,0,0,1-1.784.491,1.332,1.332,0,0,0-.975.584c-1.883,2.815-3.833,2.575-5.135,2.14-.415-.139-.491-.317-.53-.488-.279-1.17,1.124-3.892,2.944-5.711,4.333-4.333,6.561-5.416,11.276-3.313,5.352,2.392,10.7,4.265,10.761,4.283a1.333,1.333,0,0,0,.877-2.517c-.053-.019-5.306-1.854-10.549-4.205-6.108-2.731-9.459-.933-14.245,3.857-1.822,1.822-4.3,5.509-3.657,8.213a3.294,3.294,0,0,0,2.294,2.4,6.664,6.664,0,0,0,7.823-2.676,6.724,6.724,0,0,0,2-.637c.255-.112.543-.242.933-.4,1.529,1.431,3.579,3.1,5.746,4.842,3.916,3.167,8.357,6.754,9.355,8.836a1.561,1.561,0,0,1-.4,2,1.468,1.468,0,0,1-1.641.322,1.332,1.332,0,0,0-2.081,1.239,1.609,1.609,0,0,1-1.019,1.5,2.039,2.039,0,0,1-2.075.048,1.332,1.332,0,0,0-2.235.85,2.531,2.531,0,0,1-1.571,2.039,1.4,1.4,0,0,1-1.529-.237,1.347,1.347,0,0,0-1.217-.31,1.33,1.33,0,0,0-.935.838c-.051.127-.166.452-1.412.452a7.67,7.67,0,0,1-3.263-1.116c-.935-.616-6.8-4.989-11.861-9.23-.711-.6-1.942-1.883-3.029-3.018-.965-1.007-1.846-1.92-2.294-2.3a1.334,1.334,0,1,0-1.72,2.039c.413.349,1.212,1.193,2.094,2.113,1.188,1.241,2.421,2.526,3.242,3.218,4.96,4.153,10.922,8.636,12.106,9.416a10.218,10.218,0,0,0,4.728,1.551,4.588,4.588,0,0,0,3.024-.892,4.145,4.145,0,0,0,3.029-.032,5.246,5.246,0,0,0,2.773-2.56,5.15,5.15,0,0,0,3.342-.482,4.519,4.519,0,0,0,2.224-2.323,4.356,4.356,0,0,0,3.058-1.095,4.234,4.234,0,0,0,1.051-5.162Z" transform="translate(-74.653 -118.647)" fill="#c48e61"/>
        </g>
      </g>
      <g id="Group_25029" data-name="Group 25029" transform="translate(13.319 5.335)">
        <g id="Group_25028" data-name="Group 25028">
          <path id="Path_53179" data-name="Path 53179" d="M119.985,138.663H108a1.332,1.332,0,1,0,0,2.663h11.987a1.332,1.332,0,1,0,0-2.663Z" transform="translate(-106.666 -138.663)" fill="#c48e61"/>
        </g>
      </g>
      <g id="Group_25031" data-name="Group 25031" transform="translate(48.048 23.98)">
        <g id="Group_25030" data-name="Group 25030" transform="translate(0 0)">
          <path id="Path_53180" data-name="Path 53180" d="M391.143,288.568a1.329,1.329,0,0,0-1.849-.362l-3.894,2.616a1.332,1.332,0,1,0,1.487,2.211l3.894-2.616a1.333,1.333,0,0,0,.362-1.849Z" transform="translate(-384.811 -287.978)" fill="#c48e61"/>
        </g>
      </g>
      <g id="Group_25033" data-name="Group 25033" transform="translate(35.962 22.649)">
        <g id="Group_25032" data-name="Group 25032" transform="translate(0 0)">
          <path id="Path_53181" data-name="Path 53181" d="M298.165,285.594c-.953-.752-5.225-5.118-7.856-7.866a1.332,1.332,0,0,0-1.923,1.844c.684.714,6.723,7.009,8.127,8.116a1.326,1.326,0,0,0,.823.285,1.346,1.346,0,0,0,1.049-.51,1.33,1.33,0,0,0-.22-1.869Z" transform="translate(-288.015 -277.318)" fill="#c48e61"/>
        </g>
      </g>
      <g id="Group_25035" data-name="Group 25035" transform="translate(31.965 26.645)">
        <g id="Group_25034" data-name="Group 25034" transform="translate(0 0)">
          <path id="Path_53182" data-name="Path 53182" d="M264.83,316.288c-1.6-1.274-5.607-5.535-6.51-6.521a1.333,1.333,0,1,0-1.964,1.8c.048.051,4.832,5.216,6.809,6.8a1.333,1.333,0,1,0,1.666-2.081Z" transform="translate(-256.004 -309.336)" fill="#c48e61"/>
        </g>
      </g>
      <g id="Group_25037" data-name="Group 25037" transform="translate(26.659 29.329)">
        <g id="Group_25036" data-name="Group 25036" transform="translate(0 0)">
          <path id="Path_53183" data-name="Path 53183" d="M222.189,337.612c-1.9-1.6-5.785-5.734-6.545-6.55a1.333,1.333,0,0,0-1.947,1.82c1.092,1.17,4.81,5.111,6.774,6.769a1.333,1.333,0,1,0,1.718-2.039Z" transform="translate(-213.359 -330.662)" fill="#c48e61"/>
        </g>
      </g>
      <g id="Group_25039" data-name="Group 25039" transform="translate(0 0)">
        <g id="Group_25038" data-name="Group 25038" transform="translate(0 0)">
          <path id="Path_53184" data-name="Path 53184" d="M15.567,99.033C13.284,96.87,4.155,96.169,1.412,96A1.33,1.33,0,0,0,0,97.336v23.973a1.333,1.333,0,0,0,1.332,1.332H9.323a1.33,1.33,0,0,0,1.265-.919c.195-.6,4.784-14.682,5.389-21.608a1.325,1.325,0,0,0-.41-1.081ZM8.35,119.978H2.663V98.763c4.28.338,8.9,1.073,10.577,1.888C12.535,106.485,9.342,116.85,8.35,119.978Z" transform="translate(0 -95.998)" fill="#bbb"/>
        </g>
      </g>
      <g id="Group_25041" data-name="Group 25041" transform="translate(45.336 2.671)">
        <g id="Group_25040" data-name="Group 25040" transform="translate(0)">
          <path id="Path_53185" data-name="Path 53185" d="M380.317,117.33c-10.458,0-16.26,2.676-16.5,2.789a1.325,1.325,0,0,0-.711.828,1.343,1.343,0,0,0,.146,1.082c1.646,2.651,6.8,17.37,7.791,20.961a1.332,1.332,0,0,0,1.284.977h7.991a1.333,1.333,0,0,0,1.332-1.332V118.662a1.33,1.33,0,0,0-1.332-1.332ZM378.985,141.3h-5.663c-1.263-4.113-4.991-14.837-7.072-19.27a43.379,43.379,0,0,1,12.735-2.025Z" transform="translate(-363.05 -117.33)" fill="#bbb"/>
        </g>
      </g>
    </g>
  </g>
</svg>
