<svg xmlns="http://www.w3.org/2000/svg" width="101.073" height="102.708" viewBox="0 0 101.073 102.708">
  <g id="Icon2" transform="translate(0 0)">
    <path id="Path_59377" data-name="Path 59377" d="M373.743,303.033a10.231,10.231,0,0,0,.462-12.953,10.538,10.538,0,0,0-12.716-3.2,10.3,10.3,0,0,0-5.871,11.592,10.506,10.506,0,0,0,18.125,4.562Zm-15.312-6.761a7.26,7.26,0,0,1,1.807-4.789h0a7.472,7.472,0,0,1,9.377-1.506,7.273,7.273,0,0,1,3.164,8.848,7.421,7.421,0,0,1-8.255,4.645,7.342,7.342,0,0,1-6.093-7.2Z" transform="translate(-284.642 -228.623)" fill="#012d29"/>
    <path id="Path_59378" data-name="Path 59378" d="M343.009,245.426a20.049,20.049,0,0,0-25.051-2.557A19.489,19.489,0,0,0,310.5,266.63a1.532,1.532,0,0,0,1.988.827,1.5,1.5,0,0,0,.837-1.964,16.513,16.513,0,0,1,6.541-20.271,16.979,16.979,0,0,1,21.366,2.69,16.466,16.466,0,0,1,1.183,21.243l-8.3,11.3a17.806,17.806,0,0,0-3.064,6.773l-.621,2.836a1.559,1.559,0,0,1-3.042,0l-.621-2.836a17.808,17.808,0,0,0-3.063-6.773l-7.168-9.762a1.539,1.539,0,0,0-2.132-.334,1.5,1.5,0,0,0-.338,2.106l7.168,9.762a14.826,14.826,0,0,1,2.552,5.641l.621,2.836a4.619,4.619,0,0,0,9.006,0l.621-2.836a14.828,14.828,0,0,1,2.551-5.641l8.286-11.289a19.407,19.407,0,0,0-1.867-25.512Z" transform="translate(-247.723 -191.587)" fill="#007066"/>
    <path id="Path_59379" data-name="Path 59379" d="M53.157,54.691a8.7,8.7,0,0,0,7.314-3.954,8.48,8.48,0,0,0,.565-8.216,1.533,1.533,0,0,0-2.025-.736,1.5,1.5,0,0,0-.745,2,5.507,5.507,0,0,1-1.4,6.514,5.677,5.677,0,0,1-6.724.5,5.521,5.521,0,0,1-2.372-6.234,5.613,5.613,0,0,1,5.391-4,5.79,5.79,0,0,1,.86.064,1.507,1.507,0,1,0,.462-2.979,8.88,8.88,0,0,0-1.316-.1,8.573,8.573,0,1,0,0,17.144Z" transform="translate(-36.937 -30.099)" fill="#012d29"/>
    <path id="Path_59380" data-name="Path 59380" d="M17.205,35.049a11.572,11.572,0,0,1,1.992,4.4l.5,2.273a4,4,0,0,0,7.806,0l.5-2.272a11.573,11.573,0,0,1,1.992-4.4l6.632-9.033A15.876,15.876,0,0,0,38.154,9.45,16.307,16.307,0,0,0,12.267,5a15.925,15.925,0,0,0-4.89,11.464A15.747,15.747,0,0,0,10.563,26ZM14.4,7.162a13.152,13.152,0,0,1,9.2-3.7h.321a13.179,13.179,0,0,1,11.519,7.305A12.874,12.874,0,0,1,34.16,24.232l-6.643,9.047a14.556,14.556,0,0,0-2.5,5.536l-.5,2.272a.944.944,0,0,1-1.841,0l-.5-2.272a14.553,14.553,0,0,0-2.5-5.536l-6.647-9.061A12.889,12.889,0,0,1,14.4,7.162Z" transform="translate(-7.377 -0.447)" fill="#007066"/>
    <path id="Path_59381" data-name="Path 59381" d="M395.8,45.674a1.494,1.494,0,0,0,.1,2.129,1.539,1.539,0,0,0,2.155-.1l.026-.028c.037-.039.073-.078.106-.118a7.2,7.2,0,0,0-.715-10.24,7.412,7.412,0,0,0-10.367.707,1.5,1.5,0,0,0,.142,2.127,1.539,1.539,0,0,0,2.154-.141,4.333,4.333,0,0,1,6.062-.413,4.208,4.208,0,0,1,.418,5.988Z" transform="translate(-309.617 -28.505)" fill="#012d29"/>
    <path id="Path_59382" data-name="Path 59382" d="M356.9,8.1a1.537,1.537,0,0,0,2.129-.345,11.615,11.615,0,0,1,16.1-2.476,11.29,11.29,0,0,1,2.507,15.9l-1.577,2.148a1.5,1.5,0,0,0,.338,2.106,1.539,1.539,0,0,0,2.132-.334l1.567-2.134A14.282,14.282,0,0,0,376.912,2.85a14.693,14.693,0,0,0-20.365,3.144,1.666,1.666,0,0,0,.106,1.89,1.508,1.508,0,0,0,.239.215Z" transform="translate(-285.377 -0.076)" fill="#007066"/>
    <path id="Path_59383" data-name="Path 59383" d="M87.627,113.73a1.506,1.506,0,0,0-.977-1.416,1.537,1.537,0,0,0-1.686.4,31.949,31.949,0,0,1-3,2.93,43.015,43.015,0,0,1-6.6,1.683,61.915,61.915,0,0,0,4.275-14.609,1.508,1.508,0,0,0-1.226-1.753,1.524,1.524,0,0,0-1.775,1.211c-1.256,6.786-3,12.288-4.952,15.626q-1.914.164-3.853.168c-1.3,0-2.585-.06-3.855-.171-2.248-3.841-4.1-10.265-5.367-18.124,3.019.242,6.1.367,9.223.367,2.888,0,5.8-.108,8.667-.321a1.507,1.507,0,1,0-.228-3.006c-2.786.208-5.622.313-8.437.313-3.28,0-6.517-.143-9.675-.415A160.869,160.869,0,0,1,56.79,76.7H81.53a1.5,1.5,0,0,0,.395-2.961,164.554,164.554,0,0,0-1.288-19.658,92.639,92.639,0,0,1,14.355,2.771,65.736,65.736,0,0,1,2.025,10.425,1.518,1.518,0,0,0,1.514,1.341,1.568,1.568,0,0,0,.17-.009,1.511,1.511,0,0,0,1.348-1.664A69.152,69.152,0,0,0,98.424,57.9a51.053,51.053,0,0,1,10.909,5.007,42.121,42.121,0,0,1,1.578,7.807,1.525,1.525,0,0,0,3.035-.311A45.76,45.76,0,0,0,93.308,36.938a46.9,46.9,0,0,0-39.284-5.482,1.5,1.5,0,0,0-1,1.887,1.529,1.529,0,0,0,1.91.99,43.445,43.445,0,0,1,5.37-1.283,68.837,68.837,0,0,0-4.841,17.944c-1.738.188-3.458.411-5.15.679a1.507,1.507,0,1,0,.478,2.976q2.09-.331,4.23-.578-.366,2.822-.634,5.835a1.494,1.494,0,0,0,.352,1.1,1.531,1.531,0,0,0,1.038.532h.135a1.518,1.518,0,0,0,1.518-1.375c.2-2.207.438-4.348.718-6.409,3.176-.273,6.413-.416,9.689-.416s6.517.143,9.675.415a160.866,160.866,0,0,1,1.367,19.921H56.8c.02-2.4.086-4.8.2-7.148a1.526,1.526,0,0,0-3.048-.147c-.12,2.4-.184,4.844-.2,7.294H38.224c.01-.437.024-.886.042-1.354a1.526,1.526,0,0,0-3.049-.118c-.02.509-.035,1-.045,1.472H24.545a42.218,42.218,0,0,1,2.077-11.7,1.5,1.5,0,0,0-.981-1.9,1.529,1.529,0,0,0-1.921.969,45.455,45.455,0,0,0,13.565,48.576,46.838,46.838,0,0,0,50.536,6.89,1.5,1.5,0,0,0-.194-2.792ZM80.2,51a68.851,68.851,0,0,0-4.836-17.942,43.63,43.63,0,0,1,6.608,1.688A39.607,39.607,0,0,1,91.718,48a54.166,54.166,0,0,1,2.213,5.451A98.582,98.582,0,0,0,80.2,51Zm27.539,7.536a61.973,61.973,0,0,0-10.287-4.1,58.483,58.483,0,0,0-2.976-7.711,47.568,47.568,0,0,0-5.348-8.793,43.08,43.08,0,0,1,18.612,20.6Zm-39.909-8.2c-3.11,0-6.2.124-9.23.365,1.282-7.916,3.17-14.345,5.383-18.124q1.914-.167,3.852-.169t3.854.17c2.248,3.841,4.1,10.267,5.369,18.126C74.034,50.458,70.95,50.332,67.831,50.332Zm-7.536,66.994a43.375,43.375,0,0,1-6.614-1.7c-5.171-4.4-9.277-10.947-11.962-18.7a98.655,98.655,0,0,0,13.734,2.453A68.858,68.858,0,0,0,60.3,117.324ZM55.025,96.3a92.618,92.618,0,0,1-14.362-2.772A67.915,67.915,0,0,1,38.222,76.7H53.738a164.582,164.582,0,0,0,1.287,19.6ZM24.546,76.7H35.171a71.29,71.29,0,0,0,2.071,15.78,51.081,51.081,0,0,1-10.9-5A42.124,42.124,0,0,1,24.546,76.7Zm3.39,15.155A62.013,62.013,0,0,0,38.211,95.94,52.265,52.265,0,0,0,46.5,112.41,43.235,43.235,0,0,1,27.936,91.851Z" transform="translate(-18.602 -23.58)" fill="#cca079"/>
  </g>
</svg>
