<svg xmlns="http://www.w3.org/2000/svg" width="98.422" height="103.038" viewBox="0 0 98.422 103.038">
  <g id="Icon5" transform="translate(3.259 -0.4)">
    <g id="Group_25014" data-name="Group 25014" transform="translate(-3.259 0.4)">
      <path id="Path_53186" data-name="Path 53186" d="M20.9,20.513l53.92-1.395L88.73,6.077H92.9v4.348L80.554,22.774,68.031,27.127,46.636,32.169l-12.7,2.954H20.9Z" transform="translate(3.283 64.723)" fill="#bbb" opacity="0.3"/>
      <g id="Group_25016" data-name="Group 25016" transform="translate(0 64.282)">
        <path id="Path_52860" data-name="Path 52860" d="M95.6,303.505a7.607,7.607,0,0,0-10.237.215l-9.375,9.087H62.218a6.527,6.527,0,0,0,1.422-4.267,7.114,7.114,0,0,0-7.275-6.613H40.416a10.139,10.139,0,0,0-3.977.806l-11.631,4.935H19.532v-1.207A1.4,1.4,0,0,0,18.1,305.1H12.143a1.365,1.365,0,1,0,0,2.727h4.521v29.325H2.88V307.82H5.454a1.365,1.365,0,1,0,0-2.727H1.445a1.4,1.4,0,0,0-1.434,1.363v32.051a1.4,1.4,0,0,0,1.434,1.364H18.1a1.4,1.4,0,0,0,1.434-1.363v-.418H34.9a23.36,23.36,0,0,0,5.349-.62l23.763-5.593a1.36,1.36,0,0,0,1.048-1.651,1.441,1.441,0,0,0-1.737-1L39.56,334.823a20.343,20.343,0,0,1-4.658.536H19.532V310.386H25.11a1.5,1.5,0,0,0,.585-.118L37.6,305.218a7.168,7.168,0,0,1,2.808-.57H56.364a4.291,4.291,0,0,1,4.408,3.962,3.943,3.943,0,0,1-1.213,2.959,8.038,8.038,0,0,1-3.089,1.235h-10.9a1.366,1.366,0,1,0,0,2.727H76.584a1.473,1.473,0,0,0,1.024-.409l9.8-9.5a4.631,4.631,0,0,1,6.23-.13,4.1,4.1,0,0,1,.215,5.992L84.316,321.2a19.546,19.546,0,0,1-9.523,5.327l-4.975,1.17a1.36,1.36,0,0,0-1.048,1.651,1.424,1.424,0,0,0,1.395,1.036,1.5,1.5,0,0,0,.345-.041l4.976-1.17a22.439,22.439,0,0,0,10.932-6.115l9.533-9.708a6.736,6.736,0,0,0-.354-9.845Z" transform="translate(0.249 -301.37)" fill="#005f54"/>
        <path id="Path_52860_-_Outline" data-name="Path 52860 - Outline" d="M90.608,301.38a7.772,7.772,0,0,1,5.176,1.943,6.979,6.979,0,0,1,.366,10.191l-9.534,9.718a22.69,22.69,0,0,1-11.058,6.191l-4.976,1.171a1.779,1.779,0,0,1-.407.047,1.67,1.67,0,0,1-1.637-1.22,1.609,1.609,0,0,1,1.233-1.944l4.976-1.171a19.289,19.289,0,0,0,9.4-5.263l9.536-9.72a3.874,3.874,0,0,0-.2-5.658,4.366,4.366,0,0,0-5.879.122l-9.8,9.506a1.742,1.742,0,0,1-1.2.482H45.573a1.609,1.609,0,1,1,0-3.211H56.456a7.535,7.535,0,0,0,2.933-1.163,3.717,3.717,0,0,0,1.142-2.789,4.043,4.043,0,0,0-4.156-3.731H40.424a6.9,6.9,0,0,0-2.707.549L25.81,310.484a1.751,1.751,0,0,1-.688.139H19.79v24.517H34.908a20.06,20.06,0,0,0,4.6-.536l23.768-5.6a1.776,1.776,0,0,1,.407-.047,1.67,1.67,0,0,1,1.637,1.22,1.609,1.609,0,0,1-1.233,1.944l-23.768,5.6a23.612,23.612,0,0,1-5.409.628H19.79v.178a1.65,1.65,0,0,1-1.687,1.609H1.448a1.65,1.65,0,0,1-1.687-1.609V306.45a1.65,1.65,0,0,1,1.687-1.609h4a1.609,1.609,0,1,1,0,3.211H3.136v28.873H16.415V308.052H12.147a1.609,1.609,0,1,1,0-3.211H18.1a1.65,1.65,0,0,1,1.687,1.609v.966h4.971L36.347,302.5a10.4,10.4,0,0,1,4.076-.827H56.375a7.368,7.368,0,0,1,7.53,6.854,6.722,6.722,0,0,1-1.19,4.038H75.89l9.3-9.019a7.724,7.724,0,0,1,5.415-2.167ZM70.174,330.164a1.243,1.243,0,0,0,.285-.033l4.976-1.171a22.179,22.179,0,0,0,10.809-6.051l9.534-9.718a6.514,6.514,0,0,0-.342-9.514,7.341,7.341,0,0,0-9.885.206L76.1,313.049H61.721l.3-.385a6.281,6.281,0,0,0,1.372-4.12,6.865,6.865,0,0,0-7.024-6.386H40.424a9.869,9.869,0,0,0-3.874.785L24.87,307.9H19.285v-1.449a1.155,1.155,0,0,0-1.18-1.124H12.147a1.126,1.126,0,1,0,0,2.253h4.774v29.836H2.63V307.574H5.453a1.126,1.126,0,1,0,0-2.253h-4a1.155,1.155,0,0,0-1.18,1.124v32.083a1.155,1.155,0,0,0,1.18,1.124H18.1a1.155,1.155,0,0,0,1.18-1.124v-.654H34.908a23.085,23.085,0,0,0,5.288-.614l23.767-5.6a1.123,1.123,0,0,0,.858-1.361,1.169,1.169,0,0,0-1.146-.858,1.244,1.244,0,0,0-.285.033l-23.768,5.6a20.6,20.6,0,0,1-4.72.548H19.285V310.146h5.835a1.228,1.228,0,0,0,.482-.1L37.509,305a7.426,7.426,0,0,1,2.912-.591H56.375a4.542,4.542,0,0,1,4.662,4.2,4.184,4.184,0,0,1-1.287,3.137,8.045,8.045,0,0,1-3.271,1.309H45.573a1.126,1.126,0,1,0,0,2.253H76.6a1.22,1.22,0,0,0,.843-.337l9.8-9.505a4.891,4.891,0,0,1,6.584-.137,4.339,4.339,0,0,1,.229,6.338l-9.536,9.72a19.8,19.8,0,0,1-9.648,5.4l-4.976,1.171a1.123,1.123,0,0,0-.858,1.361,1.169,1.169,0,0,0,1.14.849Z" transform="translate(0.239 -301.38)" fill="#005f54"/>
      </g>
      <g id="Group_25017" data-name="Group 25017" transform="translate(35.799)">
        <path id="Path_52861" data-name="Path 52861" d="M192.667,58.021a29,29,0,0,0,22.411-47.415,1.523,1.523,0,0,0-2.352,1.931,25.966,25.966,0,1,1-4.882-4.589,1.523,1.523,0,0,0,1.785-2.467,29.007,29.007,0,1,0-16.961,52.541Z" transform="translate(-163.371 0.269)" fill="#adadad"/>
        <path id="Path_52861_-_Outline" data-name="Path 52861 - Outline" d="M192.686,58.309a29.279,29.279,0,1,1,17.122-53.02,1.793,1.793,0,0,1-2.1,2.9,25.746,25.746,0,1,0,4.827,4.542,1.792,1.792,0,1,1,2.767-2.277,29.264,29.264,0,0,1-22.612,47.852Zm0-58.021A28.774,28.774,0,1,0,214.892,10.8a1.254,1.254,0,1,0-1.937,1.594,26.235,26.235,0,1,1-4.928-4.637A1.246,1.246,0,0,0,208.76,8a1.254,1.254,0,0,0,.736-2.271A28.508,28.508,0,0,0,192.686.287Z" transform="translate(-163.391 0.25)" fill="#adadad"/>
      </g>
      <g id="Group_25018" data-name="Group 25018" transform="translate(45.756 9.938)">
        <path id="Path_52862" data-name="Path 52862" d="M226.7,37.451l-4.378,2.695q-.351-.157-.707-.294l-1.191-5a1.315,1.315,0,0,0-1.279-1.011h-5.085a1.315,1.315,0,0,0-1.279,1.011l-1.191,5q-.356.137-.707.294l-4.378-2.695a1.315,1.315,0,0,0-1.619.19l-3.595,3.6a1.315,1.315,0,0,0-.19,1.619l2.694,4.378q-.157.351-.294.708l-5,1.191a1.315,1.315,0,0,0-1.01,1.279V55.5a1.314,1.314,0,0,0,1.011,1.279l5,1.191q.136.356.294.707l-2.694,4.378a1.315,1.315,0,0,0,.19,1.619l3.595,3.595a1.315,1.315,0,0,0,1.619.19l4.378-2.695q.35.157.707.294l1.191,5a1.315,1.315,0,0,0,1.279,1.011h5.085a1.315,1.315,0,0,0,1.279-1.011l1.191-5q.357-.137.707-.294l4.378,2.695a1.315,1.315,0,0,0,1.619-.19l3.6-3.595a1.315,1.315,0,0,0,.19-1.619l-2.695-4.378q.157-.351.294-.707l5-1.191a1.314,1.314,0,0,0,1.01-1.279V50.411a1.315,1.315,0,0,0-1.01-1.279l-5-1.191q-.137-.357-.294-.708l2.694-4.378a1.314,1.314,0,0,0-.19-1.619l-3.6-3.6a1.314,1.314,0,0,0-1.618-.19Zm.045,10.3a11.35,11.35,0,0,1,.707,1.7,1.315,1.315,0,0,0,.947.876l4.686,1.116v3L228.4,55.567a1.314,1.314,0,0,0-.947.876,11.343,11.343,0,0,1-.707,1.7,1.315,1.315,0,0,0,.049,1.287l2.525,4.1L227.2,65.663l-4.1-2.525a1.314,1.314,0,0,0-1.287-.049,11.349,11.349,0,0,1-1.7.707,1.315,1.315,0,0,0-.875.947l-1.116,4.686h-3l-1.116-4.686a1.314,1.314,0,0,0-.875-.947,11.35,11.35,0,0,1-1.7-.707,1.313,1.313,0,0,0-1.287.049l-4.1,2.525L203.9,63.537l2.525-4.1a1.314,1.314,0,0,0,.049-1.287,11.34,11.34,0,0,1-.707-1.7,1.314,1.314,0,0,0-.947-.876l-4.686-1.116v-3l4.686-1.116a1.315,1.315,0,0,0,.947-.876,11.345,11.345,0,0,1,.707-1.7,1.314,1.314,0,0,0-.05-1.287l-2.525-4.1,2.126-2.127,4.1,2.525a1.315,1.315,0,0,0,1.287.049,11.384,11.384,0,0,1,1.7-.707,1.315,1.315,0,0,0,.876-.947l1.116-4.686h3l1.116,4.686a1.314,1.314,0,0,0,.876.947,11.383,11.383,0,0,1,1.7.707,1.315,1.315,0,0,0,1.287-.049l4.1-2.525,2.127,2.127-2.526,4.1a1.314,1.314,0,0,0-.05,1.287Z" transform="translate(-197.265 -33.609)" fill="#c48e61"/>
        <path id="Path_52862_-_Outline" data-name="Path 52862 - Outline" d="M214.047,33.591h5.085a1.542,1.542,0,0,1,1.5,1.189l1.162,4.881c.165.065.33.134.492.2l4.274-2.63a1.545,1.545,0,0,1,.81-.23h0a1.535,1.535,0,0,1,1.093.453l3.6,3.6a1.542,1.542,0,0,1,.223,1.9l-2.63,4.274c.071.163.139.328.2.492l4.881,1.162a1.542,1.542,0,0,1,1.189,1.5v5.085a1.542,1.542,0,0,1-1.189,1.5l-4.881,1.162c-.065.165-.133.33-.2.492l2.63,4.274a1.542,1.542,0,0,1-.223,1.915l-3.6,3.595a1.546,1.546,0,0,1-1.9.223L222.29,66c-.162.071-.322.139-.492.2l-1.162,4.881a1.542,1.542,0,0,1-1.5,1.189h-5.085a1.542,1.542,0,0,1-1.5-1.189L211.386,66.2c-.165-.065-.33-.134-.492-.2l-4.274,2.63a1.547,1.547,0,0,1-1.9-.223l-3.6-3.587a1.541,1.541,0,0,1-.223-1.9l2.63-4.274c-.072-.163-.139-.328-.2-.492l-4.881-1.162a1.542,1.542,0,0,1-1.189-1.5V50.4a1.542,1.542,0,0,1,1.189-1.5l4.881-1.162q.1-.248.2-.492l-2.63-4.274a1.541,1.541,0,0,1,.223-1.9l3.592-3.6a1.547,1.547,0,0,1,1.9-.223l4.274,2.63c.162-.071.322-.139.492-.2l1.162-4.881a1.542,1.542,0,0,1,1.509-1.193Zm8.278,6.8-.107-.05c-.227-.107-.462-.2-.7-.29L221.409,40l-1.225-5.116a1.079,1.079,0,0,0-1.053-.832h-5.085a1.079,1.079,0,0,0-1.053.832L211.775,40l-.114.044c-.234.09-.468.187-.7.29l-.107.05-4.482-2.758a1.083,1.083,0,0,0-1.333.157l-3.595,3.6a1.079,1.079,0,0,0-.157,1.333l2.758,4.482-.05.107c-.107.23-.2.463-.289.7l-.044.114-5.119,1.219a1.079,1.079,0,0,0-.832,1.053v5.085a1.079,1.079,0,0,0,.832,1.053l5.119,1.219.044.114c.089.232.186.466.289.7l.05.107-2.758,4.482a1.079,1.079,0,0,0,.157,1.333l3.595,3.595a1.083,1.083,0,0,0,1.333.157l4.482-2.758.107.05c.227.1.461.2.7.29l.114.044,1.219,5.118a1.079,1.079,0,0,0,1.053.832h5.085a1.079,1.079,0,0,0,1.053-.832l1.219-5.119.114-.044c.235-.09.47-.188.7-.289l.107-.05,4.482,2.758a1.082,1.082,0,0,0,1.333-.157l3.6-3.587a1.079,1.079,0,0,0,.157-1.333l-2.758-4.482.05-.107c.1-.227.2-.461.289-.7l.044-.114,5.118-1.219a1.079,1.079,0,0,0,.832-1.053V50.4a1.079,1.079,0,0,0-.832-1.053l-5.118-1.219-.044-.114c-.089-.233-.187-.467-.289-.7l-.05-.107,2.758-4.482a1.079,1.079,0,0,0-.157-1.333l-3.6-3.608a1.073,1.073,0,0,0-.766-.322h0a1.081,1.081,0,0,0-.567.161ZM214.9,36.22h3.374l1.159,4.864a1.089,1.089,0,0,0,.721.78,11.618,11.618,0,0,1,1.736.721,1.083,1.083,0,0,0,1.062-.041l4.26-2.622,2.386,2.386-2.622,4.26a1.089,1.089,0,0,0-.042,1.062,11.577,11.577,0,0,1,.726,1.74,1.089,1.089,0,0,0,.78.722l4.864,1.159v3.374l-4.864,1.157a1.089,1.089,0,0,0-.78.722,11.576,11.576,0,0,1-.721,1.736,1.089,1.089,0,0,0,.041,1.062l2.622,4.26-2.386,2.386-4.26-2.622a1.082,1.082,0,0,0-1.062-.041,11.586,11.586,0,0,1-1.736.721,1.089,1.089,0,0,0-.721.78l-1.164,4.86H214.9l-1.159-4.864a1.089,1.089,0,0,0-.721-.78,11.586,11.586,0,0,1-1.736-.721,1.081,1.081,0,0,0-1.062.041l-4.261,2.622-2.386-2.386,2.622-4.26a1.089,1.089,0,0,0,.041-1.062,11.565,11.565,0,0,1-.721-1.736,1.089,1.089,0,0,0-.78-.722l-4.856-1.157V51.246l4.864-1.159a1.089,1.089,0,0,0,.78-.722,11.578,11.578,0,0,1,.721-1.736,1.089,1.089,0,0,0-.041-1.062l-2.621-4.261,2.386-2.386,4.26,2.622a1.082,1.082,0,0,0,1.062.041,11.617,11.617,0,0,1,1.736-.721,1.089,1.089,0,0,0,.722-.78Zm3,.463h-2.641l-1.073,4.506a1.555,1.555,0,0,1-1.031,1.113,11.147,11.147,0,0,0-1.666.692,1.547,1.547,0,0,1-1.517-.059l-3.949-2.43-1.861,1.871,2.43,3.949a1.554,1.554,0,0,1,.059,1.517,11.117,11.117,0,0,0-.692,1.666,1.555,1.555,0,0,1-1.113,1.031l-4.506,1.073v2.641l4.506,1.073a1.555,1.555,0,0,1,1.113,1.031,11.106,11.106,0,0,0,.692,1.666,1.555,1.555,0,0,1-.059,1.517l-2.43,3.95,1.868,1.868,3.949-2.43a1.545,1.545,0,0,1,1.517-.058,11.113,11.113,0,0,0,1.666.692,1.554,1.554,0,0,1,1.03,1.113l1.073,4.505h2.641l1.073-4.506a1.555,1.555,0,0,1,1.03-1.113,11.122,11.122,0,0,0,1.666-.692,1.546,1.546,0,0,1,1.517.058l3.949,2.43,1.868-1.868-2.43-3.949a1.555,1.555,0,0,1-.059-1.517,11.114,11.114,0,0,0,.692-1.666,1.554,1.554,0,0,1,1.113-1.031l4.506-1.073V51.613l-4.506-1.073a1.555,1.555,0,0,1-1.113-1.03,11.121,11.121,0,0,0-.692-1.666,1.554,1.554,0,0,1,.059-1.517l2.43-3.949-1.868-1.868-3.949,2.43a1.547,1.547,0,0,1-1.517.059,11.157,11.157,0,0,0-1.666-.692,1.554,1.554,0,0,1-1.03-1.113Z" transform="translate(-197.247 -33.591)" fill="#c48e61"/>
      </g>
      <g id="Group_25019" data-name="Group 25019" transform="translate(57.416 21.592)">
        <path id="Path_52863" data-name="Path 52863" d="M277.425,106.355a7.414,7.414,0,1,0,7.414,7.414,7.414,7.414,0,0,0-7.414-7.414Zm0,11.781a4.367,4.367,0,1,1,4.367-4.367,4.367,4.367,0,0,1-4.367,4.367Z" transform="translate(-269.744 -106.081)" fill="#c48e61"/>
        <path id="Path_52863_-_Outline" data-name="Path 52863 - Outline" d="M277.444,106.1A7.629,7.629,0,1,1,272,108.334a7.682,7.682,0,0,1,5.447-2.234Zm0,14.826a7.107,7.107,0,1,0,0,.005Zm0-11.781a4.633,4.633,0,1,0,0,.005Zm0,8.734a1.7,1.7,0,1,0,0,.006Z" transform="translate(-269.762 -106.1)" fill="#c48e61"/>
      </g>
    </g>
  </g>
</svg>
