<svg xmlns="http://www.w3.org/2000/svg" width="57" height="56.989" viewBox="0 0 57 56.989">
  <g id="security-Icon" transform="translate(0.001 -0.012)">
    <path id="Path_48973" data-name="Path 48973" d="M86.478,191.45a.67.67,0,0,0-.5.8,27.64,27.64,0,0,1,.737,6.321,27.194,27.194,0,0,1-27.161,27.161,26.843,26.843,0,0,1-16.373-5.5,4.494,4.494,0,1,0-.906.991,28.166,28.166,0,0,0,17.279,5.847,28.532,28.532,0,0,0,27.731-35.12.669.669,0,0,0-.8-.5Z" transform="translate(-31.057 -170.069)" fill="#fff"/>
    <path id="Path_48974" data-name="Path 48974" d="M1.339,28.5A27.163,27.163,0,0,1,42.726,5.366a4,4,0,1,0,.763-1.1A28.509,28.509,0,0,0,.473,33.692a.665.665,0,0,0,.656.549.555.555,0,0,0,.121-.013.67.67,0,0,0,.54-.777A27.18,27.18,0,0,1,1.339,28.5Z" transform="translate(0 -0.001)" fill="#fff"/>
    <path id="Path_48975" data-name="Path 48975" d="M219.4,183.388v.4h8.035v-.4a4.018,4.018,0,1,0-8.035,0" transform="translate(-194.917 -159.307)" fill="#fff"/>
    <path id="Path_48976" data-name="Path 48976" d="M108.775,75.294c-7.535.076-14.784-4.58-17.556-6.588a2,2,0,0,0-2.339,0c-2.772,2.009-10.039,6.646-17.556,6.588a2.024,2.024,0,0,0-2.044,2v.014c0,10.307,2.067,25.05,19.863,34.058a2,2,0,0,0,1.812,0c17.8-9.008,19.859-23.751,19.863-34.058a2.033,2.033,0,0,0-2.043-2.014ZM97.415,95.676a3.348,3.348,0,0,1-3.348,3.348H86.032a3.348,3.348,0,0,1-3.348-3.348V88.534a3.348,3.348,0,0,1,2.009-3.067v-.692c.08-7.164,10.632-7.164,10.713,0v.692a3.348,3.348,0,0,1,2.009,3.067Z" transform="translate(-61.549 -60.703)" fill="#fff"/>
    <path id="Path_48977" data-name="Path 48977" d="M242.776,253.8a.432.432,0,0,1,.089-.341,1.441,1.441,0,1,0-2.37,0,.427.427,0,0,1,.089.338c-.1.523-.4,2.017-.611,3.054a.893.893,0,0,0,.876,1.065h1.66a.893.893,0,0,0,.876-1.068Z" transform="translate(-213.179 -223.164)" fill="#fff"/>
  </g>
</svg>
