<svg xmlns="http://www.w3.org/2000/svg" width="257.363" height="55.218" viewBox="0 0 257.363 55.218">
  <g id="soon" transform="translate(14141.682 612.198)">
    <path id="Path_127058" data-name="Path 127058" d="M0,0H257.364L243.381,28.3l13.982,26.919H0L15.815,28.3Z" transform="translate(-14141.682 -612.198)" fill="#007066"/>
    <path id="Path_127059" data-name="Path 127059" d="M-24.913-18.75a.221.221,0,0,1-.25-.25v-.425a.221.221,0,0,1,.25-.25h6.35a.221.221,0,0,1,.25.25V-19a.221.221,0,0,1-.25.25Zm0-1.625a.221.221,0,0,1-.25-.25v-.425a.221.221,0,0,1,.25-.25h6.35a.221.221,0,0,1,.25.25v.425a.221.221,0,0,1-.25.25Zm4.75,3.625a.22.22,0,0,1,.248-.25h2.3a.22.22,0,0,1,.248.25V-3.823a1.453,1.453,0,0,0,.287,1.036,1.25,1.25,0,0,0,.913.287h.875a.936.936,0,0,1,.75.29,1.54,1.54,0,0,1,.25,1,1.415,1.415,0,0,1-.237,1A1.119,1.119,0,0,1-15.288,0h-1.975a2.837,2.837,0,0,1-2.231-.763,3.559,3.559,0,0,1-.669-2.388Zm7.675,21.5a.222.222,0,0,1-.25-.252V2.327a.222.222,0,0,1,.25-.252h2.4a.222.222,0,0,1,.25.252V4.5a.222.222,0,0,1-.25.252Zm2.575-8.795A1.319,1.319,0,0,0-9.35-2.9a2.567,2.567,0,0,0,1.513.4h.425a.958.958,0,0,1,.75.278,1.389,1.389,0,0,1,.25.934A1.6,1.6,0,0,1-6.65-.278.952.952,0,0,1-7.412,0a5.423,5.423,0,0,1-1.7-.24,2.007,2.007,0,0,1-1.147-1.048,1.928,1.928,0,0,1-1.028,1.01A5.1,5.1,0,0,1-13.162,0h-1.975a1.381,1.381,0,0,1-.75-.164q-.25-.164-.25-.72A2.555,2.555,0,0,1-15.9-2.008a.812.812,0,0,1,.787-.492h1.2a1.528,1.528,0,0,0,.675-.125.743.743,0,0,0,.362-.4,2.273,2.273,0,0,0,.138-.723q.025-.448.025-1.1v-5.283a.22.22,0,0,1,.248-.249h2.3a.22.22,0,0,1,.248.249ZM-7.512,0a1.045,1.045,0,0,1-.75-.24,1.28,1.28,0,0,1-.25-.922A1.715,1.715,0,0,1-8.275-2.2a.909.909,0,0,1,.762-.3h1.625a1.251,1.251,0,0,0,.913-.287,1.449,1.449,0,0,0,.287-1.034v-6.305a.22.22,0,0,1,.248-.249h2.3a.22.22,0,0,1,.248.25V-3.15A3.559,3.559,0,0,1-2.556-.763,2.837,2.837,0,0,1-4.787,0Zm4.2,4.8a.222.222,0,0,1-.25-.252V2.377a.222.222,0,0,1,.25-.252h2.1a.222.222,0,0,1,.25.252v2.17a.222.222,0,0,1-.25.252Zm-3.25,0a.222.222,0,0,1-.25-.252V2.377a.222.222,0,0,1,.25-.252h2.1a.222.222,0,0,1,.25.252v2.17a.222.222,0,0,1-.25.252ZM2.713-10.125a.22.22,0,0,1,.248-.25h2.3a.22.22,0,0,1,.248.249v6.081A1.319,1.319,0,0,0,6.075-2.9a2.567,2.567,0,0,0,1.512.4h.425a.958.958,0,0,1,.75.278,1.389,1.389,0,0,1,.25.934,1.6,1.6,0,0,1-.238,1.01A.952.952,0,0,1,8.013,0,6.156,6.156,0,0,1,6.55-.152,1.889,1.889,0,0,1,5.513-.833v.476a11.108,11.108,0,0,1-.223,2.366A4.321,4.321,0,0,1,4.558,3.7,3.083,3.083,0,0,1,3.206,4.712a5.661,5.661,0,0,1-2.094.338H.188a.221.221,0,0,1-.25-.25v-2a.221.221,0,0,1,.25-.25h.55A2.124,2.124,0,0,0,1.863,2.3a1.453,1.453,0,0,0,.588-.738A3.874,3.874,0,0,0,2.675.388Q2.713-.3,2.713-1.2Zm13.15-2.75a.222.222,0,0,1-.25-.252V-15.3a.222.222,0,0,1,.25-.252h2.1a.222.222,0,0,1,.25.252v2.17a.222.222,0,0,1-.25.252Zm-3.25,0a.222.222,0,0,1-.25-.252V-15.3a.222.222,0,0,1,.25-.252h2.1a.222.222,0,0,1,.25.252v2.17a.222.222,0,0,1-.25.252ZM8.288,0a1.012,1.012,0,0,1-.762-.25,1.555,1.555,0,0,1-.238-1.025,1.365,1.365,0,0,1,.25-.925.963.963,0,0,1,.75-.275h2.375a5.864,5.864,0,0,1-.575-2.775,7.257,7.257,0,0,1,.413-2.6,4.436,4.436,0,0,1,1.128-1.725,4.427,4.427,0,0,1,1.654-.95,6.43,6.43,0,0,1,1.967-.3,6.805,6.805,0,0,1,2.055.3,4.19,4.19,0,0,1,1.641.95A4.358,4.358,0,0,1,20.024-7.85a7.682,7.682,0,0,1,.388,2.6,7.08,7.08,0,0,1-.376,2.475A4.159,4.159,0,0,1,18.984-1.15a3.878,3.878,0,0,1-1.629.888A7.913,7.913,0,0,1,15.249,0Zm6.95-8.325a2.093,2.093,0,0,0-1.75.762,3.38,3.38,0,0,0-.6,2.137,3.565,3.565,0,0,0,.575,2.313,2.227,2.227,0,0,0,1.775.663,2.309,2.309,0,0,0,1.8-.638A3.311,3.311,0,0,0,17.613-5.3Q17.613-8.325,15.238-8.325Z" transform="translate(-14011 -576.465)" fill="#fff" stroke="rgba(0,0,0,0)" stroke-width="1"/>
  </g>
</svg>
