<svg xmlns="http://www.w3.org/2000/svg" width="24.499" height="19.06" viewBox="0 0 24.499 19.06">
  <path id="changeLang-Icon" d="M0,9.273V8.511A1.146,1.146,0,0,1,1.148,7.367H18.375V5.08a1.15,1.15,0,0,1,1.96-.809l3.828,3.812a1.14,1.14,0,0,1,0,1.617l-3.828,3.812a1.15,1.15,0,0,1-1.96-.809V10.417H1.148A1.146,1.146,0,0,1,0,9.273Zm23.351,7.242H6.125V14.228a1.15,1.15,0,0,0-1.96-.809L.336,17.232a1.14,1.14,0,0,0,0,1.617L4.164,22.66a1.15,1.15,0,0,0,1.96-.809V19.565H23.351A1.146,1.146,0,0,0,24.5,18.421v-.762A1.146,1.146,0,0,0,23.351,16.516Z" transform="translate(0 -3.936)" fill="#fff"/>
</svg>
