<svg xmlns="http://www.w3.org/2000/svg" width="73.078" height="70.903" viewBox="0 0 73.078 70.903">
  <g id="serv-icon3" transform="translate(1.271 1.25)">
    <path id="Path_48945" data-name="Path 48945" d="M279.677,191.418l4.949-13.271a3.479,3.479,0,0,1,3.807-2.387,3.31,3.31,0,0,1,2.808,3.786l-4.54,18.249a23.56,23.56,0,0,1-8.246,12.215l-7.843,5.612v3.309a1.434,1.434,0,0,1-1.434,1.434H256.024v-8.319a16.667,16.667,0,0,1,8.144-14.945l10.761-6.907a3.289,3.289,0,0,1,4.161,5.034l-7.247,5.715" transform="translate(-220.733 -151.961)" fill="none" stroke="#007066" stroke-linecap="round" stroke-linejoin="round" stroke-width="2.5"/>
    <path id="Path_48946" data-name="Path 48946" d="M29.426,200.943l-7.247-5.715a3.289,3.289,0,0,1,4.161-5.034L37.1,197.1a16.667,16.667,0,0,1,8.144,14.945v8.319H32.092a1.434,1.434,0,0,1-1.434-1.434v-3.309l-7.843-5.612a23.559,23.559,0,0,1-8.246-12.215l-4.54-18.249a3.31,3.31,0,0,1,2.808-3.786,3.479,3.479,0,0,1,3.807,2.387l4.949,13.271" transform="translate(-10 -151.961)" fill="none" stroke="#007066" stroke-linecap="round" stroke-linejoin="round" stroke-width="2.5"/>
    <path id="Path_48947" data-name="Path 48947" d="M191.112,180.684H189.3a1.434,1.434,0,0,1-1.434-1.434v-7.687a5.632,5.632,0,0,1,5.632-5.632h8.273a5.632,5.632,0,0,1,5.632,5.632v7.687a1.434,1.434,0,0,1-1.434,1.434h-1.791" transform="translate(-162.363 -143.576)" fill="none" stroke="#cca079" stroke-linecap="round" stroke-linejoin="round" stroke-width="2.5"/>
    <circle id="Ellipse_297" data-name="Ellipse 297" cx="6.648" cy="6.648" r="6.648" transform="translate(28.62 9.06)" fill="none" stroke="#cca079" stroke-linecap="round" stroke-linejoin="round" stroke-width="2.5"/>
    <path id="Path_48948" data-name="Path 48948" d="M303.737,102.74h8.6a5.632,5.632,0,0,1,5.632,5.632v7.592a1.528,1.528,0,0,1-1.528,1.528h-9.785" transform="translate(-261.625 -89.444)" fill="none" stroke="#cca079" stroke-linecap="round" stroke-linejoin="round" stroke-width="2.5"/>
    <circle id="Ellipse_298" data-name="Ellipse 298" cx="6.648" cy="6.648" r="6.648" transform="translate(39.925)" fill="none" stroke="#cca079" stroke-linecap="round" stroke-linejoin="round" stroke-width="2.5"/>
    <path id="Path_48949" data-name="Path 48949" d="M120.326,117.492h-9.785a1.528,1.528,0,0,1-1.528-1.528v-7.592a5.632,5.632,0,0,1,5.632-5.632h8.793" transform="translate(-94.818 -89.444)" fill="none" stroke="#cca079" stroke-linecap="round" stroke-linejoin="round" stroke-width="2.5"/>
    <circle id="Ellipse_299" data-name="Ellipse 299" cx="6.648" cy="6.648" r="6.648" transform="translate(17.316)" fill="none" stroke="#cca079" stroke-linecap="round" stroke-linejoin="round" stroke-width="2.5"/>
    <line id="Line_1" data-name="Line 1" transform="translate(35.268 37.108)" fill="none" stroke="#bbb" stroke-linecap="round" stroke-linejoin="round" stroke-width="2.5"/>
  </g>
</svg>
