<svg xmlns="http://www.w3.org/2000/svg" width="59.035" height="73.044" viewBox="0 0 59.035 73.044">
  <g id="serv-icon4" transform="translate(1.5 1.5)">
    <path id="Path_48950" data-name="Path 48950" d="M427.522,26.926V39.067a5.854,5.854,0,0,0,5.837,5.837H445.5" transform="translate(-390.165 -26.226)" fill="none" stroke="#cca079" stroke-linecap="round" stroke-linejoin="round" stroke-width="3"/>
    <path id="Path_48951" data-name="Path 48951" d="M122.124,20.5H90.6a5.854,5.854,0,0,0-5.837,5.837v58.37A5.854,5.854,0,0,0,90.6,90.544h44.361a5.854,5.854,0,0,0,5.837-5.837V39.178Z" transform="translate(-84.767 -20.5)" fill="none" stroke="#cca079" stroke-linecap="round" stroke-linejoin="round" stroke-width="3"/>
    <rect id="Rectangle_2957" data-name="Rectangle 2957" width="9.339" height="9.339" transform="translate(9.339 32.687)" fill="none" stroke="#007066" stroke-linecap="round" stroke-linejoin="round" stroke-width="3"/>
    <rect id="Rectangle_2958" data-name="Rectangle 2958" width="9.339" height="9.339" transform="translate(9.339 51.366)" fill="none" stroke="#007066" stroke-linecap="round" stroke-linejoin="round" stroke-width="3"/>
    <line id="Line_2" data-name="Line 2" x2="9.339" transform="translate(28.018 32.687)" fill="none" stroke="#bbb" stroke-linecap="round" stroke-linejoin="round" stroke-width="3"/>
    <line id="Line_3" data-name="Line 3" x1="18.678" transform="translate(28.018 42.026)" fill="none" stroke="#bbb" stroke-linecap="round" stroke-linejoin="round" stroke-width="3"/>
    <line id="Line_4" data-name="Line 4" x2="9.339" transform="translate(28.018 51.366)" fill="none" stroke="#cca079" stroke-linecap="round" stroke-linejoin="round" stroke-width="3"/>
    <line id="Line_5" data-name="Line 5" x1="18.678" transform="translate(28.018 60.705)" fill="none" stroke="#cca079" stroke-linecap="round" stroke-linejoin="round" stroke-width="3"/>
    <line id="Line_6" data-name="Line 6" x2="11.674" transform="translate(9.339 11.674)" fill="none" stroke="#bbb" stroke-linecap="round" stroke-linejoin="round" stroke-width="3"/>
    <line id="Line_7" data-name="Line 7" x1="18.678" transform="translate(9.339 21.013)" fill="none" stroke="#bbb" stroke-linecap="round" stroke-linejoin="round" stroke-width="3"/>
  </g>
</svg>
