<svg xmlns="http://www.w3.org/2000/svg" width="21.383" height="23.759" viewBox="0 0 21.383 23.759">
  <path id="date-Icon" d="M11.628,13.691H9.252v2.376h2.376Zm4.752,0H14v2.376h2.376Zm4.752,0H18.755v2.376h2.376Zm2.376-8.316H22.319V3H19.943V5.376h-9.5V3H8.064V5.376H6.876A2.365,2.365,0,0,0,4.512,7.752L4.5,24.383a2.375,2.375,0,0,0,2.376,2.376H23.507a2.383,2.383,0,0,0,2.376-2.376V7.752A2.383,2.383,0,0,0,23.507,5.376Zm0,19.007H6.876V11.316H23.507Z" transform="translate(-4.5 -3)" fill="#474747"/>
</svg>
