<svg xmlns="http://www.w3.org/2000/svg" width="90.755" height="90.755" viewBox="0 0 90.755 90.755">
  <g id="Icon1" transform="translate(0 0.001)">
    <circle id="Ellipse_219" data-name="Ellipse 219" cx="32.193" cy="32.193" r="32.193" transform="translate(26.369 19.853)" fill="#bbb" opacity="0.3"/>
    <path id="Subtraction_2" data-name="Subtraction 2" d="M71.794,0H19.047a7.331,7.331,0,0,0-7.325,7.319V70.261H1.465A1.466,1.466,0,0,0,0,71.725V83.435a7.331,7.331,0,0,0,7.325,7.319H63A10.263,10.263,0,0,0,73.26,80.509V49.431l-3.087-1.272c-.034,12.774.016,23.053.157,32.347A7.331,7.331,0,0,1,63,87.826H13.148a7.224,7.224,0,0,0,1.5-4.391V7.319a4.4,4.4,0,1,1,8.791,0v2.927a1.467,1.467,0,0,0,1.466,1.465H70.329c0,2.762-.009,6.074-.031,10.42l2.961-.971V11.711h4.395a1.467,1.467,0,0,0,1.466-1.465V7.319A7.332,7.332,0,0,0,71.794,0ZM26.373,8.783V7.319a7.24,7.24,0,0,0-1.468-4.391H71.794a4.4,4.4,0,0,1,4.4,4.391V8.783ZM7.325,87.827a4.4,4.4,0,0,1-4.4-4.391V73.188h8.792V83.434a4.4,4.4,0,0,1-4.4,4.393Z" transform="translate(90.755 90.754) rotate(180)" fill="#005f54"/>
    <g id="Ellipse_216" data-name="Ellipse 216" transform="translate(0 39.602)" fill="none" stroke="#005f54" stroke-width="2.5">
      <circle cx="15.882" cy="15.882" r="15.882" stroke="none"/>
      <circle cx="15.882" cy="15.882" r="14.632" fill="none"/>
    </g>
    <path id="Path_54706" data-name="Path 54706" d="M7858.44,6088.3l3.068,5.4,11.663-9.331" transform="translate(-7849.927 -6033.551)" fill="none" stroke="#c48e61" stroke-linecap="round" stroke-linejoin="round" stroke-width="2.5"/>
    <g id="Group_25018" data-name="Group 25018" transform="translate(26.286 55.086)">
      <path id="Path_54703" data-name="Path 54703" d="M23.518,35A10.518,10.518,0,1,1,13,45.518,10.518,10.518,0,0,1,23.518,35Zm0,18.7a8.18,8.18,0,1,0-8.18-8.18A8.18,8.18,0,0,0,23.518,53.7Z" transform="translate(11.274 -35)" fill="#c48e61"/>
      <path id="Path_54704" data-name="Path 54704" d="M22.843,39A5.843,5.843,0,1,1,17,44.843,5.843,5.843,0,0,1,22.843,39Zm0,9.35a3.507,3.507,0,1,0-3.507-3.507A3.507,3.507,0,0,0,22.843,48.35Z" transform="translate(11.949 -34.326)" fill="#c48e61"/>
      <path id="Path_54705" data-name="Path 54705" d="M41.791,49.466a1.466,1.466,0,0,0-2.684-.813l-.492.739A6.735,6.735,0,0,1,33,52.4v2.93a9.662,9.662,0,0,0,6.758-2.748,5.863,5.863,0,0,0,4.964,2.748h5.862V52.4H44.721a2.934,2.934,0,0,1-2.93-2.93Z" transform="translate(-33 -34.29)" fill="#c48e61"/>
    </g>
    <line id="Line_269" data-name="Line 269" x2="24.958" transform="translate(44.81 10.777)" fill="none" stroke="#005f54" stroke-linecap="round" stroke-width="2.5"/>
    <line id="Line_270" data-name="Line 270" x2="44.243" transform="translate(25.525 19.853)" fill="none" stroke="#005f54" stroke-linecap="round" stroke-width="2.5"/>
    <line id="Line_272" data-name="Line 272" x2="44.243" transform="translate(25.525 27.794)" fill="none" stroke="#005f54" stroke-linecap="round" stroke-width="2.5"/>
    <line id="Line_273" data-name="Line 273" x2="44.243" transform="translate(25.525 36.869)" fill="none" stroke="#005f54" stroke-linecap="round" stroke-width="2.5"/>
    <line id="Line_274" data-name="Line 274" x2="15.882" transform="translate(53.886 44.81)" fill="none" stroke="#005f54" stroke-linecap="round" stroke-width="2.5"/>
  </g>
</svg>
