<svg xmlns="http://www.w3.org/2000/svg" width="90.255" height="93.147" viewBox="0 0 90.255 93.147">
  <g id="Icon4" transform="translate(1.498 1.5)">
    <ellipse id="Ellipse_188" data-name="Ellipse 188" cx="34.38" cy="32.365" rx="34.38" ry="32.365" transform="translate(9.415 26.917)" fill="#bbb" opacity="0.3"/>
    <path id="Path_51124" data-name="Path 51124" d="M229.733,170.618s7.7-.12,8.382-3.5-.413-7.142,2.387-9.7,5.115-2.781,7.867-1.879A6.353,6.353,0,0,1,252.7,162.5l-.9,3.793,3.309,3.354,8.194.555,6.089,2.932-2.706-7.291-4.361-5.865,2.7-4.359s1.5-2.256,5.186-1.43,5.2.468,5.2.468" transform="translate(-227.058 -107.081)" fill="none" stroke="#c48e61" stroke-linecap="round" stroke-linejoin="round" stroke-width="3"/>
    <path id="Path_51125" data-name="Path 51125" d="M241.284,173.411s3.281-.619,3.839-3.219,2.415-4.29,4.334-3.445,4.086,1.836,4.086,1.836a8.834,8.834,0,0,1,1.8,2.937c.681,1.83,1.8,4.611,1.8,4.611" transform="translate(-216.157 -95.306)" fill="none" stroke="#c48e61" stroke-linecap="round" stroke-linejoin="round" stroke-width="3"/>
    <path id="Path_51126" data-name="Path 51126" d="M254.819,179.141s.92-4.643,3.886-4.891,4.516-3.591,3.649-5.51-2.974-5.882-2.974-5.882" transform="translate(-203.881 -98.318)" fill="none" stroke="#c48e61" stroke-linecap="round" stroke-linejoin="round" stroke-width="3"/>
    <circle id="Ellipse_167" data-name="Ellipse 167" cx="5.742" cy="5.742" r="5.742" transform="translate(58.746 16.913) rotate(-22.5)" fill="none" stroke="#c48e61" stroke-linecap="round" stroke-linejoin="round" stroke-width="3"/>
    <path id="Path_51127" data-name="Path 51127" d="M277.281,148.366c-1.643,2.043-3.6,4.265-5.8,6.943-5.518,6.7-8.513,15.948-8.513,15.948" transform="translate(-195.745 -112.222)" fill="none" stroke="#adadad" stroke-linecap="round" stroke-linejoin="round" stroke-width="3"/>
    <path id="Path_51128" data-name="Path 51128" d="M272,186.549s-3-9.249-8.515-15.948c-7.06-8.573-11.521-12.457-11.521-20.826a20.036,20.036,0,1,1,40.072,0,19.313,19.313,0,0,1-.361,3.837" transform="translate(-204.779 -129.739)" fill="none" stroke="#adadad" stroke-linecap="round" stroke-linejoin="round" stroke-width="3"/>
    <path id="Path_51129" data-name="Path 51129" d="M308.23,174.656a39.982,39.982,0,1,1-39.982-40.083" transform="translate(-228.264 -125.77)" fill="none" stroke="#005f54" stroke-linecap="round" stroke-linejoin="round" stroke-width="3"/>
  </g>
</svg>
