<svg xmlns="http://www.w3.org/2000/svg" width="88.034" height="83.582" viewBox="0 0 88.034 83.582">
  <g id="Icon5" transform="translate(-1157.436 -2729.921)">
    <path id="Union_13" data-name="Union 13" d="M-17906.18,1800.88c-3.3-.072-3.643-1.263-4.629-1.714-3.148-1.832-4.635-6.191-4.635-11.63,0-7.27,4.873-12.013,10.822-12.013s10.785,6.584,10.785,13.159c0,5.036-1.7,8.34-3.891,9.791a14.81,14.81,0,0,1-8.127,2.4C-17905.967,1800.88-17906.074,1800.88-17906.18,1800.88Zm39.066-1.084c-3.162-.061-3.5-1.151-4.449-1.567-3.025-1.676-4.449-5.661-4.449-10.633,0-6.65,4.678-10.987,10.4-10.987s10.359,6.021,10.359,12.041c0,4.6-1.633,7.621-3.734,8.949a14.755,14.755,0,0,1-7.807,2.2c-.078,0-.184,0-.291,0Zm-10.4-22.091c-7.754-.142-8.57-2.495-10.895-3.4-7.408-3.626-10.9-12.274-10.9-23.055,0-14.413,11.455-23.809,25.459-23.809s25.361,13.045,25.361,26.095c0,9.978-4,16.528-9.15,19.406a39.7,39.7,0,0,1-19.133,4.768c-.256,0-.49,0-.7-.007Z" transform="translate(19086.705 1002.484)" fill="#bbb" opacity="0.3"/>
    <g id="Group_24974" data-name="Group 24974" transform="translate(1215.118 2744.024)">
      <g id="Business_Man" data-name="Business Man">
        <path id="Path_53619" data-name="Path 53619" d="M50.36,31.5c-1.68-2.13-8.538-4.355-10.5-4.959-.061-.774-.086-1.2-.313-2.677a8.188,8.188,0,0,0,2.291-4.127,3.606,3.606,0,0,0,1.242-4.47,10.729,10.729,0,0,0,.249-3.45,6.452,6.452,0,0,0-.794-3.275A6.451,6.451,0,0,0,39.27,5.314a11.027,11.027,0,0,0-8.35,0,8.409,8.409,0,0,0-4.38,5.568,8.877,8.877,0,0,0,0,4.708,3.713,3.713,0,0,0,1.552,4.225,8.85,8.85,0,0,0,2.165,4.037c-.228,1.481-.256,1.951-.314,2.683-.992.294-4.269,1.159-4.529,1.328s.743,1.16,1.126,1.013,2.019-.5,3.2-.866c2.306.269,5.126,2.359,5.126,2.359S37.97,28.131,39.99,28c2.847.908,8.114,2.823,9.309,4.338,1.068,1.354,1.609,6.734,1.727,8.693a.676.676,0,1,0,1.349-.081c-.046-.764-.493-7.521-2.014-9.45ZM38.516,26.7c-.113.067-3.551,2.092-3.651,2.178-.1-.086-3.469-2.07-3.582-2.137a16.85,16.85,0,0,1,.2-1.831,5.529,5.529,0,0,0,3.07.878,7.849,7.849,0,0,0,3.757-1c.1.748.107.586.21,1.916ZM27.84,11.247a6.991,6.991,0,0,1,3.651-4.706,9.854,9.854,0,0,1,7.246.021,6.418,6.418,0,0,1,2.581,2.685,9.537,9.537,0,0,1,.663,2.7,9.37,9.37,0,0,1-.143,2.717c-.623-.952-1.957-2.2-1.98-3.339a.9.9,0,0,0-1.162-.842,11.29,11.29,0,0,1-3.74.842,10.318,10.318,0,0,1-3.828-.564.9.9,0,0,0-1.153.828C29.933,12.717,28.383,13.7,27.7,14.6a7.468,7.468,0,0,1,.141-3.354Zm1.516,8.012a.677.677,0,0,0-.346-.467A2.362,2.362,0,0,1,27.752,16.4a8.628,8.628,0,0,0,3.166-3.02,7.912,7.912,0,0,0,.366-1.179,11.086,11.086,0,0,0,3.687.474,11.913,11.913,0,0,0,3.569-.748c.211,2.183,2.613,4.67,3.526,4.647a2.476,2.476,0,0,1-1.208,2.2.675.675,0,0,0-.3.457,6.42,6.42,0,0,1-3.153,4.515c-.108.056-2.66,1.36-4.849.232a7.115,7.115,0,0,1-3.2-4.719Z" transform="translate(-25.372 -4.493)" fill="#005f54" stroke="#005f54" stroke-width="0.8"/>
      </g>
    </g>
    <g id="Group_24975" data-name="Group 24975" transform="translate(1160.347 2743.874)">
      <path id="Subtraction_3" data-name="Subtraction 3" d="M-19076.4-978.674h-.027a.651.651,0,0,1-.455-.211.666.666,0,0,1-.17-.469c0-.076.283-7.7,1.947-9.757,1.412-1.746,6.775-3.377,9.016-4a1.413,1.413,0,0,0-.246-.021,3.462,3.462,0,0,0-.564.064,3.944,3.944,0,0,1-.613.06,2.6,2.6,0,0,1-2.053-1.2,7.827,7.827,0,0,0-1.244-1.122l0-.005c-1.2-.927-2.322-1.8-1.889-5.159.449-3.5,3.691-13.361,10.16-14.138a6.138,6.138,0,0,1,1.027-.086,6.282,6.282,0,0,1,2.795.661,5.358,5.358,0,0,1,3.539,1.714c.971.863,2.086,2.374,3.68,7.541.158.51.342.99.518,1.455.592,1.552,1.1,2.892.473,4.554a9.855,9.855,0,0,1-3.8,4.711,3.024,3.024,0,0,1-1.623.61,2.6,2.6,0,0,1-1.512-.629l-.137.3c.084.232.164.439.244.632,2.291.541,4.1.968,5.607,2.834a.128.128,0,0,1,.053.163,1.472,1.472,0,0,1-.961.7.139.139,0,0,1-.111-.04,2.452,2.452,0,0,1-.373-.626c-.2-.454-.285-.642-2.654-1.285l2.174,2.571c.1.167.016.3-.082.458-.023.035-.045.068-.07.112s-.094.185-.186.375l-.023.047-.08.166c-.1.2-.207.432-.322.656a9.157,9.157,0,0,0-1.213-.081h-.279c.164-.31.287-.459.379-.459l.854.5-2.342-3.8-1.164,4.116a8.718,8.718,0,0,0-1.889.811h-3.252l.713,2.252a7.756,7.756,0,0,0-1.338,2.893l-3.416-5.016-2.232.11h-.027a.653.653,0,0,1-.57-.321.663.663,0,0,1,0-.675l2.9-4.706c-3.594,1.1-6.154,2.268-6.846,3.122-1.119,1.386-1.576,6.957-1.658,8.987a.649.649,0,0,1-.645.631Zm9.381-8.47h.033a.642.642,0,0,1,.537.287l2.646,3.883-2.23-7.9-2.346,3.8Zm2.193-5.2a.747.747,0,0,1-.191.249l1.369,4.836h4.289L-19058-992a.639.639,0,0,1-.375-.345h-.018a12.009,12.009,0,0,1-.617-1.666,3.824,3.824,0,0,1-2.43,1.116,4.41,4.41,0,0,1-2.707-1.245,11.092,11.092,0,0,1-.652,1.8Zm1.494-14.382a6.78,6.78,0,0,1-4.113,4,2.722,2.722,0,0,0,1.084,2.04.618.618,0,0,1,.285.445,7.89,7.89,0,0,0,2.8,5.132,2.994,2.994,0,0,0,1.8.9c.613,0,1.148-.381,1.982-1.13a9.976,9.976,0,0,0,2.766-4.936.631.631,0,0,1,.234-.421l.068-.057a3.521,3.521,0,0,0,1.125-2.391.476.476,0,0,0-.082-.343,4.586,4.586,0,0,0-1.689-.426,10.556,10.556,0,0,1-6.234-2.807Zm-3.041,12.265a2.8,2.8,0,0,1,.895.158c.082-.269.154-.56.227-.914a9.593,9.593,0,0,1-2.066-4.553,4.227,4.227,0,0,1-1.434-3.493.7.7,0,0,1,.488-.587,5.432,5.432,0,0,0,3.943-4.137.733.733,0,0,1,.518-.546.744.744,0,0,1,.186-.024.717.717,0,0,1,.531.234,9.369,9.369,0,0,0,6.205,3.117,4.738,4.738,0,0,1,2.342.718,1.756,1.756,0,0,1,.537,1.406,4.714,4.714,0,0,1-1.479,3.252,11.9,11.9,0,0,1-2.117,4.366c.043,0,.086,0,.127,0a1.221,1.221,0,0,1,.846.336l.053.044a.913.913,0,0,0,.6.29,1.792,1.792,0,0,0,.926-.382,8.524,8.524,0,0,0,3.3-4.084c.455-1.2.047-2.268-.467-3.615-.176-.457-.375-.975-.551-1.541-1.711-5.547-2.781-6.493-3.295-6.947-1.42-1.263-2.055-1.369-2.93-1.393-.2-.073-.385-.145-.547-.208l-.057-.022a4.327,4.327,0,0,0-1.828-.415,8.365,8.365,0,0,0-.977.067c-5.309.641-8.559,9.445-9.02,13.008-.342,2.638.336,3.15,1.359,3.925a8.389,8.389,0,0,1,1.484,1.352c.539.647.852.737,1.109.737a2.006,2.006,0,0,0,.422-.061l.053-.011a3.031,3.031,0,0,1,.584-.071Z" transform="translate(19077.053 1014.718)" fill="#005f54" stroke="#005f54" stroke-linejoin="round" stroke-width="0.8"/>
    </g>
    <g id="Group_24976" data-name="Group 24976" transform="translate(1183.179 2737.644)">
      <g id="Business_Man-2" data-name="Business Man">
        <path id="Subtraction_2" data-name="Subtraction 2" d="M-19049.6-974.519h0a4.662,4.662,0,0,0-1.812-.715,5.932,5.932,0,0,0-.842-2c-1.629-2.062-9.453-4.633-11-5.128l.613,5.349a.8.8,0,0,1-.389.776.808.808,0,0,1-.41.113.788.788,0,0,1-.457-.147l-1.779-1.26-.014-.01c-1.164-.823-1.477-1.044-2.625-1.865l-.35-.249h-1.291l-1.945,1.385-2.818,2a.793.793,0,0,1-.461.147.79.79,0,0,1-.406-.113.8.8,0,0,1-.393-.776l.609-5.334c-1.516.469-9.17,2.907-10.789,4.9a6.567,6.567,0,0,0-.941,2.2,9.7,9.7,0,0,0-1-.052c-.211,0-.424.007-.635.021a9,9,0,0,1,1.342-3.179c1.979-2.444,9.893-4.936,12.271-5.641l.012-.161v-.024c.059-.761.105-1.362.355-2.984a10.552,10.552,0,0,1-2.561-4.773,4.411,4.411,0,0,1-1.836-4.994,10.486,10.486,0,0,1-.006-5.569,9.932,9.932,0,0,1,5.186-6.58,12.96,12.96,0,0,1,4.932-.97,12.945,12.945,0,0,1,4.934.97c1.078.456,2.67,1.408,4.045,4.4a13.2,13.2,0,0,1,.758,3.288,12.785,12.785,0,0,1-.3,4.078,4.258,4.258,0,0,1-1.467,5.281,9.653,9.653,0,0,1-2.709,4.879c.252,1.637.293,2.178.355,3v.005l.012.166c2.408.736,10.426,3.336,12.414,5.861a9.751,9.751,0,0,1,1.4,3.7Zm-24.191-7.617h0l-.4,3.527,2.895-2.051-2.492-1.476Zm8.947,0-2.492,1.477,2.895,2.051-.4-3.527Zm-8.479-3.877h0c-.02.175-.037.3-.053.41l-.01.074v.014c-.047.325-.076.54-.162,1.669.037.021,4.111,2.423,4.236,2.526.109-.1,4.061-2.431,4.313-2.574-.088-1.171-.115-1.352-.174-1.751v-.008c-.02-.131-.041-.278-.072-.508a9.327,9.327,0,0,1-4.443,1.189h-.1a6.531,6.531,0,0,1-3.531-1.041Zm-.393-15.365h0a2.108,2.108,0,0,1-.3.745v.006a2.962,2.962,0,0,0-.25.547,9.741,9.741,0,0,1-3.461,4.007,2.819,2.819,0,0,0,1.486,2.828.819.819,0,0,1,.408.551,8.423,8.423,0,0,0,3.785,5.578,5.079,5.079,0,0,0,2.354.54,8.172,8.172,0,0,0,3.375-.811,7.575,7.575,0,0,0,3.732-5.342.776.776,0,0,1,.354-.542,2.933,2.933,0,0,0,1.43-2.6h-.014c-1.068,0-3.752-2.718-4-5.306l-.086.022a14.43,14.43,0,0,1-4.283.673h-.117a9.272,9.272,0,0,1-3.053-.521l-.043-.013c-.377-.113-.807-.241-1.312-.368Zm9.389-1.545a1.053,1.053,0,0,1,.623.2,1.047,1.047,0,0,1,.439.833,5.334,5.334,0,0,0,1.463,2.793c.254.319.516.649.725.964a11.073,11.073,0,0,0,.174-3.211,11.391,11.391,0,0,0-.787-3.192,5.6,5.6,0,0,0-3.049-3.173,11.651,11.651,0,0,0-4.5-.836,9.7,9.7,0,0,0-4.072.812,8.249,8.249,0,0,0-4.316,5.564,8.91,8.91,0,0,0-.164,3.964c.221-.292.516-.613.828-.953v-.005c.836-.913,1.785-1.948,1.822-2.915a.949.949,0,0,1,.367-.805,1.1,1.1,0,0,1,.641-.239.825.825,0,0,1,.229.033c.479.138.891.273,1.256.393h.008a9.135,9.135,0,0,0,3.283.616h.141a13.962,13.962,0,0,0,4.508-.784l.068-.021a1.087,1.087,0,0,1,.34-.036Z" transform="translate(19088.738 1010.152)" fill="#005f54" stroke="#005f54" stroke-width="1"/>
        <path id="Path_53623" data-name="Path 53623" d="M28.254,53.673V50.695L26.845,43.04l.749-1.068V39.836H23.146v2.492l1.1.712L22.7,51.229v2.444" transform="translate(-5.969 -9.194)" fill="none" stroke="#cca079" stroke-linecap="round" stroke-linejoin="round" stroke-width="2.5"/>
      </g>
    </g>
    <path id="Path_53624" data-name="Path 53624" d="M3.328,2.392H0" transform="translate(1232.816 2775.252)" fill="none" stroke="#cca079" stroke-linecap="round" stroke-width="3"/>
    <g id="Group_24979" data-name="Group 24979" transform="translate(1159.436 2791.769)">
      <path id="Path_53627" data-name="Path 53627" d="M49.115,0H37.352" transform="translate(-1.752)" fill="none" stroke="#cca079" stroke-linecap="round" stroke-width="4"/>
      <path id="Path_53629" data-name="Path 53629" d="M9.418,0H0" fill="none" stroke="#cca079" stroke-linecap="round" stroke-width="4"/>
      <path id="Path_53628" data-name="Path 53628" d="M84.223,0H74.8" transform="translate(-0.189)" fill="none" stroke="#cca079" stroke-linecap="round" stroke-width="4"/>
    </g>
    <g id="Group_24977" data-name="Group 24977" transform="translate(1165.217 2778.28)">
      <g id="Path_53626" data-name="Path 53626" transform="translate(6.762)">
        <path id="Path_48634" data-name="Path 48634" d="M9.25,0c5.109,0,9.25,4.477,9.25,10S14.359,22.1,9.25,22.1,0,15.523,0,10,4.141,0,9.25,0Z" fill="none"/>
        <path id="Path_48635" data-name="Path 48635" d="M9.25,2.5C5.528,2.5,2.5,5.864,2.5,10a11.922,11.922,0,0,0,2.241,6.663C6.078,18.528,7.722,19.6,9.25,19.6s3.172-1.07,4.509-2.935A11.922,11.922,0,0,0,16,10c0-4.136-3.028-7.5-6.75-7.5m0-2.5c5.109,0,9.25,4.477,9.25,10S14.359,22.1,9.25,22.1,0,15.523,0,10,4.141,0,9.25,0Z" fill="#005f54"/>
      </g>
      <path id="Path_53630" data-name="Path 53630" d="M19349.7,2498.68s-.648-7.126-3.184-9.062-7.7-1.093-7.7-1.093a8.916,8.916,0,0,1-4.773,1.973c-2.4,0-4.832-1.973-4.832-1.973s-4.283-1.341-7.8,1.093-3.4,9.062-3.4,9.062Z" transform="translate(-19318.01 -2464.707)" fill="#005f54" stroke="#005f54" stroke-linejoin="round" stroke-width="2.5"/>
    </g>
    <g id="Group_24978" data-name="Group 24978" transform="translate(1205.976 2778.28)">
      <path id="Path_53603" data-name="Path 53603" d="M19349.7,2498.68s-.648-7.126-3.184-9.062-7.7-1.093-7.7-1.093a8.916,8.916,0,0,1-4.773,1.973c-2.4,0-4.832-1.973-4.832-1.973s-4.283-1.341-7.8,1.093-3.4,9.062-3.4,9.062Z" transform="translate(-19318.01 -2464.707)" fill="#005f54" stroke="#005f54" stroke-linejoin="round" stroke-width="2.5"/>
      <g id="Path_53626-2" data-name="Path 53626" transform="translate(6.76)">
        <path id="Path_48636" data-name="Path 48636" d="M9.25,0c5.109,0,9.25,4.477,9.25,10S14.359,22.1,9.25,22.1,0,15.523,0,10,4.141,0,9.25,0Z" fill="none"/>
        <path id="Path_48637" data-name="Path 48637" d="M9.25,2.5C5.528,2.5,2.5,5.864,2.5,10a11.922,11.922,0,0,0,2.241,6.663C6.078,18.528,7.722,19.6,9.25,19.6s3.172-1.07,4.509-2.935A11.922,11.922,0,0,0,16,10c0-4.136-3.028-7.5-6.75-7.5m0-2.5c5.109,0,9.25,4.477,9.25,10S14.359,22.1,9.25,22.1,0,15.523,0,10,4.141,0,9.25,0Z" fill="#005f54"/>
      </g>
    </g>
  </g>
</svg>
