<svg id="_" data-name="$$" xmlns="http://www.w3.org/2000/svg" width="42.017" height="44.324" viewBox="0 0 42.017 44.324">
  <path id="Path_45795" data-name="Path 45795" d="M260.476,272.524a.744.744,0,0,1-.725-.762.805.805,0,0,1,.034-.232,8.339,8.339,0,0,1,3.616-4.755.7.7,0,0,1,.994.26.788.788,0,0,1-.247,1.049l-.021.013a6.83,6.83,0,0,0-2.961,3.893.73.73,0,0,1-.69.535" transform="translate(-236.234 -241.192)" fill="#264c59"/>
  <path id="Path_45796" data-name="Path 45796" d="M36.482,48.644a.746.746,0,0,1-.724-.767.8.8,0,0,1,.033-.228,8.341,8.341,0,0,1,3.616-4.755.7.7,0,0,1,.985.295.788.788,0,0,1-.259,1.027,6.828,6.828,0,0,0-2.961,3.892.73.73,0,0,1-.69.535" transform="translate(-32.52 -38.709)" fill="#264c59"/>
  <path id="Path_45797" data-name="Path 45797" d="M104.8,32a.765.765,0,1,1-.724.764A.745.745,0,0,1,104.8,32" transform="translate(-94.655 -28.943)" fill="#264c59"/>
  <path id="Path_45798" data-name="Path 45798" d="M328.8,256a.765.765,0,1,1-.724.764A.745.745,0,0,1,328.8,256" transform="translate(-298.375 -231.545)" fill="#264c59"/>
  <path id="Path_45799" data-name="Path 45799" d="M91.7,68.585H90.251a.765.765,0,0,1,0-1.528h2.9a.765.765,0,0,0,0-1.528H91.7v-.764a.725.725,0,1,0-1.449,0v.764a2.3,2.3,0,0,0,0,4.585H91.7a.765.765,0,0,1,0,1.528H88.8a.765.765,0,0,0,0,1.528h1.449v.764a.725.725,0,1,0,1.449,0v-.764a2.3,2.3,0,0,0,0-4.585" transform="translate(-80.104 -57.886)" fill="#264c59"/>
  <path id="Path_45800" data-name="Path 45800" d="M10.943,22.926c-6,0-10.865-5.132-10.865-11.463S4.942,0,10.943,0,21.807,5.132,21.807,11.463,16.94,22.919,10.943,22.926m0-21.4a9.686,9.686,0,0,0-9.416,9.935A9.686,9.686,0,0,0,10.943,21.4a9.686,9.686,0,0,0,9.416-9.935,9.7,9.7,0,0,0-9.416-9.935" transform="translate(-0.071)" fill="#264c59"/>
  <path id="Path_45801" data-name="Path 45801" d="M234.943,246.926c-6,0-10.865-5.132-10.865-11.463S228.942,224,234.943,224s10.865,5.132,10.865,11.463-4.867,11.456-10.865,11.463m0-21.4a9.949,9.949,0,1,0,9.416,9.935,9.686,9.686,0,0,0-9.416-9.935" transform="translate(-203.79 -202.602)" fill="#264c59"/>
  <path id="Path_45802" data-name="Path 45802" d="M302,302.828a1.579,1.579,0,0,1-1.213.814c-.8,0-1.538-.981-1.747-2.293h1.747a.765.765,0,0,0,0-1.528H299.04c.209-1.313.946-2.293,1.747-2.293a1.58,1.58,0,0,1,1.213.814.7.7,0,0,0,1.01.183.791.791,0,0,0,.185-1.048A2.941,2.941,0,0,0,300.787,296c-1.59,0-2.907,1.527-3.2,3.715,0,.035,0,.071-.007.106H296.8a.765.765,0,0,0,0,1.528h.775c0,.036,0,.072.007.107.295,2.187,1.611,3.714,3.2,3.714a2.941,2.941,0,0,0,2.408-1.478.79.79,0,0,0-.2-1.059.7.7,0,0,0-.993.2" transform="translate(-269.273 -267.724)" fill="#264c59"/>
  <path id="Path_45803" data-name="Path 45803" d="M19.563,257.662H18.114c-7.871-.012-14.294-6.649-14.47-14.951l.92.971a.7.7,0,0,0,1.024-.019.8.8,0,0,0,0-1.062l-2.173-2.293a.718.718,0,0,0-1.024,0L.22,242.6A.794.794,0,0,0,.2,243.682a.7.7,0,0,0,1.024.016l.016-.016.943-1c.168,9.158,7.246,16.492,15.927,16.5h1.449a.765.765,0,0,0,0-1.528" transform="translate(0 -217.159)" fill="#264c59"/>
  <path id="Path_45804" data-name="Path 45804" d="M240.785,25.528h1.449c7.871.012,14.294,6.649,14.47,14.951l-.92-.971a.7.7,0,0,0-1.024.016.8.8,0,0,0,0,1.064l2.173,2.293a.718.718,0,0,0,1.024,0l2.172-2.293a.794.794,0,0,0-.018-1.081.7.7,0,0,0-1.006,0l-.943,1c-.168-9.158-7.246-16.492-15.927-16.5h-1.449a.765.765,0,0,0,0,1.528" transform="translate(-218.326 -21.707)" fill="#264c59"/>
</svg>
