<svg xmlns="http://www.w3.org/2000/svg" width="15.75" height="18" viewBox="0 0 15.75 18">
  <path id="birthday-Icon" d="M15.75,13.5c-.985,0-1.1-1.125-2.619-1.125S11.485,13.5,10.5,13.5,9.4,12.375,7.875,12.375c-1.506,0-1.66,1.125-2.619,1.125-.99,0-1.1-1.125-2.628-1.125S.988,13.5,0,13.5V10.688A1.688,1.688,0,0,1,1.688,9H2.25V3.938H4.5V9H6.75V3.938H9V9h2.25V3.938H13.5V9h.563a1.688,1.688,0,0,1,1.688,1.688Zm0,4.5H0V14.625c1.524,0,1.644-1.125,2.628-1.125s1.1,1.125,2.628,1.125c1.506,0,1.66-1.125,2.619-1.125.99,0,1.1,1.125,2.628,1.125S12.147,13.5,13.131,13.5c.966,0,1.1,1.125,2.619,1.125ZM3.375,3.375A1.122,1.122,0,0,1,2.25,2.25c0-1.09,1.125-.809,1.125-2.25C3.8,0,4.5,1.037,4.5,1.969S4,3.375,3.375,3.375Zm4.5,0A1.122,1.122,0,0,1,6.75,2.25c0-1.09,1.125-.809,1.125-2.25C8.3,0,9,1.037,9,1.969S8.5,3.375,7.875,3.375Zm4.5,0A1.122,1.122,0,0,1,11.25,2.25c0-1.09,1.125-.809,1.125-2.25C12.8,0,13.5,1.037,13.5,1.969S13,3.375,12.375,3.375Z" fill="#cca079"/>
</svg>
