<svg xmlns="http://www.w3.org/2000/svg" xmlns:xlink="http://www.w3.org/1999/xlink" width="450" height="213" viewBox="0 0 450 213">
  <defs>
    <clipPath id="clip-path">
      <rect id="Rectangle_2959" data-name="Rectangle 2959" width="213" height="450" transform="translate(0 -9.059)" fill="#fff" stroke="#707070" stroke-width="1"/>
    </clipPath>
  </defs>
  <g id="docs-BG" transform="translate(-199 -135.899)" opacity="0.2">
    <g id="Mask_Group_1" data-name="Mask Group 1" transform="translate(639.941 135.899) rotate(90)" clip-path="url(#clip-path)">
      <path id="Path_48626" data-name="Path 48626" d="M212.611,52.694c21.6,31.924,33.563,69.647,35.8,107.79" transform="translate(182.378 45.201)" fill="none" stroke="#dab594" stroke-linecap="round" stroke-linejoin="round" stroke-width="1.5"/>
      <path id="Path_48627" data-name="Path 48627" d="M58.327,211.995c-8.605-6.688-16.282-14.617-23.75-22.621" transform="translate(29.66 162.445)" fill="none" stroke="#c59062" stroke-linecap="round" stroke-linejoin="round" stroke-width="1.5"/>
      <path id="Path_48628" data-name="Path 48628" d="M28.25,193.675A201.4,201.4,0,0,1,8.515,140.813" transform="translate(7.304 120.789)" fill="none" stroke="#dab594" stroke-linecap="round" stroke-linejoin="round" stroke-width="1.5"/>
      <path id="Path_48629" data-name="Path 48629" d="M86.6,19.565C119.315,9.507,154.578,9,187.981,16.63" transform="translate(74.286 9.781)" fill="none" stroke="#d1cfcf" stroke-linecap="round" stroke-linejoin="round" stroke-width="3.001"/>
      <path id="Path_48630" data-name="Path 48630" d="M57.849,35.135A208.625,208.625,0,0,1,120.535,9.012" transform="translate(49.623 7.73)" fill="none" stroke="#c59062" stroke-linecap="round" stroke-linejoin="round" stroke-width="1.5"/>
      <path id="Path_48631" data-name="Path 48631" d="M50,26.408l8.631-5.726,4.355-2.794c1.481-.881,3.006-1.681,4.514-2.514" transform="translate(42.893 13.189)" fill="none" stroke="#adacac" stroke-linecap="round" stroke-linejoin="round" stroke-width="3.001"/>
      <path id="Path_48632" data-name="Path 48632" d="M20.867,62.635c1.484-2.194,2.945-4.4,4.492-6.547l4.951-6.214C33.693,45.792,36.928,41.6,40.6,37.755" transform="translate(17.9 32.386)" fill="none" stroke="#c59062" stroke-linecap="round" stroke-linejoin="round" stroke-width="1.5"/>
      <path id="Path_48633" data-name="Path 48633" d="M28.505,54.055q3.971-4.994,8.061-9.891" transform="translate(24.452 37.884)" fill="none" stroke="#c59062" stroke-linecap="round" stroke-linejoin="round" stroke-width="1.5"/>
      <path id="Path_48634" data-name="Path 48634" d="M19.857,99.16q1.917-6.936,4.018-13.829" transform="translate(17.033 73.197)" fill="none" stroke="#dab594" stroke-linecap="round" stroke-linejoin="round" stroke-width="1.5"/>
      <path id="Path_48635" data-name="Path 48635" d="M7.3,81.711q2.466-6.32,5.1-12.575" transform="translate(6.265 59.305)" fill="none" stroke="#c59062" stroke-linecap="round" stroke-linejoin="round" stroke-width="1.5"/>
      <path id="Path_48636" data-name="Path 48636" d="M24.182,136.857c-.715-3.5-.9-7.078-1.332-10.619" transform="translate(19.601 108.287)" fill="none" stroke="#c59062" stroke-linecap="round" stroke-linejoin="round" stroke-width="1.5"/>
      <path id="Path_48637" data-name="Path 48637" d="M93.5,21.906a188.857,188.857,0,0,1,83.857-.535" transform="translate(80.2 14.515)" fill="none" stroke="#dab594" stroke-linecap="round" stroke-linejoin="round" stroke-width="1.5"/>
      <path id="Path_48638" data-name="Path 48638" d="M130.151,29.214c4.955.951,9.956,1.717,14.842,2.967,4.851,1.4,9.729,2.74,14.519,4.321" transform="translate(111.643 25.06)" fill="none" stroke="#d1cfcf" stroke-linecap="round" stroke-linejoin="round" stroke-width="3.001"/>
      <path id="Path_48639" data-name="Path 48639" d="M69.325,65.731a146.38,146.38,0,0,1,42.839-22.693" transform="translate(59.467 36.918)" fill="none" stroke="#d9d7d7" stroke-linecap="round" stroke-linejoin="round" stroke-width="3.001"/>
      <path id="Path_48640" data-name="Path 48640" d="M67.053,70.554c-7.13,10.253-13.768,21.017-18.115,32.824-2.573,5.742-4.057,11.862-5.843,17.874-.858,3.019-1.261,6.142-1.895,9.213a74.826,74.826,0,0,0-1.412,9.291" transform="translate(34.13 60.521)" fill="none" stroke="#4f7d75" stroke-linecap="round" stroke-linejoin="round" stroke-width="2"/>
      <path id="Path_48641" data-name="Path 48641" d="M39.253,116.895l.045,4.966.032,2.484.243,2.469,1.027,9.878c.4,3.283,1.211,6.5,1.817,9.755l.994,4.864c.424,1.6.933,3.179,1.4,4.765" transform="translate(33.671 100.272)" fill="none" stroke="#adacac" stroke-linecap="round" stroke-linejoin="round" stroke-width="3.001"/>
      <path id="Path_48642" data-name="Path 48642" d="M38.432,106.007l1.748-5.98a46.616,46.616,0,0,1,2-5.895c1.536-3.857,3.077-7.719,4.685-11.543" transform="translate(32.967 70.845)" fill="none" stroke="#c59062" stroke-linecap="round" stroke-linejoin="round" stroke-width="1.5"/>
      <path id="Path_48643" data-name="Path 48643" d="M46.316,85.337c3.259-4.893,6.328-9.928,10.212-14.363l5.6-6.816c1.943-2.2,4.1-4.223,6.164-6.328" transform="translate(39.73 49.607)" fill="none" stroke="#eae8e7" stroke-linecap="round" stroke-linejoin="round" stroke-width="3.001"/>
      <path id="Path_48644" data-name="Path 48644" d="M61.063,117.564l0,3.48c.022,1.161.232,2.309.331,3.463l.7,6.93" transform="translate(52.38 100.846)" fill="none" stroke="#c59062" stroke-linecap="round" stroke-linejoin="round" stroke-width="1.5"/>
      <path id="Path_48645" data-name="Path 48645" d="M71.683,193.651l-5.31-4.351-2.638-2.192c-.858-.756-1.648-1.592-2.473-2.389-3.251-3.236-6.53-6.454-9.674-9.791" transform="translate(44.253 150.053)" fill="none" stroke="#c59062" stroke-linecap="round" stroke-linejoin="round" stroke-width="1.5"/>
      <path id="Path_48646" data-name="Path 48646" d="M204.462,168.177a152.053,152.053,0,0,1-31.14,25.56,148.751,148.751,0,0,1-37.065,15.715" transform="translate(116.881 144.262)" fill="none" stroke="#dab594" stroke-linecap="round" stroke-linejoin="round" stroke-width="1.5"/>
      <path id="Path_48647" data-name="Path 48647" d="M179.3,156.091a102.822,102.822,0,0,1-25.366,17.564,109.725,109.725,0,0,1-29.6,9" transform="translate(106.659 133.895)" fill="none" stroke="#0d5f54" stroke-linecap="round" stroke-linejoin="round" stroke-width="2"/>
      <path id="Path_48648" data-name="Path 48648" d="M168.341,137.365a93.317,93.317,0,0,1-16.9,24.25" transform="translate(129.903 117.832)" fill="none" stroke="#c59062" stroke-linecap="round" stroke-linejoin="round" stroke-width="1.5"/>
      <path id="Path_48649" data-name="Path 48649" d="M170.215,142.491a90.9,90.9,0,0,1-27.18,27.575" transform="translate(122.695 122.229)" fill="none" stroke="#c59062" stroke-linecap="round" stroke-linejoin="round" stroke-width="1.5"/>
      <path id="Path_48650" data-name="Path 48650" d="M142.778,159.526c-1.293.656-2.527,1.436-3.853,2.027l-4.046,1.629" transform="translate(115.699 136.841)" fill="none" stroke="#adacac" stroke-linecap="round" stroke-linejoin="round" stroke-width="0.5"/>
      <path id="Path_48651" data-name="Path 48651" d="M73.64,156.573c-.678-1.763-1.535-3.457-2.12-5.256l-1.626-5.438c-.269-.907-.591-1.8-.83-2.714l-.531-2.79-1.148-5.564c-.845-7.507-1.533-15.11-.624-22.63" transform="translate(56.898 96.229)" fill="none" stroke="#d1cfcf" stroke-linecap="round" stroke-linejoin="round" stroke-width="3.001"/>
      <path id="Path_48652" data-name="Path 48652" d="M132.2,166.357c-7.374-.294-14.5-2.291-21.4-4.624q-2.528-1.07-5.1-2.034c-1.7-.687-3.236-1.728-4.888-2.521l-2.458-1.241a22.877,22.877,0,0,1-2.32-1.512q-2.3-1.561-4.648-3.032" transform="translate(78.392 129.864)" fill="none" stroke="#c59062" stroke-linecap="round" stroke-linejoin="round" stroke-width="1.5"/>
      <path id="Path_48653" data-name="Path 48653" d="M106.788,150.322a59.934,59.934,0,0,1-16.014-15.111" transform="translate(77.866 115.984)" fill="none" stroke="#eae8e7" stroke-linecap="round" stroke-linejoin="round" stroke-width="3.001"/>
      <path id="Path_48654" data-name="Path 48654" d="M173.186,145.658a79.765,79.765,0,0,1-53.731,25.747" transform="translate(102.468 124.945)" fill="none" stroke="#eae8e7" stroke-linecap="round" stroke-linejoin="round" stroke-width="3.001"/>
      <path id="Path_48655" data-name="Path 48655" d="M142.248,110.874c.162.994.372,1.975.63,2.952s.139,2.012.3,3c.427,1.992.163,4.005.288,6.008" transform="translate(122.02 95.108)" fill="none" stroke="#eae8e7" stroke-linecap="round" stroke-linejoin="round" stroke-width="3.001"/>
      <path id="Path_48656" data-name="Path 48656" d="M139.117,103c.769,1.261,1.293,2.664,2.1,3.909" transform="translate(119.334 88.358)" fill="none" stroke="#c59062" stroke-linecap="round" stroke-linejoin="round" stroke-width="1.5"/>
      <path id="Path_48657" data-name="Path 48657" d="M137.648,113.809a38.959,38.959,0,0,1-1.053,15.533" transform="translate(117.171 97.625)" fill="none" stroke="#d1cfcf" stroke-linecap="round" stroke-linejoin="round" stroke-width="1.5"/>
      <path id="Path_48658" data-name="Path 48658" d="M158.915,169.367a105.614,105.614,0,0,1-31.7,10.876" transform="translate(109.127 145.283)" fill="none" stroke="#c59062" stroke-linecap="round" stroke-linejoin="round" stroke-width="1"/>
      <path id="Path_48659" data-name="Path 48659" d="M28.862,122.386C31.078,109.1,34.1,95.834,39.45,83.409" transform="translate(24.758 71.548)" fill="none" stroke="#d1cfcf" stroke-linecap="round" stroke-linejoin="round" stroke-width="3.001"/>
      <path id="Path_48660" data-name="Path 48660" d="M112.638,90.893a50.5,50.5,0,0,1,31.889,6" transform="translate(96.621 77.55)" fill="none" stroke="#e5cab2" stroke-linecap="round" stroke-linejoin="round" stroke-width="1.5"/>
      <path id="Path_48661" data-name="Path 48661" d="M121.874,142.556c-.871.078-1.741.214-2.61.351-.877-.059-1.748-.08-2.62-.065" transform="translate(100.057 122.285)" fill="none" stroke="#c59062" stroke-linecap="round" stroke-linejoin="round" stroke-width="1.5"/>
      <path id="Path_48662" data-name="Path 48662" d="M142.224,121.856c.041.041-.308.442-.634,1.219a8.382,8.382,0,0,0-.476,1.445,13.07,13.07,0,0,0-1.016,1.715,32.4,32.4,0,0,1-6.72,8.466,28.551,28.551,0,0,1-8.942,5.345c-.65.338-1.377.31-1.919.555-.58.132-1.011.537-1.469.485a8.3,8.3,0,0,0-1.341.21" transform="translate(102.685 104.528)" fill="none" stroke="#adacac" stroke-linecap="round" stroke-linejoin="round" stroke-width="0.5"/>
      <path id="Path_48663" data-name="Path 48663" d="M104.05,7.5c4.3-.442,8.607-.921,12.921-1.191q6.487-.153,12.988-.156c2.164.015,4.331-.019,6.491.071l6.482.5c4.321.368,8.642.764,12.945,1.256q6.418,1.084,12.819,2.328l6.385,1.282,6.283,1.731q6.276,1.783,12.5,3.719c4.091,1.449,8.117,3.106,12.152,4.726" transform="translate(89.254 5.281)" fill="none" stroke="#4f7d75" stroke-linecap="round" stroke-linejoin="round" stroke-width="2"/>
      <path id="Path_48664" data-name="Path 48664" d="M126.26.75c18.7,1.265,37.134,5.705,54.885,11.762" transform="translate(108.306 0.643)" fill="none" stroke="#c59062" stroke-linecap="round" stroke-linejoin="round" stroke-width="1.5"/>
      <path id="Path_48665" data-name="Path 48665" d="M43.606,85.518A172.518,172.518,0,0,1,88.6,46.12a177.041,177.041,0,0,1,55.684-21.679" transform="translate(37.405 20.965)" fill="none" stroke="#0d5f54" stroke-linecap="round" stroke-linejoin="round" stroke-width="2"/>
      <path id="Path_48666" data-name="Path 48666" d="M247.771,167.577c-.061.139-1.707,2.222-4.579,5.735a66.028,66.028,0,0,1-5.544,5.958c-2.229,2.207-4.667,4.769-7.493,7.366a153.95,153.95,0,0,1-47.8,28.82,65.442,65.442,0,0,1-7.2,2.441q-3.637,1.092-7.231,2.168c-4.808,1.347-9.687,2.088-14.337,3.062-4.674.842-9.28,1.091-13.6,1.581a48.179,48.179,0,0,1-6.331.314q-3.074.022-5.93.039c-1.9,0-3.719-.009-5.451-.015l-4.9-.42c-3.075-.286-5.755-.535-7.963-.738a49.239,49.239,0,0,1-5.077-.8l-1.791-.334" transform="translate(87.96 143.747)" fill="none" stroke="#bcc9c7" stroke-linecap="round" stroke-linejoin="round" stroke-width="2"/>
      <path id="Path_48667" data-name="Path 48667" d="M119.576,278.159A227.882,227.882,0,0,1,53.487,233.12,224.35,224.35,0,0,1,7.042,167.542" transform="translate(6.041 143.717)" fill="none" stroke="#eae8e7" stroke-linecap="round" stroke-linejoin="round" stroke-width="3.001"/>
      <path id="Path_48668" data-name="Path 48668" d="M266.756,209.089a186.363,186.363,0,0,1-30.865,16.456q-3.383,1.382-7.008,2.867c-2.419.966-4.9,2-7.543,2.763-5.243,1.644-10.76,3.353-16.488,4.9-5.794,1.267-11.791,2.478-17.874,3.6-6.123.849-12.377,1.442-18.6,2.012-6.237.379-12.5.3-18.632.312-6.131-.082-12.15-.816-17.956-1.319l-4.314-.446q-2.118-.362-4.193-.717l-8.091-1.5c-2.621-.511-5.174-1-7.623-1.54q-3.628-1.017-7-1.956C96.091,233.229,92,232,88.407,230.864c-3.517-1.377-6.578-2.579-9.1-3.565l-7.862-3.236" transform="translate(61.289 179.356)" fill="none" stroke="#eae8e7" stroke-linecap="round" stroke-linejoin="round" stroke-width="3.001"/>
      <path id="Path_48669" data-name="Path 48669" d="M211.564,61.843c16.932,29.834,26.8,63.65,27.167,97.893" transform="translate(181.479 53.049)" fill="none" stroke="#d1cfcf" stroke-linecap="round" stroke-linejoin="round" stroke-width="3.001"/>
      <path id="Path_48670" data-name="Path 48670" d="M197.332,108.093a124.26,124.26,0,0,1-5.369,55.154,123.335,123.335,0,0,1-29.626,46.835" transform="translate(139.253 92.722)" fill="none" stroke="#eae8e7" stroke-linecap="round" stroke-linejoin="round" stroke-width="3.001"/>
      <path id="Path_48671" data-name="Path 48671" d="M185.267,99.331a131.938,131.938,0,0,1,2.831,49.737" transform="translate(158.922 85.206)" fill="none" stroke="#bcc9c7" stroke-linecap="round" stroke-linejoin="round" stroke-width="2"/>
      <path id="Path_48672" data-name="Path 48672" d="M198.856,141.651a135.284,135.284,0,0,1-34.75,51.143" transform="translate(140.77 121.508)" fill="none" stroke="#dab594" stroke-linecap="round" stroke-linejoin="round" stroke-width="1.5"/>
      <path id="Path_48673" data-name="Path 48673" d="M200.785,106.618c4.425,31.235-2.616,63.719-18.465,90.91" transform="translate(156.394 91.457)" fill="none" stroke="#eae8e7" stroke-linecap="round" stroke-linejoin="round" stroke-width="3.001"/>
      <path id="Path_48674" data-name="Path 48674" d="M159.223,147.732a69.85,69.85,0,0,0-12.49-53.341" transform="translate(125.867 80.969)" fill="none" stroke="#4f7d75" stroke-linecap="round" stroke-linejoin="round" stroke-width="2"/>
      <path id="Path_48675" data-name="Path 48675" d="M143.964,83.585c3.3,2.322,5.778,5.443,8.708,8.119,2.372,3.162,5.155,6,7.123,9.454" transform="translate(123.492 71.699)" fill="none" stroke="#d9d7d7" stroke-linecap="round" stroke-linejoin="round" stroke-width="3.001"/>
      <path id="Path_48676" data-name="Path 48676" d="M146.559,105.685a62.08,62.08,0,0,1,3.16,27.527" transform="translate(125.718 90.656)" fill="none" stroke="#adacac" stroke-linecap="round" stroke-linejoin="round" stroke-width="2"/>
      <path id="Path_48677" data-name="Path 48677" d="M132.184,102.927a15.955,15.955,0,0,0,1.49,1.919,8.682,8.682,0,0,1,.81.908q.287.546.6,1.061c.414.7.934,1.319,1.408,1.984a16.517,16.517,0,0,0,1.078,2.2" transform="translate(113.387 88.291)" fill="none" stroke="#bcc9c7" stroke-linecap="round" stroke-linejoin="round" stroke-width="2"/>
      <path id="Path_48678" data-name="Path 48678" d="M171.055,110.062c.2,2.692.715,5.365.721,8.068l.071,8.1-.7,8.063-.169,2.016-.392,1.984-.754,3.972" transform="translate(145.677 94.411)" fill="none" stroke="#0d5f54" stroke-linecap="round" stroke-linejoin="round" stroke-width="2"/>
      <path id="Path_48679" data-name="Path 48679" d="M191.881,96.031a114.67,114.67,0,0,1,6.735,35.991,105.339,105.339,0,0,1-5.22,36.194A116.83,116.83,0,0,1,176.63,200.75a112.444,112.444,0,0,1-26.507,25.22" transform="translate(128.775 82.375)" fill="none" stroke="#d1cfcf" stroke-linecap="round" stroke-linejoin="round" stroke-width="3.001"/>
      <path id="Path_48680" data-name="Path 48680" d="M130.094,108.04a4.647,4.647,0,0,0,.57.871,7.988,7.988,0,0,0,1.1,2.229,12.053,12.053,0,0,1,.574,1.544c.158.563.639,1.035.728,1.683.212,1.274.921,2.486.985,3.883.516,1.3.3,2.707.648,3.955a17.583,17.583,0,0,1-.007,1.828,10.46,10.46,0,0,1,.076,1.635,9.041,9.041,0,0,0-.167,2.415,5.143,5.143,0,0,1-.2.884" transform="translate(111.594 92.677)" fill="none" stroke="#d1cfcf" stroke-linecap="round" stroke-linejoin="round" stroke-width="3.001"/>
      <path id="Path_48681" data-name="Path 48681" d="M162.173,104.408a78.356,78.356,0,0,1-9.534,66.154" transform="translate(130.934 89.561)" fill="none" stroke="#eae8e7" stroke-linecap="round" stroke-linejoin="round" stroke-width="1"/>
      <path id="Path_48682" data-name="Path 48682" d="M112.426,141.571q-.608-.418-1.254-.786l-.658-.353c-.2-.149-.355-.347-.541-.511a17.206,17.206,0,0,0-2.313-1.847c-.734-.641-1.271-1.444-2.008-2.058-.321-.349-.793-.572-1.04-.985-.264-.4-.541-.78-.834-1.148-1.391-1.313-2.125-3.1-3.355-4.548a15.282,15.282,0,0,0-1.287-2.545c-.119-.2-.281-.392-.379-.608l-.217-.691q-.229-.686-.52-1.343" transform="translate(84.081 106.495)" fill="none" stroke="#8ba5a1" stroke-linecap="round" stroke-linejoin="round" stroke-width="2"/>
      <path id="Path_48683" data-name="Path 48683" d="M88.538,150.005a57.577,57.577,0,0,1-3.517-24.61,58.84,58.84,0,0,1,6.774-23.622" transform="translate(72.805 87.301)" fill="none" stroke="#8ba5a1" stroke-linecap="round" stroke-linejoin="round" stroke-width="2"/>
      <path id="Path_48684" data-name="Path 48684" d="M78.781,119.627l.255-3.526q.393-1.722.713-3.452c.234-1.15.364-2.324.619-3.469.37-1.115.715-2.231,1.04-3.357" transform="translate(67.578 90.776)" fill="none" stroke="#0d5f54" stroke-linecap="round" stroke-linejoin="round" stroke-width="2"/>
      <path id="Path_48685" data-name="Path 48685" d="M82.685,106.232q1.028-1.906,1.964-3.861c.769-1.232,1.659-2.4,2.437-3.628,1.419-2.571,3.469-4.674,5.258-6.976" transform="translate(70.927 78.718)" fill="none" stroke="#8ba5a1" stroke-linecap="round" stroke-linejoin="round" stroke-width="2"/>
      <path id="Path_48686" data-name="Path 48686" d="M124.777,79.464a18.683,18.683,0,0,1,3.73.96q1.842.56,3.71,1.04c2.411.884,4.747,1.958,7.171,2.824" transform="translate(107.034 68.164)" fill="none" stroke="#0d5f54" stroke-linecap="round" stroke-linejoin="round" stroke-width="2"/>
      <path id="Path_48687" data-name="Path 48687" d="M237.957,130.109c-2.415,19.226-6.959,38.371-14.6,56.289" transform="translate(191.596 111.607)" fill="none" stroke="#adacac" stroke-linecap="round" stroke-linejoin="round" stroke-width="0.5"/>
      <path id="Path_48688" data-name="Path 48688" d="M216.23,226.653c-8.5,3.578-16.988,7.275-25.862,9.757-4.412,1.321-8.815,2.712-13.28,3.8Q170.353,241.7,163.567,243c-2.261.422-4.516.882-6.788,1.23l-6.853.8q-6.861.752-13.74,1.323c-4.6.16-9.207.212-13.813.227l-6.907-.033c-2.3-.035-4.6-.286-6.9-.442" transform="translate(93.129 194.423)" fill="none" stroke="#d1cfcf" stroke-linecap="round" stroke-linejoin="round" stroke-width="0.5"/>
      <path id="Path_48689" data-name="Path 48689" d="M73.611,67.868a144.471,144.471,0,0,1,35.224-18.909" transform="translate(63.143 41.997)" fill="none" stroke="#8ba5a1" stroke-linecap="round" stroke-linejoin="round" stroke-width="2"/>
      <path id="Path_48690" data-name="Path 48690" d="M118.361,53.152A123.059,123.059,0,0,0,73.582,77.5" transform="translate(63.119 45.594)" fill="none" stroke="#adacac" stroke-linecap="round" stroke-linejoin="round" stroke-width="0.5"/>
      <path id="Path_48691" data-name="Path 48691" d="M67.754,89.045l4.091-4.983a50.381,50.381,0,0,1,4.2-4.884L80.6,74.632l2.268-2.283,2.5-2.027" transform="translate(58.119 60.322)" fill="none" stroke="#adacac" stroke-linecap="round" stroke-linejoin="round" stroke-width="0.5"/>
      <path id="Path_48692" data-name="Path 48692" d="M136.232,225.736l-4.132-.793c-1.243-.264-2.757-.49-4.438-.933-1.674-.476-3.556-1.007-5.6-1.588a169.981,169.981,0,0,1-28.857-10.89c-4.923-2.618-9.986-5.023-14.372-7.816-4.364-2.828-8.4-5.516-11.842-7.847-3.348-2.447-5.965-4.722-7.86-6.224l-2.939-2.415" transform="translate(48.203 160.605)" fill="none" stroke="#adacac" stroke-linecap="round" stroke-linejoin="round" stroke-width="0.5"/>
      <path id="Path_48693" data-name="Path 48693" d="M134.1,213.58a181.213,181.213,0,0,1-33.186-8.087c-3.861-1.561-7.71-3.114-11.314-4.568-3.595-1.475-6.7-3.346-9.473-4.724-2.731-1.458-5-2.67-6.593-3.517-1.514-.97-2.376-1.52-2.376-1.52" transform="translate(61.037 163.98)" fill="none" stroke="#adacac" stroke-linecap="round" stroke-linejoin="round" stroke-width="0.5"/>
      <path id="Path_48694" data-name="Path 48694" d="M216.27,139.116A92.627,92.627,0,0,0,214.6,129.3c-.7-3.246-1.222-6.536-2.123-9.731l-2.874-9.547c-.516-1.579-.921-3.2-1.546-4.735l-1.871-4.626c-1.265-3.075-2.517-6.159-3.851-9.2l-4.644-8.841-2.365-4.4c-.845-1.434-1.8-2.805-2.7-4.2l-5.54-8.319" transform="translate(160.485 56.356)" fill="none" stroke="#adacac" stroke-linecap="round" stroke-linejoin="round" stroke-width="0.5"/>
      <path id="Path_48695" data-name="Path 48695" d="M158.933,59.965a133.539,133.539,0,0,1,41.122,51.115" transform="translate(136.333 51.438)" fill="none" stroke="#adacac" stroke-linecap="round" stroke-linejoin="round" stroke-width="0.5"/>
      <path id="Path_48696" data-name="Path 48696" d="M164.479,72.375c0,.078.747.652,1.724,1.906,1,1.232,2.411,2.972,4.1,5.055.847,1.035,1.763,2.157,2.733,3.338.882,1.247,1.739,2.612,2.668,3.994,1.77,2.815,3.989,5.616,5.5,8.834.832,1.564,1.663,3.127,2.48,4.665a37.49,37.49,0,0,1,2.248,4.591c1.269,3.063,2.45,5.923,3.463,8.373.927,2.482,1.453,4.635,1.941,6.1.451,1.479.71,2.322.71,2.322" transform="translate(141.09 62.083)" fill="none" stroke="#adacac" stroke-linecap="round" stroke-linejoin="round" stroke-width="0.5"/>
      <path id="Path_48697" data-name="Path 48697" d="M164.812,107.714a87.306,87.306,0,0,1-1.31,39.4" transform="translate(140.252 92.397)" fill="none" stroke="#adacac" stroke-linecap="round" stroke-linejoin="round" stroke-width="0.5"/>
      <path id="Path_48698" data-name="Path 48698" d="M246.271,129.062a135.153,135.153,0,0,1-2.2,14.415,138.266,138.266,0,0,1-3.149,14.251q-1.97,7.036-4.137,14.019c-1.62,4.589-3.487,9.1-5.313,13.614-.947,2.244-1.822,4.524-2.867,6.718l-3.318,6.495c-2.293,4.28-4.431,8.68-7.011,12.769-5.235,8.139-10.476,16.293-16.811,23.631" transform="translate(172.817 110.709)" fill="none" stroke="#dab594" stroke-linecap="round" stroke-linejoin="round" stroke-width="1.5"/>
      <path id="Path_48699" data-name="Path 48699" d="M235.054,92.531q1.123,5.554,2.124,11.126.7,5.618,1.274,11.256c.357,3.762.791,7.517.964,11.288q.148,5.663.171,11.338" transform="translate(201.629 79.373)" fill="none" stroke="#dab594" stroke-linecap="round" stroke-linejoin="round" stroke-width="1.5"/>
      <path id="Path_48700" data-name="Path 48700" d="M189.6,50.96a186.316,186.316,0,0,1,40.937,76.175" transform="translate(162.64 43.714)" fill="none" stroke="#dab594" stroke-linecap="round" stroke-linejoin="round" stroke-width="1.5"/>
      <path id="Path_48701" data-name="Path 48701" d="M60.063,211.061c-3.221-3.186-6.419-6.406-9.547-9.675q-4.389-5.2-8.661-10.513A114.246,114.246,0,0,1,33.89,179.84l-3.742-5.694a61.574,61.574,0,0,1-3.5-5.826" transform="translate(22.856 144.385)" fill="none" stroke="#dab594" stroke-linecap="round" stroke-linejoin="round" stroke-width="1.5"/>
      <path id="Path_48702" data-name="Path 48702" d="M35.627,86.883c2.3-3.409,5.048-6.493,7.6-9.716a114.834,114.834,0,0,1,8.117-9.311q4.344-4.422,8.782-8.754a54.554,54.554,0,0,1,4.628-4.124l4.793-3.948c6.278-5.427,13.3-9.85,20.231-14.376,3.487-2.224,7.221-4.03,10.853-6.008A105.36,105.36,0,0,1,111.8,25.277" transform="translate(30.561 21.683)" fill="none" stroke="#dab594" stroke-linecap="round" stroke-linejoin="round" stroke-width="1.5"/>
      <path id="Path_48703" data-name="Path 48703" d="M24.292,124.459A174.97,174.97,0,0,1,44.728,69.422" transform="translate(20.838 59.55)" fill="none" stroke="#dab594" stroke-linecap="round" stroke-linejoin="round" stroke-width="1.5"/>
      <path id="Path_48704" data-name="Path 48704" d="M113.281,22.615A174.733,174.733,0,0,1,212.06,49" transform="translate(97.172 19.297)" fill="none" stroke="#dab594" stroke-linecap="round" stroke-linejoin="round" stroke-width="1.5"/>
      <path id="Path_48705" data-name="Path 48705" d="M134.852,35.615a37.684,37.684,0,0,1,4.771,1.167l4.726,1.365,4.717,1.391,2.354.706,2.291.9c6.077,2.454,12.261,4.7,17.963,7.95" transform="translate(115.676 30.551)" fill="none" stroke="#dab594" stroke-linecap="round" stroke-linejoin="round" stroke-width="1.5"/>
      <path id="Path_48706" data-name="Path 48706" d="M80.316,70.115l-3.623,3.613L73.457,77.7l-3.24,3.961c-.533.667-1.1,1.31-1.605,1.993L67.2,85.787c-1.863,2.857-3.794,5.676-5.614,8.557l-4.752,9.064" transform="translate(48.753 60.145)" fill="none" stroke="#dab594" stroke-linecap="round" stroke-linejoin="round" stroke-width="1.5"/>
      <path id="Path_48707" data-name="Path 48707" d="M102.867,70.92l-3.119,2.036c-.992.743-1.919,1.575-2.885,2.352-1.891,1.609-3.911,3.067-5.735,4.75-3.463,3.569-7.182,6.887-10.147,10.933-3.376,3.7-5.858,8.055-8.691,12.161-1.289,2.129-2.315,4.4-3.515,6.577l-1.743,3.3-1.367,3.467" transform="translate(56.327 60.835)" fill="none" stroke="#dab594" stroke-linecap="round" stroke-linejoin="round" stroke-width="1.5"/>
      <path id="Path_48708" data-name="Path 48708" d="M214.574,126.505A158.272,158.272,0,0,1,189.5,196.133" transform="translate(162.55 108.516)" fill="none" stroke="#dab594" stroke-linecap="round" stroke-linejoin="round" stroke-width="1.5"/>
      <path id="Path_48709" data-name="Path 48709" d="M165.413,203.627c-31.915,2.74-65.025-5.427-91.432-23.793" transform="translate(63.461 154.261)" fill="none" stroke="#dab594" stroke-linecap="round" stroke-linejoin="round" stroke-width="1.5"/>
      <path id="Path_48710" data-name="Path 48710" d="M174.027,137.775c-4.089,9.282-9.187,18.335-16.031,25.987" transform="translate(135.529 118.183)" fill="none" stroke="#dab594" stroke-linecap="round" stroke-linejoin="round" stroke-width="1.5"/>
      <path id="Path_48711" data-name="Path 48711" d="M153.429,77.025c.043.017.414.379,1.039,1l2.543,2.528a48.226,48.226,0,0,1,3.482,3.6c1.148,1.421,2.369,2.932,3.589,4.44.619.747,1.234,1.5,1.843,2.231.578.758,1.038,1.581,1.548,2.332,1,1.514,1.926,2.928,2.722,4.139a21.952,21.952,0,0,1,1.836,2.976c.386.752.606,1.182.606,1.182" transform="translate(131.611 66.072)" fill="none" stroke="#dab594" stroke-linecap="round" stroke-linejoin="round" stroke-width="1.5"/>
      <path id="Path_48712" data-name="Path 48712" d="M168.564,252.815a223.484,223.484,0,0,1-64.711-12.746q-7.725-2.985-15.364-6.218c-5.018-2.272-9.861-4.918-14.742-7.479-2.408-1.336-4.9-2.543-7.2-4.031l-6.9-4.468L52.809,213.3l-3.379-2.333-3.223-2.549" transform="translate(39.635 178.778)" fill="none" stroke="#dab594" stroke-linecap="round" stroke-linejoin="round" stroke-width="1.5"/>
      <path id="Path_48713" data-name="Path 48713" d="M122.26,132.843a36.907,36.907,0,0,1-9.386-.635" transform="translate(96.823 113.408)" fill="none" stroke="#dab594" stroke-linecap="round" stroke-linejoin="round" stroke-width="1.5"/>
      <path id="Path_48714" data-name="Path 48714" d="M150.2,142.249c.037.145-1.9,1.083-4.446,2.967-1.308.9-3.073,1.535-4.752,2.582a14.108,14.108,0,0,1-2.8,1.224c-.97.383-1.94.8-2.9,1.247-2.01.671-4.082,1.156-5.949,1.867a53.27,53.27,0,0,0-5.345,1.065c-3.184.238-5.284.544-5.284.544" transform="translate(101.847 122.021)" fill="none" stroke="#dab594" stroke-linecap="round" stroke-linejoin="round" stroke-width="1.5"/>
      <path id="Path_48715" data-name="Path 48715" d="M124.013,151.77a58.414,58.414,0,0,1-23.382-7.61" transform="translate(86.321 123.66)" fill="none" stroke="#adacac" stroke-linecap="round" stroke-linejoin="round" stroke-width="0.5"/>
      <path id="Path_48716" data-name="Path 48716" d="M32.16,149.091l-1.4-6.937a65.324,65.324,0,0,1-1.157-6.976c-.494-4.689-1.053-9.382-1.369-14.084" transform="translate(24.219 103.874)" fill="none" stroke="#adacac" stroke-linecap="round" stroke-linejoin="round" stroke-width="0.5"/>
      <path id="Path_48717" data-name="Path 48717" d="M109.3,225.645A155.073,155.073,0,0,1,67.23,191.354a149.9,149.9,0,0,1-27.4-46.971" transform="translate(34.164 123.852)" fill="none" stroke="#adacac" stroke-linecap="round" stroke-linejoin="round" stroke-width="0.5"/>
      <path id="Path_48718" data-name="Path 48718" d="M44.086,181.386s-.438-1.07-1.191-2.913c-.372-.923-.825-2.042-1.343-3.324-.5-1.291-.9-2.8-1.417-4.416-.977-3.257-2.192-7.035-3.286-11.134-.838-4.16-1.731-8.6-2.625-13.031-.682-4.468-1.033-8.988-1.484-13.2a47.423,47.423,0,0,1-.32-6.1c-.017-1.943-.035-3.781-.05-5.479.019-3.392-.121-6.224.137-8.193l.26-3.1" transform="translate(27.748 94.78)" fill="none" stroke="#adacac" stroke-linecap="round" stroke-linejoin="round" stroke-width="0.5"/>
      <path id="Path_48719" data-name="Path 48719" d="M92.183,95.167A70.855,70.855,0,0,1,143.9,78.9" transform="translate(79.074 67.437)" fill="none" stroke="#d1cfcf" stroke-linecap="round" stroke-linejoin="round" stroke-width="0.5"/>
      <path id="Path_48720" data-name="Path 48720" d="M95.872,96.533c9.685-7.92,22.115-12.388,34.761-13.372" transform="translate(82.239 71.335)" fill="none" stroke="#8ba5a1" stroke-linecap="round" stroke-linejoin="round" stroke-width="2"/>
      <path id="Path_48721" data-name="Path 48721" d="M105.165,73.851a84.241,84.241,0,0,1,66,10.1" transform="translate(90.21 60.987)" fill="none" stroke="#d1cfcf" stroke-linecap="round" stroke-linejoin="round" stroke-width="0.5"/>
      <path id="Path_48722" data-name="Path 48722" d="M72.933,120.746c1.67-6.855,4.947-13.146,8.184-19.4l2.961-4.42a31.431,31.431,0,0,1,3.064-4.344c2.313-2.686,4.336-5.644,7-7.963" transform="translate(62.562 72.591)" fill="none" stroke="#adacac" stroke-linecap="round" stroke-linejoin="round" stroke-width="0.5"/>
      <path id="Path_48723" data-name="Path 48723" d="M220.07,112.622a183.188,183.188,0,0,1-10.6,69.456" transform="translate(179.682 96.607)" fill="none" stroke="#8ba5a1" stroke-linecap="round" stroke-linejoin="round" stroke-width="2"/>
      <path id="Path_48724" data-name="Path 48724" d="M235.443,159.585q-2.845,5.551-5.806,11.046a54.705,54.705,0,0,1-3.207,5.328l-3.405,5.2c-4.373,7.06-9.765,13.372-15.05,19.752-11.143,12.263-23.568,23.646-37.736,32.484" transform="translate(146.032 136.892)" fill="none" stroke="#adacac" stroke-linecap="round" stroke-linejoin="round" stroke-width="3.001"/>
      <path id="Path_48725" data-name="Path 48725" d="M163.778,206.435c-4.814,2-9.62,4.063-14.513,5.845" transform="translate(128.039 177.08)" fill="none" stroke="#dab594" stroke-linecap="round" stroke-linejoin="round" stroke-width="1.5"/>
      <path id="Path_48726" data-name="Path 48726" d="M152.988,213.311l-5.053.953-5.109.58-10.235,1.029c-3.411.342-6.853.214-10.281.3-3.431-.006-6.866.1-10.29-.08" transform="translate(96.091 182.978)" fill="none" stroke="#adacac" stroke-linecap="round" stroke-linejoin="round" stroke-width="3.001"/>
      <path id="Path_48727" data-name="Path 48727" d="M269.46,182.361c-18.766,22.9-42.971,41.969-70.281,53.884a197.1,197.1,0,0,1-86.8,16.77" transform="translate(96.399 156.429)" fill="none" stroke="#d1cfcf" stroke-linecap="round" stroke-linejoin="round" stroke-width="3.001"/>
      <path id="Path_48728" data-name="Path 48728" d="M147.931,238.684c-35.083-4.663-69.255-18.935-96.422-41.314" transform="translate(44.184 169.304)" fill="none" stroke="#4f7d75" stroke-linecap="round" stroke-linejoin="round" stroke-width="2"/>
      <path id="Path_48729" data-name="Path 48729" d="M22.018,230.261C1.848,188.345-4.909,140.228,4.291,94.45" transform="translate(0.214 81.019)" fill="none" stroke="#d1cfcf" stroke-linecap="round" stroke-linejoin="round" stroke-width="0.5"/>
      <path id="Path_48730" data-name="Path 48730" d="M225.609,182.021a217.812,217.812,0,0,1-30.615,35.508" transform="translate(167.266 156.138)" fill="none" stroke="#adacac" stroke-linecap="round" stroke-linejoin="round" stroke-width="3.001"/>
      <path id="Path_48731" data-name="Path 48731" d="M252.43,174.722c-.041.078-.8,1.494-2.109,3.922-1.237,2.478-3.435,5.663-5.936,9.573-2.571,3.859-5.464,8.427-8.921,13.036-3.567,4.533-7.452,9.309-11.412,14-1.917,2.393-4.135,4.553-6.25,6.733-2.148,2.151-4.262,4.267-6.307,6.313-2.075,2.014-4.039,4-6.017,5.763-2.038,1.7-3.963,3.316-5.739,4.8-3.576,2.95-6.6,5.358-8.715,7.032-2.1,1.7-3.389,2.547-3.389,2.547" transform="translate(160.953 149.876)" fill="none" stroke="#d9d7d7" stroke-linecap="round" stroke-linejoin="round" stroke-width="3.001"/>
      <path id="Path_48732" data-name="Path 48732" d="M5.936,156.43A208.766,208.766,0,0,1,33.2,61.461" transform="translate(5.092 52.721)" fill="none" stroke="#adacac" stroke-linecap="round" stroke-linejoin="round" stroke-width="0.5"/>
      <path id="Path_48733" data-name="Path 48733" d="M27.44,207.351c-1.731-4.141-3.435-8.3-5.048-12.486q-2.054-6.4-3.957-12.856a118.848,118.848,0,0,1-3.149-13.058l-1.3-6.6a62.948,62.948,0,0,1-1.04-6.632q-.769-6.677-1.377-13.371c-.427-4.459-.286-8.956-.373-13.439l.009-6.723c.022-2.241.288-4.477.442-6.716.373-4.475.775-8.949,1.278-13.408" transform="translate(9.605 87.552)" fill="none" stroke="#adacac" stroke-linecap="round" stroke-linejoin="round" stroke-width="3.001"/>
      <path id="Path_48734" data-name="Path 48734" d="M11.5,139.1A194.951,194.951,0,0,1,28.357,73.016" transform="translate(9.864 62.633)" fill="none" stroke="#adacac" stroke-linecap="round" stroke-linejoin="round" stroke-width="3.001"/>
      <path id="Path_48735" data-name="Path 48735" d="M39.312,187.664q-2.876-5.242-5.648-10.55c-.91-1.772-1.865-3.526-2.712-5.328l-2.322-5.5c-1.518-3.682-3.058-7.362-4.449-11.087q-1.809-5.685-3.506-11.411" transform="translate(17.735 123.337)" fill="none" stroke="#adacac" stroke-linecap="round" stroke-linejoin="round" stroke-width="0.5"/>
      <path id="Path_48736" data-name="Path 48736" d="M56.7,202.378a174.617,174.617,0,0,1-30.52-59.734" transform="translate(22.461 122.36)" fill="none" stroke="#adacac" stroke-linecap="round" stroke-linejoin="round" stroke-width="3.001"/>
      <path id="Path_48737" data-name="Path 48737" d="M100.857,30.959c1.938-.346,3.855-.836,5.815-1.035l5.876-.639,5.882-.591,2.945-.266,2.956-.046" transform="translate(86.515 24.346)" fill="none" stroke="#d9d7d7" stroke-linecap="round" stroke-linejoin="round" stroke-width="3.001"/>
      <path id="Path_48738" data-name="Path 48738" d="M120.077,39.165a157.96,157.96,0,0,1,40.74,7.738" transform="translate(103.002 33.596)" fill="none" stroke="#d9d7d7" stroke-linecap="round" stroke-linejoin="round" stroke-width="3.001"/>
      <path id="Path_48739" data-name="Path 48739" d="M103.127,40.938c1.382-.251,2.751-.6,4.148-.76l4.2-.448" transform="translate(88.462 34.08)" fill="none" stroke="#adacac" stroke-linecap="round" stroke-linejoin="round" stroke-width="3.001"/>
      <path id="Path_48740" data-name="Path 48740" d="M109.181,45.619A133.12,133.12,0,0,1,200.936,69.9" transform="translate(93.655 38.491)" fill="none" stroke="#adacac" stroke-linecap="round" stroke-linejoin="round" stroke-width="0.5"/>
      <path id="Path_48741" data-name="Path 48741" d="M59.5,82.134l4.236-5.189a54.614,54.614,0,0,1,4.386-5.055l4.739-4.737a55.506,55.506,0,0,1,4.875-4.592" transform="translate(51.04 53.664)" fill="none" stroke="#c59062" stroke-linecap="round" stroke-linejoin="round" stroke-width="1.5"/>
      <path id="Path_48742" data-name="Path 48742" d="M152.532,56.339,144.509,54a26.893,26.893,0,0,0-4.065-.947l-4.108-.771C130.9,51,125.3,50.844,119.759,50.27" transform="translate(102.729 43.122)" fill="none" stroke="#adacac" stroke-linecap="round" stroke-linejoin="round" stroke-width="3.001"/>
      <path id="Path_48743" data-name="Path 48743" d="M86.876,68.565A109.675,109.675,0,0,1,122.8,55.951" transform="translate(74.522 47.995)" fill="none" stroke="#adacac" stroke-linecap="round" stroke-linejoin="round" stroke-width="0.5"/>
      <path id="Path_48744" data-name="Path 48744" d="M170.3,79l-5.469-3.651-5.807-3.039c-3.76-2.27-7.981-3.508-11.972-5.271-8.276-2.692-16.78-4.966-25.528-5.484" transform="translate(104.243 52.799)" fill="none" stroke="#eae8e7" stroke-linecap="round" stroke-linejoin="round" stroke-width="3.001"/>
      <path id="Path_48745" data-name="Path 48745" d="M115.809,55.094a114.049,114.049,0,0,1,42.761,7.639" transform="translate(99.341 47.249)" fill="none" stroke="#adacac" stroke-linecap="round" stroke-linejoin="round" stroke-width="0.5"/>
      <path id="Path_48746" data-name="Path 48746" d="M126.018,61.349a46.427,46.427,0,0,0-5.523.152l-5.5.58-2.753.264c-.912.128-1.808.364-2.712.537L104.1,63.968" transform="translate(89.3 52.618)" fill="none" stroke="#adacac" stroke-linecap="round" stroke-linejoin="round" stroke-width="0.5"/>
      <path id="Path_48747" data-name="Path 48747" d="M61.141,138.84a105.231,105.231,0,0,0,15.88,27.533c6.361,8.557,14.541,15.581,23.063,21.931l6.67,4.414c2.216,1.49,4.687,2.521,7.008,3.823l3.528,1.867c1.187.6,2.46,1.009,3.684,1.527,2.475.964,4.914,2.034,7.405,2.956a125.1,125.1,0,0,0,31.282,5.863" transform="translate(52.447 119.097)" fill="none" stroke="#4f7d75" stroke-linecap="round" stroke-linejoin="round" stroke-width="2"/>
      <path id="Path_48748" data-name="Path 48748" d="M65.272,93.727a105.358,105.358,0,0,0-8.308,35.709" transform="translate(48.864 80.399)" fill="none" stroke="#adacac" stroke-linecap="round" stroke-linejoin="round" stroke-width="0.5"/>
      <path id="Path_48749" data-name="Path 48749" d="M104.377,181.535c-2.205-.695-4.483-1.193-6.636-2.04L91.3,176.9" transform="translate(78.315 151.741)" fill="none" stroke="#adacac" stroke-linecap="round" stroke-linejoin="round" stroke-width="3.001"/>
      <path id="Path_48750" data-name="Path 48750" d="M116.9,193.271c-.059,0-.745-.182-1.9-.505l-4.706-1.352c-3.935-.91-8.761-3.212-13.7-5.124a63.86,63.86,0,0,1-6.974-3.429l-5.988-3.168c-1.741-.942-3.049-1.964-4.03-2.569l-1.509-1" transform="translate(66.988 151.076)" fill="none" stroke="#0d5f54" stroke-linecap="round" stroke-linejoin="round" stroke-width="1.5"/>
      <path id="Path_48751" data-name="Path 48751" d="M91.536,193.386c-8.862-7.753-17-16.494-23.171-26.581a116.329,116.329,0,0,1-14.522-32.136" transform="translate(46.187 115.518)" fill="none" stroke="#d1cfcf" stroke-linecap="round" stroke-linejoin="round" stroke-width="3.001"/>
      <path id="Path_48752" data-name="Path 48752" d="M251.595,174.476a173.9,173.9,0,0,1-59.916,48.093A172.542,172.542,0,0,1,116.9,239.7" transform="translate(100.28 149.665)" fill="none" stroke="#eae8e7" stroke-linecap="round" stroke-linejoin="round" stroke-width="3.001"/>
      <path id="Path_48753" data-name="Path 48753" d="M138.681,210.374l7.284-2.179c2.27-.758,5.029-1.4,7.831-2.582l8.845-3.623c1.5-.65,3.037-1.213,4.472-1.941,1.429-.745,2.839-1.479,4.2-2.19,2.714-1.449,5.254-2.8,7.429-3.961a56.536,56.536,0,0,0,5.077-3.134l1.9-1.247" transform="translate(118.96 162.567)" fill="none" stroke="#adacac" stroke-linecap="round" stroke-linejoin="round" stroke-width="3.001"/>
      <path id="Path_48754" data-name="Path 48754" d="M170.821,182.148c-9.36,4.024-19.325,6.363-29.312,8.208-2.519.325-5.055.546-7.584.819a63.5,63.5,0,0,1-7.6.563c-5.083-.022-10.181.3-15.238-.36" transform="translate(95.29 156.246)" fill="none" stroke="#d1cfcf" stroke-linecap="round" stroke-linejoin="round" stroke-width="3.001"/>
      <path id="Path_48755" data-name="Path 48755" d="M95.6,232.627c-2.35-1.945-4.756-3.831-7.056-5.832l-6.476-6.48A63.6,63.6,0,0,1,76,213.462c-1.876-2.408-3.985-4.641-5.659-7.2a142.2,142.2,0,0,1-17-32.333,143.571,143.571,0,0,1-7.377-35.768c-.308-3.036-.134-6.1-.217-9.15l-.03-4.578c.048-1.525.243-3.043.359-4.565.292-3.039.487-6.09.869-9.116l1.687-9" transform="translate(39.218 87.282)" fill="none" stroke="#d1cfcf" stroke-linecap="round" stroke-linejoin="round" stroke-width="3.001"/>
      <path id="Path_48756" data-name="Path 48756" d="M125.576,172.95l-4.017-.381-4.109-.346a46.038,46.038,0,0,1-4.639-.8,86.742,86.742,0,0,1-12.143-2.93" transform="translate(86.349 144.528)" fill="none" stroke="#adacac" stroke-linecap="round" stroke-linejoin="round" stroke-width="3.001"/>
      <path id="Path_48757" data-name="Path 48757" d="M135.071,163.971c-6.575,1.458-13.337,1.676-20.04,1.685" transform="translate(98.674 140.654)" fill="none" stroke="#d1cfcf" stroke-linecap="round" stroke-linejoin="round" stroke-width="3.001"/>
      <path id="Path_48758" data-name="Path 48758" d="M110.078,174.257a96.283,96.283,0,0,1-32.954-26.492" transform="translate(66.157 126.753)" fill="none" stroke="#adacac" stroke-linecap="round" stroke-linejoin="round" stroke-width="3.001"/>
      <path id="Path_48759" data-name="Path 48759" d="M94.661,146.9q2.07,1.262,4.061,2.633a18.2,18.2,0,0,0,2.014,1.328l2.144,1.066c1.438.68,2.766,1.609,4.241,2.2q2.241.817,4.425,1.757c5.99,2.008,12.163,3.79,18.578,4.02l2.382.271,2.4-.063c1.6-.063,3.2.052,4.8-.028,3.173-.483,6.409-.481,9.519-1.354,3.207-.4,6.185-1.639,9.291-2.426,1.509-.528,2.934-1.265,4.429-1.822l2.237-.858,2.081-1.174" transform="translate(81.2 126.007)" fill="none" stroke="#adacac" stroke-linecap="round" stroke-linejoin="round" stroke-width="1.5"/>
      <path id="Path_48760" data-name="Path 48760" d="M136.913,97.6c-1.6-.554-3.329-.333-4.988-.695-.847-.041-1.7.123-2.551.065l-1.28-.08q-.635.139-1.271.223c-3.448.059-6.742,1.228-9.932,2.27a14.977,14.977,0,0,1-2.361.908c-.741.394-1.421.886-2.185,1.226l-1.144.516c-.321.271-.648.526-.986.765-.648.513-1.445.819-2.094,1.336-1.135,1.232-2.686,1.947-3.7,3.344-.3.3-.6.587-.923.862a2.832,2.832,0,0,0-.869.933,16.332,16.332,0,0,1-1.64,2.023" transform="translate(86.628 83.11)" fill="none" stroke="#adacac" stroke-linecap="round" stroke-linejoin="round" stroke-width="1.5"/>
      <path id="Path_48761" data-name="Path 48761" d="M140.881,156.54A68.079,68.079,0,0,0,159.4,131.8" transform="translate(120.848 113.055)" fill="none" stroke="#d1cfcf" stroke-linecap="round" stroke-linejoin="round" stroke-width="3.001"/>
      <path id="Path_48762" data-name="Path 48762" d="M153.675,123.458a17.043,17.043,0,0,1-.916,3.478c-.368,1.137-.6,2.32-.966,3.465q-.764,1.636-1.4,3.312l-.611,1.694c-.245.55-.6,1.052-.877,1.585q-.883,1.58-1.652,3.221a31.528,31.528,0,0,1-2.008,3.062c-.717.992-1.228,2.129-2.019,3.069q-1.232,1.371-2.361,2.816" transform="translate(120.831 105.902)" fill="none" stroke="#eae8e7" stroke-linecap="round" stroke-linejoin="round" stroke-width="3.001"/>
      <path id="Path_48763" data-name="Path 48763" d="M151.126,126.108a45.236,45.236,0,0,1-8.713,14.482A50.684,50.684,0,0,1,129.5,151.112" transform="translate(111.082 108.175)" fill="none" stroke="#d1cfcf" stroke-linecap="round" stroke-linejoin="round" stroke-width="3.001"/>
      <path id="Path_48764" data-name="Path 48764" d="M174.913,61.424a148.723,148.723,0,0,1,30.249,47.29" transform="translate(150.04 52.689)" fill="none" stroke="#adacac" stroke-linecap="round" stroke-linejoin="round" stroke-width="3.001"/>
      <path id="Path_48765" data-name="Path 48765" d="M37.462,68.434a195.476,195.476,0,0,1,59.08-45.772" transform="translate(32.135 19.439)" fill="none" stroke="#d1cfcf" stroke-linecap="round" stroke-linejoin="round" stroke-width="3.001"/>
      <path id="Path_48766" data-name="Path 48766" d="M73.763,117.846a80.894,80.894,0,0,0,20.12,50.935" transform="translate(63.274 101.088)" fill="none" stroke="#adacac" stroke-linecap="round" stroke-linejoin="round" stroke-width="3.001"/>
      <path id="Path_48767" data-name="Path 48767" d="M53.816,100.738c-.968,4.412-1.783,8.873-2.519,13.33l-.6,6.761a50.641,50.641,0,0,0-.37,6.772" transform="translate(43.15 86.413)" fill="none" stroke="#adacac" stroke-linecap="round" stroke-linejoin="round" stroke-width="3.001"/>
      <path id="Path_48768" data-name="Path 48768" d="M149.951,81.3c11.247,10.79,20.031,24.224,24.371,39.32" transform="translate(128.628 69.743)" fill="none" stroke="#bcc9c7" stroke-linecap="round" stroke-linejoin="round" stroke-width="2"/>
      <path id="Path_48769" data-name="Path 48769" d="M137.712,125.831A16.65,16.65,0,0,0,136.644,128c-.372.725-1,1.326-1.412,2.042q-.337.521-.641,1.068l-.3.554-.442.448a18.006,18.006,0,0,0-1.59,1.915" transform="translate(113.453 107.938)" fill="none" stroke="#adacac" stroke-linecap="round" stroke-linejoin="round" stroke-width="3.001"/>
      <path id="Path_48770" data-name="Path 48770" d="M115.487,135.317a1.5,1.5,0,0,1-.8-.377c-.247-.169-.5-.323-.762-.466-.507-.316-1.107-.437-1.624-.767a9.8,9.8,0,0,0-1.509-1.1c-.266-.16-.542-.307-.827-.442s-.448-.44-.691-.634c-.886-.869-2.071-1.431-2.733-2.437-.39-.444-.908-.778-1.323-1.2a8.536,8.536,0,0,0-1.04-1.414" transform="translate(89.366 108.495)" fill="none" stroke="#adacac" stroke-linecap="round" stroke-linejoin="round" stroke-width="0.5"/>
      <path id="Path_48771" data-name="Path 48771" d="M90.74,139.66c-.191-4.5-.314-9.079.823-13.4q.137-.825.227-1.661l.541-1.577c.366-1.048.55-2.151.892-3.207,1.053-1.967,1.466-4.195,2.764-6.066,1.828-4.085,4.882-7.715,7.8-11.123a29.187,29.187,0,0,0,2.365-2.382,28.692,28.692,0,0,1,2.569-2.114c1.544-1.639,3.68-2.452,5.373-3.909" transform="translate(77.729 80.82)" fill="none" stroke="#eae8e7" stroke-linecap="round" stroke-linejoin="round" stroke-width="3.001"/>
      <path id="Path_48772" data-name="Path 48772" d="M80.934,91a92.912,92.912,0,0,1,31.911-21.1" transform="translate(69.425 59.953)" fill="none" stroke="#8ba5a1" stroke-linecap="round" stroke-linejoin="round" stroke-width="2"/>
      <path id="Path_48773" data-name="Path 48773" d="M108.246,110.493a18.89,18.89,0,0,1,18.47-5.891" transform="translate(92.853 89.3)" fill="none" stroke="#bcc9c7" stroke-linecap="round" stroke-linejoin="round" stroke-width="2"/>
      <path id="Path_48774" data-name="Path 48774" d="M113.91,130.045a18.843,18.843,0,0,1-8.784-15.221" transform="translate(90.177 98.496)" fill="none" stroke="#4f7d75" stroke-linecap="round" stroke-linejoin="round" stroke-width="2"/>
      <path id="Path_48775" data-name="Path 48775" d="M132.762,118.343a19.139,19.139,0,0,1-13.7,12.306" transform="translate(102.129 101.515)" fill="none" stroke="#adacac" stroke-linecap="round" stroke-linejoin="round" stroke-width="0.5"/>
    </g>
  </g>
</svg>
