<svg id="download-Icon" xmlns="http://www.w3.org/2000/svg" width="24.102" height="24.101" viewBox="0 0 24.102 24.101">
  <path id="Path_182" data-name="Path 182" d="M36.888,352v4.865H19.214V352H16v6.487a1.614,1.614,0,0,0,1.607,1.622H38.495a1.613,1.613,0,0,0,1.607-1.622V352Z" transform="translate(-16 -336.008)" fill="#fff"/>
  <path id="Path_181" data-name="Path 181" d="M140.9,11.828a.809.809,0,0,0-.738-.475h-3.244V.811A.811.811,0,0,0,136.107,0h-3.244a.811.811,0,0,0-.811.811V11.353h-3.244a.811.811,0,0,0-.61,1.345l5.676,6.487a.809.809,0,0,0,1.22,0l5.676-6.487A.808.808,0,0,0,140.9,11.828Z" transform="translate(-122.435)" fill="#fff"/>
</svg>
