<svg id="fav-Icon3" xmlns="http://www.w3.org/2000/svg" width="54.989" height="54.989" viewBox="0 0 54.989 54.989">
  <path id="Path_48905" data-name="Path 48905" d="M147.712,175.916a2.926,2.926,0,0,0,2.083-.863l9.819-9.819a2.96,2.96,0,0,0,0-4.166,3.017,3.017,0,0,0-4.167,0l-7.737,7.736-2.826-2.826a2.946,2.946,0,0,0-4.166,4.165l4.91,4.91A2.926,2.926,0,0,0,147.712,175.916Zm-5.892-7.856a.988.988,0,0,1,1.676-.694l3.521,3.521a.981.981,0,0,0,1.388,0l8.432-8.431a.982.982,0,0,1,1.387,1.389l-9.819,9.819a1,1,0,0,1-1.388,0l-4.91-4.91A.971.971,0,0,1,141.82,168.06Z" transform="translate(-122.672 -140.566)" fill="#007066"/>
  <path id="Path_48906" data-name="Path 48906" d="M54.167,21.616l-1.247-.206a4.846,4.846,0,0,1-3.662-2.952,4.793,4.793,0,0,1,.52-4.64l.736-1.031a.981.981,0,0,0-.1-1.265L43.467,4.579c-.779-.774-1.642.21-2.294.631a4.758,4.758,0,0,1-4.7.491,4.8,4.8,0,0,1-2.891-3.631L33.373.822A.981.981,0,0,0,32.4,0H22.585a.981.981,0,0,0-.968.822L21.41,2.069a4.843,4.843,0,0,1-2.953,3.661,4.789,4.789,0,0,1-4.639-.52l-1.031-.736a.978.978,0,0,0-1.265.1L4.579,11.521a.981.981,0,0,0-.1,1.265l.735,1.03a4.749,4.749,0,0,1,.492,4.7,4.8,4.8,0,0,1-3.632,2.891l-1.247.206A.983.983,0,0,0,0,22.585V32.4a.983.983,0,0,0,.822.969l1.247.206a4.846,4.846,0,0,1,3.662,2.952,4.793,4.793,0,0,1-.52,4.64L4.474,42.2a.981.981,0,0,0,.1,1.265l6.943,6.942a.982.982,0,0,0,1.265.1l1.029-.735a4.776,4.776,0,0,1,4.6-.542,4.837,4.837,0,0,1,3,3.682l.206,1.247a.981.981,0,0,0,.968.822H32.4a.982.982,0,0,0,.969-.82l.208-1.247a4.9,4.9,0,0,1,7.59-3.144l1.029.735a.982.982,0,0,0,1.141-1.6l-1.029-.735c-4.033-3.037-10.318-.22-10.739,4.846H23.418a6.875,6.875,0,0,0-11.1-4.592L6.555,42.667a6.885,6.885,0,0,0-4.591-11.1V23.418a6.875,6.875,0,0,0,4.591-11.1l5.767-5.766.356.254c3.828,2.93,10.018.39,10.669-4.421l.071-.425h8.153A6.871,6.871,0,0,0,42.313,6.808l.354-.252,5.767,5.766a6.885,6.885,0,0,0,4.591,11.1v8.154l-.425.07a6.866,6.866,0,0,0-4.42,10.672l.253.354-2.888,2.888a.982.982,0,0,0,1.388,1.388l3.476-3.476c.772-.779-.209-1.643-.63-2.295a4.888,4.888,0,0,1,3.141-7.594l1.247-.206a.983.983,0,0,0,.822-.969V22.585A.983.983,0,0,0,54.167,21.616Z" fill="#cca079"/>
  <path id="Path_48907" data-name="Path 48907" d="M77.139,79.171a.981.981,0,0,0-1.375.19A18.443,18.443,0,0,0,72,90.589a18.678,18.678,0,0,0,18.657,18.657c10.026.2,18.861-8.636,18.657-18.657C109.446,75.374,91.468,66.4,79.43,75.7a.982.982,0,0,0,1.185,1.566c10.77-8.309,26.855-.284,26.735,13.328a16.693,16.693,0,0,1-33.386,0,16.494,16.494,0,0,1,3.365-10.042A.982.982,0,0,0,77.139,79.171Z" transform="translate(-63.162 -63.094)" fill="#bbb"/>
</svg>
