<svg id="fav-Icon1" xmlns="http://www.w3.org/2000/svg" xmlns:xlink="http://www.w3.org/1999/xlink" width="53.922" height="55.7" viewBox="0 0 53.922 55.7">
  <defs>
    <clipPath id="clip-path">
      <rect id="Rectangle_2954" data-name="Rectangle 2954" width="53.922" height="55.7" fill="none"/>
    </clipPath>
  </defs>
  <g id="Group_14238" data-name="Group 14238" clip-path="url(#clip-path)">
    <path id="Path_48896" data-name="Path 48896" d="M101.122,182.96a1.682,1.682,0,0,0,0,3.364h18.037a1.682,1.682,0,0,0,0-3.364Z" transform="translate(-87.823 -161.587)" fill="#bbb"/>
    <path id="Path_48897" data-name="Path 48897" d="M109.232,264.7h-8.11a1.682,1.682,0,0,0,0,3.364h8.11a1.682,1.682,0,0,0,0-3.364" transform="translate(-87.823 -233.781)" fill="#bbb"/>
    <path id="Path_48898" data-name="Path 48898" d="M21.16,52.335H8.357a5,5,0,0,1-4.991-5.009V13.252A5,5,0,0,1,8.357,8.243h3.475v.422a4.454,4.454,0,0,0,4.45,4.448H32.356a4.454,4.454,0,0,0,4.45-4.448V8.243h3.458a4.945,4.945,0,0,1,4.989,5.009v9.589a1.682,1.682,0,0,0,3.364,0V13.252a8.374,8.374,0,0,0-8.355-8.374H36.8v-.43A4.454,4.454,0,0,0,32.354,0H16.28a4.454,4.454,0,0,0-4.45,4.448v.43H8.357A8.375,8.375,0,0,0,0,13.252V47.326A8.375,8.375,0,0,0,8.357,55.7h12.8a1.682,1.682,0,1,0,0-3.364M15.2,4.448a1.085,1.085,0,0,1,1.084-1.084H32.356A1.085,1.085,0,0,1,33.44,4.448V8.663a1.085,1.085,0,0,1-1.084,1.084H16.282A1.085,1.085,0,0,1,15.2,8.663Z" fill="#cca079"/>
    <path id="Path_48899" data-name="Path 48899" d="M254.964,247.055a6.246,6.246,0,0,0-8.628,0l-14.914,14.914a3.246,3.246,0,0,0-.908,1.761l-.819,4.839a3.259,3.259,0,0,0,3.753,3.751l4.837-.817a3.246,3.246,0,0,0,1.761-.908l14.914-14.914A6.108,6.108,0,0,0,254.964,247.055Zm-17.237,21.132-4.712.94.789-4.779,10.689-10.689,3.871,3.871ZM252.583,253.3l-1.843,1.847-3.869-3.869,1.845-1.845a2.735,2.735,0,0,1,3.867,3.867Z" transform="translate(-202.823 -216.667)" fill="#007066"/>
  </g>
</svg>
