<svg xmlns="http://www.w3.org/2000/svg" width="73.711" height="72.813" viewBox="0 0 73.711 72.813">
  <g id="Link" transform="translate(-9.66 -8.056)">
    <path id="Path_48961" data-name="Path 48961" d="M29.7,48.5H44.363V76.825A42.732,42.732,0,0,1,29.7,48.5Zm-15.992,0H25.894A46.462,46.462,0,0,0,37.931,75.835,32.2,32.2,0,0,1,13.7,48.5ZM37.938,13.086A46.437,46.437,0,0,0,25.7,44.486c0,.078,0,.156.01.239H13.459A32.249,32.249,0,0,1,37.942,13.086Zm6.425-.982V44.725H29.5c0-.083,0-.161,0-.239A42.694,42.694,0,0,1,44.357,12.1Zm1.9-4.048c-.057,0-.109.005-.162.01A36.637,36.637,0,0,0,14.561,26.26a36.257,36.257,0,0,0,0,36.408,36.644,36.644,0,0,0,31.564,18.2,1.017,1.017,0,0,0,.135.006A36.688,36.688,0,0,0,74.092,68.1a1.875,1.875,0,0,0-.146-2.729,1.9,1.9,0,0,0-2.732.285,32.839,32.839,0,0,1-16.84,10.42,46.542,46.542,0,0,0,7.348-10.357,1.9,1.9,0,0,0-3.371-1.73,42.868,42.868,0,0,1-10.2,12.82V48.5h4.17a1.886,1.886,0,1,0,0-3.772h-4.17V11.985a42.772,42.772,0,0,1,11.814,16.3,1.9,1.9,0,1,0,3.51-1.429,46.633,46.633,0,0,0-8.9-13.939A32.724,32.724,0,0,1,76.926,32.849a1.894,1.894,0,1,0,3.538-1.339A36.61,36.61,0,0,0,46.26,8.056Z" fill="#cca079"/>
    <path id="Path_48962" data-name="Path 48962" d="M63.246,35.287a1.19,1.19,0,0,1,.533.147l15.063,8.787-5.8,1.2a1.884,1.884,0,0,0-1.248,2.793l4.158,7.174a.608.608,0,0,1-.234.879l-2.77,1.588a.613.613,0,0,1-.887-.236L67.9,50.464a1.9,1.9,0,0,0-3.057-.318l-3.924,4.375L60.81,37.144A1.835,1.835,0,0,1,61.867,35.7a.062.062,0,0,0,.031-.021.173.173,0,0,0,.057-.03,2.456,2.456,0,0,1,1.291-.361Zm.209-3.771c-3.1,0-6.369,2.452-6.438,5.654l.109,17.456c.012,1.678.486,3.211,1.893,4.006a3.445,3.445,0,0,0,4.08-.867L65.925,54.6,68.779,59.5a4.477,4.477,0,0,0,6.061,1.621l2.773-1.6A4.429,4.429,0,0,0,79.238,53.5l-2.857-4.916,4.2-.863a3.4,3.4,0,0,0,2.789-3.081c.01-1.6-1.082-2.781-2.539-3.628L65.695,32.181v.009a4.461,4.461,0,0,0-2.24-.67Z" fill="#007066"/>
  </g>
</svg>
