<svg xmlns="http://www.w3.org/2000/svg" width="20.387" height="20.387" viewBox="0 0 20.387 20.387">
  <path id="moon-Icon" d="M20.187,12.722a.68.68,0,0,0-.708-.159A9.121,9.121,0,0,1,7.824.908.68.68,0,0,0,6.957.039,10.338,10.338,0,0,0,3.065,2.5a10.48,10.48,0,0,0,14.82,14.82,10.337,10.337,0,0,0,2.462-3.892A.68.68,0,0,0,20.187,12.722Zm-3.262,3.639A9.121,9.121,0,1,1,6.148,1.879,10.542,10.542,0,0,0,9,11.382a10.539,10.539,0,0,0,9.5,2.854A9.077,9.077,0,0,1,16.925,16.361Z" transform="translate(0 0)" fill="#fff"/>
</svg>
