<svg xmlns="http://www.w3.org/2000/svg" xmlns:xlink="http://www.w3.org/1999/xlink" width="66" height="66" viewBox="0 0 66 66">
  <defs>
    <clipPath id="clip-path">
      <rect id="Rectangle_2956" data-name="Rectangle 2956" width="66" height="66" transform="translate(-0.25)" fill="none"/>
    </clipPath>
  </defs>
  <g id="new-serv-Icon2" transform="translate(0.25)">
    <g id="Group_14240" data-name="Group 14240" clip-path="url(#clip-path)">
      <path id="Path_48937" data-name="Path 48937" d="M44.356,192.589a1.282,1.282,0,0,0-1.282,1.282v8.846a6.417,6.417,0,0,1-6.41,6.41H22.823a1.282,1.282,0,0,0-1.282,1.281l0,2.549-3.06-3.06a1.282,1.282,0,0,0-1.176-.77H8.974a6.417,6.417,0,0,1-6.41-6.41V182.974a6.417,6.417,0,0,1,6.41-6.41H21.922a1.282,1.282,0,1,0,0-2.564H8.974A8.984,8.984,0,0,0,0,182.974v19.742a8.984,8.984,0,0,0,8.974,8.974h7.674l5.265,5.265a1.282,1.282,0,0,0,2.188-.906l0-4.36h12.56a8.984,8.984,0,0,0,8.974-8.974v-8.846a1.282,1.282,0,0,0-1.282-1.282" transform="translate(0.227 -151.536)" fill="#007066"/>
      <path id="Path_48938" data-name="Path 48938" d="M217.878,0h-3.245a18.633,18.633,0,1,0,0,37.266h3.245a18.669,18.669,0,0,0,4.729-.606l4.793,4.79a1.282,1.282,0,0,0,2.188-.907V33.126a18.811,18.811,0,0,0,4.9-6.038,18.432,18.432,0,0,0,2.025-8.455A18.654,18.654,0,0,0,217.878,0m9.657,31.477a1.282,1.282,0,0,0-.511,1.024v4.948l-3.137-3.135A1.281,1.281,0,0,0,222.6,34a16.073,16.073,0,0,1-4.726.707h-3.245a16.069,16.069,0,0,1,0-32.138h3.245a16.069,16.069,0,0,1,9.657,28.913" transform="translate(-170.646 0.158)" fill="#cca079"/>
      <path id="Path_48939" data-name="Path 48939" d="M325.3,75.109a5.44,5.44,0,0,0-5.032-5.032,5.386,5.386,0,0,0-4.085,1.446,5.447,5.447,0,0,0-1.725,3.968,1.282,1.282,0,0,0,2.564,0,2.864,2.864,0,0,1,3.069-2.856,2.864,2.864,0,0,1,.424,5.651,2.426,2.426,0,0,0-1.911,2.378v3.08a1.282,1.282,0,1,0,2.564,0V80.766a5.4,5.4,0,0,0,4.132-5.657" transform="translate(-273.922 -60.923)" fill="#bbb"/>
      <path id="Path_48940" data-name="Path 48940" d="M348.988,206.706a1.283,1.283,0,1,0,.376.906,1.292,1.292,0,0,0-.376-.906" transform="translate(-302.114 -179.721)" fill="#bbb"/>
      <path id="Path_48941" data-name="Path 48941" d="M82.332,310H55.282a1.282,1.282,0,0,0,0,2.564h27.05a1.282,1.282,0,0,0,0-2.564" transform="translate(-46.851 -270.101)" fill="#cca079"/>
      <path id="Path_48942" data-name="Path 48942" d="M267.188,366.376a1.281,1.281,0,1,0,.376.906,1.291,1.291,0,0,0-.376-.906" transform="translate(-230.801 -318.922)" fill="#bbb"/>
      <path id="Path_48943" data-name="Path 48943" d="M77.289,366H55.282a1.282,1.282,0,0,0,0,2.564H77.289a1.282,1.282,0,0,0,0-2.564" transform="translate(-46.851 -318.922)" fill="#cca079"/>
      <path id="Path_48944" data-name="Path 48944" d="M74,254H55.282a1.282,1.282,0,0,0,0,2.564H74A1.282,1.282,0,0,0,74,254" transform="translate(-46.851 -221.28)" fill="#cca079"/>
    </g>
  </g>
</svg>
