<svg id="new-serv-Icon5" xmlns="http://www.w3.org/2000/svg" width="55.661" height="66.139" viewBox="0 0 55.661 66.139">
  <path id="Path_48920" data-name="Path 48920" d="M66.128,39.564a4.255,4.255,0,0,0-3.208-1.459H58.63A18.777,18.777,0,0,0,49.2,28.213,15.186,15.186,0,1,0,26.638,11.589a3.628,3.628,0,0,0-3.429,3.628l.05,5.124a3.613,3.613,0,0,0,3.6,3.566h2.073a15.292,15.292,0,0,0,4.573,4.307,18.775,18.775,0,0,0-9.437,9.891h-4.29a4.3,4.3,0,0,0-4.217,4.835l1.752,12.775a1.965,1.965,0,1,0,3.893-.534L19.456,42.407a.327.327,0,0,1,.324-.372H62.92a.327.327,0,0,1,.324.372L61.493,55.182A1.964,1.964,0,0,0,63.172,57.4a1.962,1.962,0,0,0,2.213-1.68l1.752-12.775A4.257,4.257,0,0,0,66.128,39.564ZM51.363,10.132A12.112,12.112,0,0,1,38.112,4.41a11.174,11.174,0,0,1,13.251,5.722M31.189,19.979A11.3,11.3,0,0,1,34.61,6.2a15.907,15.907,0,0,0,7.277,6.744,15.924,15.924,0,0,0,10.6.961A11.365,11.365,0,0,1,41.35,26.488a11.129,11.129,0,0,1-7.132-2.58h5.575a1.965,1.965,0,0,0,0-3.929ZM28.41,38.106a14.733,14.733,0,0,1,25.88,0Z" transform="translate(-13.52)" fill="#cca079"/>
  <path id="Path_48921" data-name="Path 48921" d="M53.7,485.513H1.965a1.965,1.965,0,0,1,0-3.929H53.7a1.965,1.965,0,0,1,0,3.929" transform="translate(0 -419.375)" fill="#007066"/>
  <path id="Path_48922" data-name="Path 48922" d="M192.946,377.741a3.327,3.327,0,1,1-3.338,3.327,3.332,3.332,0,0,1,3.338-3.327" transform="translate(-165.115 -328.946)" fill="#bbb"/>
</svg>
