<svg id="new-serv-Icon1" xmlns="http://www.w3.org/2000/svg" xmlns:xlink="http://www.w3.org/1999/xlink" width="70.123" height="70.123" viewBox="0 0 70.123 70.123">
  <defs>
    <clipPath id="clip-path">
      <rect id="Rectangle_2955" data-name="Rectangle 2955" width="70.123" height="70.123" fill="none"/>
    </clipPath>
  </defs>
  <g id="Group_14239" data-name="Group 14239" clip-path="url(#clip-path)">
    <path id="Path_48923" data-name="Path 48923" d="M212.525,206.24a6.28,6.28,0,1,0-6.276,6.284,6.283,6.283,0,0,0,6.276-6.284m-6.276,4.093a4.088,4.088,0,1,1,4.084-4.093,4.1,4.1,0,0,1-4.084,4.093" transform="translate(-171.183 -171.182)" fill="#cca079"/>
    <path id="Path_48924" data-name="Path 48924" d="M147.078,160.162a17.113,17.113,0,0,0,5.505-2.294,1.1,1.1,0,0,0,.265-1.608,2.428,2.428,0,0,1,3.414-3.414,1.1,1.1,0,0,0,1.608-.265,16.924,16.924,0,0,0,2.287-5.509,1.1,1.1,0,0,0-.947-1.322,2.429,2.429,0,0,1,0-4.831,1.1,1.1,0,0,0,.952-1.328,17.3,17.3,0,0,0-2.283-5.5,1.1,1.1,0,0,0-1.607-.272,2.435,2.435,0,0,1-3.424-3.424,1.1,1.1,0,0,0-.271-1.607,17.289,17.289,0,0,0-5.5-2.282,1.1,1.1,0,0,0-1.328.951,2.428,2.428,0,0,1-4.83,0,1.1,1.1,0,0,0-1.322-.947,16.9,16.9,0,0,0-5.511,2.286,1.1,1.1,0,0,0-.266,1.607,2.429,2.429,0,0,1-3.415,3.415,1.1,1.1,0,0,0-1.607.266,17.126,17.126,0,0,0-2.293,5.505,1.1,1.1,0,0,0,.952,1.328,2.429,2.429,0,0,1,0,4.831,1.094,1.094,0,0,0-.947,1.321,16.916,16.916,0,0,0,2.286,5.511,1.1,1.1,0,0,0,1.608.266,2.428,2.428,0,0,1,3.414,3.413,1.1,1.1,0,0,0,.266,1.608,16.9,16.9,0,0,0,5.511,2.287,1.1,1.1,0,0,0,1.322-.947,2.428,2.428,0,0,1,4.83,0A1.1,1.1,0,0,0,147.078,160.162Zm-3.739-5.318a4.624,4.624,0,0,0-4.294,2.908,14.675,14.675,0,0,1-2.87-1.194,4.62,4.62,0,0,0-6.068-6.066,14.715,14.715,0,0,1-1.193-2.871,4.62,4.62,0,0,0,0-8.583,14.816,14.816,0,0,1,1.2-2.868,4.619,4.619,0,0,0,6.066-6.067,14.719,14.719,0,0,1,2.872-1.193,4.619,4.619,0,0,0,8.582,0A15.02,15.02,0,0,1,150.5,130.1a4.621,4.621,0,0,0,6.069,6.07,15.055,15.055,0,0,1,1.193,2.868,4.619,4.619,0,0,0,0,8.583,14.781,14.781,0,0,1-1.194,2.871,4.619,4.619,0,0,0-6.066,6.066,14.917,14.917,0,0,1-2.868,1.2,4.609,4.609,0,0,0-4.288-2.911" transform="translate(-108.274 -108.271)" fill="#bbb"/>
    <path id="Path_48925" data-name="Path 48925" d="M40.13,117.776H46.5a1.1,1.1,0,1,0,0-2.191H41.225v-5.69a3.086,3.086,0,1,0-2.191,0v6.786A1.1,1.1,0,0,0,40.13,117.776Zm0-11.643a.89.89,0,1,1-.895.895.9.9,0,0,1,.895-.895" transform="translate(-31.712 -88.981)" fill="#cca079"/>
    <path id="Path_48926" data-name="Path 48926" d="M46.5,289.326a1.1,1.1,0,1,0,0-2.191h-6.37a1.1,1.1,0,0,0-1.1,1.1v6.787a3.086,3.086,0,1,0,2.191,0v-5.691Zm-6.37,9.451a.89.89,0,1,1,.895-.885.891.891,0,0,1-.895.885" transform="translate(-31.711 -245.806)" fill="#007066"/>
    <path id="Path_48927" data-name="Path 48927" d="M5.962,226.362h8.826a1.1,1.1,0,1,0,0-2.191H5.96a3.079,3.079,0,1,0,0,2.191m-2.876-.205a.89.89,0,1,1,.895-.886.891.891,0,0,1-.895.886" transform="translate(0 -190.205)" fill="#cca079"/>
    <path id="Path_48928" data-name="Path 48928" d="M377.936,117.776h6.37a1.1,1.1,0,0,0,1.1-1.1v-6.786a3.086,3.086,0,1,0-2.191,0v5.69h-5.274a1.1,1.1,0,0,0,0,2.191Zm6.37-11.643a.89.89,0,1,1-.895.895.9.9,0,0,1,.895-.895" transform="translate(-322.6 -88.981)" fill="#cca079"/>
    <path id="Path_48929" data-name="Path 48929" d="M384.305,287.134h-6.37a1.1,1.1,0,0,0,0,2.191h5.274v5.691a3.086,3.086,0,1,0,2.191,0V288.23a1.1,1.1,0,0,0-1.1-1.1m0,11.643a.89.89,0,1,1,.895-.885.891.891,0,0,1-.895.885" transform="translate(-322.6 -245.806)" fill="#007066"/>
    <path id="Path_48930" data-name="Path 48930" d="M389.637,222.184a3.084,3.084,0,0,0-2.874,1.986h-8.828a1.1,1.1,0,0,0,0,2.191h8.826a3.081,3.081,0,1,0,2.876-4.177m0,3.972a.89.89,0,1,1,.895-.886.891.891,0,0,1-.895.886" transform="translate(-322.6 -190.204)" fill="#cca079"/>
    <path id="Path_48931" data-name="Path 48931" d="M116.679,47.594a1.1,1.1,0,0,0,1.1-1.1v-6.37a1.1,1.1,0,0,0-1.1-1.1h-6.787a3.086,3.086,0,1,0,0,2.191h5.691V46.5a1.1,1.1,0,0,0,1.1,1.1m-9.662-6.571a.895.895,0,1,1,.895-.895.891.891,0,0,1-.895.895" transform="translate(-88.98 -31.711)" fill="#cca079"/>
    <path id="Path_48932" data-name="Path 48932" d="M225.266,15.883a1.1,1.1,0,0,0,1.1-1.1V5.959a3.078,3.078,0,1,0-2.191,0v8.825A1.1,1.1,0,0,0,225.266,15.883Zm-.005-13.692a.895.895,0,1,1-.885.895A.9.9,0,0,1,225.261,2.191Z" transform="translate(-190.205 0)" fill="#cca079"/>
    <path id="Path_48933" data-name="Path 48933" d="M300.962,40.129a3.075,3.075,0,0,0-5.952-1.1h-6.787a1.1,1.1,0,0,0-1.1,1.1V46.5a1.1,1.1,0,1,0,2.191,0V41.225h5.691a3.075,3.075,0,0,0,5.952-1.1m-3.086.895a.895.895,0,1,1,.895-.895.891.891,0,0,1-.895.895" transform="translate(-245.8 -31.711)" fill="#cca079"/>
    <path id="Path_48934" data-name="Path 48934" d="M288.231,385.4h6.786a3.086,3.086,0,1,0,0-2.191h-5.69v-5.274a1.1,1.1,0,0,0-2.191,0v6.37a1.1,1.1,0,0,0,1.1,1.1m9.652-1.99a.895.895,0,1,1-.885.895.9.9,0,0,1,.885-.895" transform="translate(-245.806 -322.6)" fill="#007066"/>
    <path id="Path_48935" data-name="Path 48935" d="M225.266,376.839a1.1,1.1,0,0,0-1.1,1.1v8.825a3.083,3.083,0,1,0,2.191,0v-8.828a1.1,1.1,0,0,0-1.1-1.1m-.005,13.692a.895.895,0,1,1,.895-.895A.891.891,0,0,1,225.261,390.531Z" transform="translate(-190.205 -322.599)" fill="#007066"/>
    <path id="Path_48936" data-name="Path 48936" d="M107.017,387.391a3.084,3.084,0,0,0,2.875-1.99h6.787a1.1,1.1,0,0,0,1.1-1.1v-6.37a1.1,1.1,0,0,0-2.191,0v5.274h-5.691a3.078,3.078,0,1,0-2.875,4.181m0-3.98a.895.895,0,1,1-.885.895.9.9,0,0,1,.885-.895" transform="translate(-88.98 -322.6)" fill="#007066"/>
  </g>
</svg>
