<svg xmlns="http://www.w3.org/2000/svg" width="41" height="41" viewBox="0 0 41 41">
  <g id="noti-vacation" transform="translate(0.5 0.5)">
    <rect id="BG" width="40" height="40" rx="20" fill="#fff" stroke="#007066" stroke-width="1"/>
    <path id="Icon_awesome-briefcase-medical" data-name="Icon awesome-briefcase-medical" d="M17.4,5.85h-3V4.05a1.8,1.8,0,0,0-1.8-1.8h-6a1.8,1.8,0,0,0-1.8,1.8v1.8h-3A1.8,1.8,0,0,0,0,7.65v10.8a1.8,1.8,0,0,0,1.8,1.8H17.4a1.8,1.8,0,0,0,1.8-1.8V7.65A1.8,1.8,0,0,0,17.4,5.85ZM7.2,4.65H12v1.2H7.2Zm6,9.3a.3.3,0,0,1-.3.3H10.8v2.1a.3.3,0,0,1-.3.3H8.7a.3.3,0,0,1-.3-.3v-2.1H6.3a.3.3,0,0,1-.3-.3v-1.8a.3.3,0,0,1,.3-.3H8.4V9.75a.3.3,0,0,1,.3-.3h1.8a.3.3,0,0,1,.3.3v2.1h2.1a.3.3,0,0,1,.3.3Z" transform="translate(10.05 8.375)" fill="#007066"/>
  </g>
</svg>
