<svg xmlns="http://www.w3.org/2000/svg" width="168.529" height="168.054" viewBox="0 0 168.529 168.054">
  <g id="personal-Pattern" transform="translate(0.098 0.061)">
    <path id="Path_48858" data-name="Path 48858" d="M261.514,64.814a81.667,81.667,0,0,1,13.58,40.889" transform="translate(-111.545 -27.284)" fill="none" stroke="#dfc3a6" stroke-linecap="round" stroke-linejoin="round" stroke-width="1.845"/>
    <path id="Path_48859" data-name="Path 48859" d="M185.781,21.517A81.654,81.654,0,0,1,221.637,45.4" transform="translate(-79.204 -8.795)" fill="none" stroke="#dad8d8" stroke-linecap="round" stroke-linejoin="round" stroke-width="2"/>
    <path id="Path_48860" data-name="Path 48860" d="M51.539,241.514a78.488,78.488,0,0,1-9.009-8.582" transform="translate(-18.031 -99.077)" fill="none" stroke="#cea277" stroke-linecap="round" stroke-linejoin="round" stroke-width="1.845"/>
    <path id="Path_48861" data-name="Path 48861" d="M17.96,193.255A76.4,76.4,0,0,1,10.474,173.2" transform="translate(-4.342 -73.571)" fill="none" stroke="#dfc3a6" stroke-linecap="round" stroke-linejoin="round" stroke-width="1.845"/>
    <path id="Path_48862" data-name="Path 48862" d="M106.52,17.121a74.762,74.762,0,0,1,38.458-1.113" transform="translate(-45.357 -5.596)" fill="none" stroke="#dad8d8" stroke-linecap="round" stroke-linejoin="round" stroke-width="2"/>
    <path id="Path_48863" data-name="Path 48863" d="M71.155,20.995a79.149,79.149,0,0,1,23.78-9.91" transform="translate(-30.255 -4.34)" fill="none" stroke="#cea277" stroke-linecap="round" stroke-linejoin="round" stroke-width="1.845"/>
    <path id="Path_48864" data-name="Path 48864" d="M61.5,23.1l3.274-2.172,1.652-1.061c.562-.334,1.141-.637,1.713-.953" transform="translate(-26.133 -7.682)" fill="none" stroke="#bbbaba" stroke-linecap="round" stroke-linejoin="round" stroke-width="2"/>
    <path id="Path_48865" data-name="Path 48865" d="M25.667,55.878c.563-.832,1.117-1.67,1.7-2.484l1.878-2.357c1.283-1.549,2.51-3.138,3.9-4.6" transform="translate(-10.83 -19.438)" fill="none" stroke="#cea277" stroke-linecap="round" stroke-linejoin="round" stroke-width="1.845"/>
    <path id="Path_48866" data-name="Path 48866" d="M35.062,58.074q1.507-1.893,3.058-3.752" transform="translate(-14.842 -22.804)" fill="none" stroke="#cea277" stroke-linecap="round" stroke-linejoin="round" stroke-width="1.845"/>
    <path id="Path_48867" data-name="Path 48867" d="M24.423,110.205q.73-2.632,1.524-5.246" transform="translate(-10.298 -44.428)" fill="none" stroke="#dfc3a6" stroke-linecap="round" stroke-linejoin="round" stroke-width="1.845"/>
    <path id="Path_48868" data-name="Path 48868" d="M8.984,89.809q.936-2.4,1.934-4.77" transform="translate(-3.705 -35.921)" fill="none" stroke="#cea277" stroke-linecap="round" stroke-linejoin="round" stroke-width="1.845"/>
    <path id="Path_48869" data-name="Path 48869" d="M28.611,159.3c-.272-1.327-.343-2.685-.506-4.028" transform="translate(-11.871 -65.914)" fill="none" stroke="#cea277" stroke-linecap="round" stroke-linejoin="round" stroke-width="1.845"/>
    <path id="Path_48870" data-name="Path 48870" d="M115,22.7a71.633,71.633,0,0,1,31.811-.2" transform="translate(-48.978 -8.494)" fill="none" stroke="#dfc3a6" stroke-linecap="round" stroke-linejoin="round" stroke-width="1.845"/>
    <path id="Path_48871" data-name="Path 48871" d="M127.982,8.084c1.632-.168,3.265-.35,4.9-.451q2.461-.058,4.927-.06c.821.005,1.643-.007,2.462.026l2.459.191c1.639.139,3.279.289,4.911.477q2.434.412,4.863.883l2.422.486,2.384.657q2.381.676,4.743,1.411c1.552.549,3.079,1.178,4.609,1.793" transform="translate(-54.522 -2.84)" fill="none" stroke="#5f8e88" stroke-linecap="round" stroke-linejoin="round" stroke-width="2.461"/>
    <path id="Path_48872" data-name="Path 48872" d="M155.3.922a81.948,81.948,0,0,1,20.82,4.461" transform="translate(-66.188)" fill="none" stroke="#cea277" stroke-linecap="round" stroke-linejoin="round" stroke-width="1.845"/>
    <path id="Path_48873" data-name="Path 48873" d="M51.35,248.041a86.456,86.456,0,0,1-25.071-17.085A85.123,85.123,0,0,1,8.66,206.078" transform="translate(-3.567 -87.61)" fill="none" stroke="#eeedec" stroke-linecap="round" stroke-linejoin="round" stroke-width="2"/>
    <path id="Path_48874" data-name="Path 48874" d="M161.972,257.182a70.753,70.753,0,0,1-11.709,6.243l-2.658,1.087c-.918.367-1.859.758-2.861,1.048-1.989.624-4.082,1.273-6.254,1.858-2.2.481-4.473.941-6.781,1.365-2.323.323-4.695.547-7.057.763-2.366.144-4.742.115-7.069.118-2.325-.03-4.609-.309-6.811-.5l-1.636-.169-1.591-.272-3.069-.568c-.994-.194-1.962-.38-2.891-.584l-2.655-.742c-1.7-.489-3.249-.953-4.613-1.385l-3.451-1.352-2.982-1.228" transform="translate(-37.398 -109.433)" fill="none" stroke="#eeedec" stroke-linecap="round" stroke-linejoin="round" stroke-width="2"/>
    <path id="Path_48875" data-name="Path 48875" d="M260.226,76.069A77.358,77.358,0,0,1,270.532,113.2" transform="translate(-110.995 -32.091)" fill="none" stroke="#dad8d8" stroke-linecap="round" stroke-linejoin="round" stroke-width="2"/>
    <path id="Path_48876" data-name="Path 48876" d="M280.271,160.036a79.818,79.818,0,0,1-5.538,21.354" transform="translate(-117.19 -67.948)" fill="none" stroke="#bbbaba" stroke-linecap="round" stroke-linejoin="round" stroke-width="0.615"/>
    <path id="Path_48877" data-name="Path 48877" d="M174.38,278.787a83.809,83.809,0,0,1-9.811,3.7c-1.674.5-3.344,1.028-5.037,1.443q-2.556.562-5.129,1.057c-.858.161-1.713.335-2.575.468l-2.6.3q-2.6.286-5.213.5c-1.744.06-3.492.08-5.24.085l-2.62-.012c-.873-.014-1.745-.109-2.616-.168" transform="translate(-56.895 -118.659)" fill="none" stroke="#dad8d8" stroke-linecap="round" stroke-linejoin="round" stroke-width="0.615"/>
    <path id="Path_48878" data-name="Path 48878" d="M264.8,158.748a51.364,51.364,0,0,1-.834,5.468,52.624,52.624,0,0,1-1.195,5.406q-.748,2.669-1.569,5.318c-.615,1.741-1.323,3.451-2.016,5.164-.359.851-.691,1.716-1.087,2.549l-1.259,2.463c-.87,1.624-1.681,3.294-2.66,4.845a78.387,78.387,0,0,1-6.377,8.964" transform="translate(-105.692 -67.398)" fill="none" stroke="#dfc3a6" stroke-linecap="round" stroke-linejoin="round" stroke-width="1.845"/>
    <path id="Path_48879" data-name="Path 48879" d="M289.119,113.815q.425,2.106.8,4.221.266,2.131.484,4.27c.135,1.428.3,2.852.366,4.282q.055,2.149.065,4.3" transform="translate(-123.334 -48.21)" fill="none" stroke="#dfc3a6" stroke-linecap="round" stroke-linejoin="round" stroke-width="1.845"/>
    <path id="Path_48880" data-name="Path 48880" d="M224.99,30.168q1.774,1.214,3.52,2.465,1.675,1.342,3.323,2.724c1.092.929,2.2,1.835,3.247,2.814q1.538,1.5,3.045,3.038" transform="translate(-95.948 -12.489)" fill="none" stroke="#9bb4b1" stroke-linecap="round" stroke-linejoin="round" stroke-width="2.461"/>
    <path id="Path_48881" data-name="Path 48881" d="M45.451,223.248c-1.222-1.209-2.435-2.43-3.621-3.671q-1.666-1.972-3.287-3.988a43.308,43.308,0,0,1-3.021-4.185l-1.42-2.16a23.122,23.122,0,0,1-1.329-2.211" transform="translate(-13.864 -88.018)" fill="none" stroke="#dfc3a6" stroke-linecap="round" stroke-linejoin="round" stroke-width="1.845"/>
    <path id="Path_48882" data-name="Path 48882" d="M43.822,54.461c.871-1.293,1.915-2.463,2.884-3.686a43.692,43.692,0,0,1,3.079-3.531q1.647-1.678,3.331-3.321a20.883,20.883,0,0,1,1.755-1.565l1.819-1.5a70.047,70.047,0,0,1,7.675-5.453c1.323-.845,2.739-1.529,4.117-2.279a39.667,39.667,0,0,1,4.237-2.037" transform="translate(-18.582 -12.884)" fill="none" stroke="#dfc3a6" stroke-linecap="round" stroke-linejoin="round" stroke-width="1.845"/>
    <path id="Path_48883" data-name="Path 48883" d="M103.25,273.195A84.774,84.774,0,0,1,78.7,268.36q-2.932-1.133-5.829-2.359c-1.9-.862-3.741-1.866-5.592-2.838-.913-.506-1.86-.963-2.732-1.529l-2.618-1.694L59.339,258.2l-1.282-.886-1.223-.967" transform="translate(-24.139 -109.079)" fill="none" stroke="#dfc3a6" stroke-linecap="round" stroke-linejoin="round" stroke-width="1.845"/>
    <path id="Path_48884" data-name="Path 48884" d="M261.67,138.527a69.486,69.486,0,0,1-4.022,26.348" transform="translate(-109.894 -58.763)" fill="none" stroke="#9bb4b1" stroke-linecap="round" stroke-linejoin="round" stroke-width="2.461"/>
    <path id="Path_48886" data-name="Path 48886" d="M197.815,224.307a72.251,72.251,0,0,1-26.66,20.441,74.767,74.767,0,0,1-32.928,6.361" transform="translate(-58.897 -95.394)" fill="none" stroke="#dad8d8" stroke-linecap="round" stroke-linejoin="round" stroke-width="2"/>
    <path id="Path_48887" data-name="Path 48887" d="M99.934,258.44a73.1,73.1,0,0,1-36.578-15.672" transform="translate(-26.924 -103.278)" fill="none" stroke="#5f8e88" stroke-linecap="round" stroke-linejoin="round" stroke-width="2.461"/>
    <path id="Path_48888" data-name="Path 48888" d="M8.565,167.693A82.183,82.183,0,0,1,1.84,116.174" transform="translate(0 -49.217)" fill="none" stroke="#dad8d8" stroke-linecap="round" stroke-linejoin="round" stroke-width="0.615"/>
    <path id="Path_48889" data-name="Path 48889" d="M251.458,223.888a82.613,82.613,0,0,1-11.614,13.47" transform="translate(-102.291 -95.215)" fill="none" stroke="#bbbaba" stroke-linecap="round" stroke-linejoin="round" stroke-width="2"/>
    <path id="Path_48890" data-name="Path 48890" d="M255.372,214.911c-.015.03-.3.567-.8,1.488-.47.94-1.3,2.148-2.252,3.631-.975,1.463-2.073,3.2-3.384,4.945-1.353,1.719-2.826,3.531-4.329,5.31-.728.908-1.569,1.728-2.371,2.554l-2.393,2.395c-.788.764-1.532,1.518-2.283,2.186l-2.177,1.822c-1.356,1.119-2.5,2.032-3.305,2.667s-1.286.966-1.286.966" transform="translate(-98.426 -91.382)" fill="none" stroke="#e0dfdf" stroke-linecap="round" stroke-linejoin="round" stroke-width="2"/>
    <path id="Path_48891" data-name="Path 48891" d="M7.3,111.624A79.193,79.193,0,0,1,17.642,75.6" transform="translate(-2.987 -31.89)" fill="none" stroke="#bbbaba" stroke-linecap="round" stroke-linejoin="round" stroke-width="0.615"/>
    <path id="Path_48892" data-name="Path 48892" d="M19.934,165.482c-.657-1.571-1.3-3.149-1.915-4.737q-.779-2.427-1.5-4.876a44.856,44.856,0,0,1-1.195-4.954l-.493-2.5a23.933,23.933,0,0,1-.395-2.516q-.292-2.532-.523-5.072c-.162-1.691-.108-3.4-.142-5.1l0-2.551c.009-.85.109-1.7.168-2.547.142-1.7.294-3.4.484-5.087" transform="translate(-5.75 -53.218)" fill="none" stroke="#bbbaba" stroke-linecap="round" stroke-linejoin="round" stroke-width="2"/>
    <path id="Path_48893" data-name="Path 48893" d="M14.143,114.879a73.927,73.927,0,0,1,6.4-25.068" transform="translate(-5.908 -37.959)" fill="none" stroke="#bbbaba" stroke-linecap="round" stroke-linejoin="round" stroke-width="2"/>
    <path id="Path_48894" data-name="Path 48894" d="M32.5,193.5q-1.091-1.988-2.142-4c-.345-.673-.708-1.338-1.029-2.022l-.881-2.088c-.576-1.4-1.16-2.793-1.688-4.206q-.686-2.156-1.33-4.329" transform="translate(-10.728 -75.13)" fill="none" stroke="#bbbaba" stroke-linecap="round" stroke-linejoin="round" stroke-width="0.615"/>
    <path id="Path_48895" data-name="Path 48895" d="M46.078,45.239A74.153,74.153,0,0,1,68.489,27.875" transform="translate(-19.546 -11.51)" fill="none" stroke="#dad8d8" stroke-linecap="round" stroke-linejoin="round" stroke-width="2"/>
  </g>
</svg>
