<svg id="sun-Icon" xmlns="http://www.w3.org/2000/svg" width="24.79" height="24.79" viewBox="0 0 24.79 24.79">
  <g id="Group_14236" data-name="Group 14236">
    <path id="Path_48579" data-name="Path 48579" d="M17.835,27.211a.918.918,0,0,0-.918.918v2.753a.918.918,0,0,0,1.835,0V28.129A.918.918,0,0,0,17.835,27.211Z" transform="translate(-5.44 -7.009)" fill="#007066"/>
    <path id="Path_48580" data-name="Path 48580" d="M17.835,3.375a.918.918,0,0,0-.918.918V7.046a.918.918,0,0,0,1.835,0V4.293A.918.918,0,0,0,17.835,3.375Z" transform="translate(-5.44 -3.375)" fill="#007066"/>
    <path id="Path_48581" data-name="Path 48581" d="M7.964,17.835a.918.918,0,0,0-.918-.918H4.293a.918.918,0,0,0,0,1.835H7.046A.918.918,0,0,0,7.964,17.835Z" transform="translate(-3.375 -5.44)" fill="#007066"/>
    <path id="Path_48582" data-name="Path 48582" d="M30.882,16.917H28.129a.918.918,0,1,0,0,1.835h2.753a.918.918,0,0,0,0-1.835Z" transform="translate(-7.009 -5.44)" fill="#007066"/>
    <path id="Path_48583" data-name="Path 48583" d="M10.207,24.195a.915.915,0,0,0-.65.268L7.609,26.411a.919.919,0,0,0,1.3,1.3l1.949-1.949a.918.918,0,0,0-.65-1.567Z" transform="translate(-3.98 -6.55)" fill="#007066"/>
    <path id="Path_48584" data-name="Path 48584" d="M25.112,11.125a.915.915,0,0,0,.65-.268L27.71,8.908a.919.919,0,0,0-1.3-1.3L24.463,9.557a.918.918,0,0,0,.65,1.567Z" transform="translate(-6.55 -3.98)" fill="#007066"/>
    <path id="Path_48585" data-name="Path 48585" d="M8.908,7.609a.919.919,0,0,0-1.3,1.3l1.949,1.949a.919.919,0,0,0,1.3-1.3Z" transform="translate(-3.98 -3.98)" fill="#007066"/>
    <path id="Path_48586" data-name="Path 48586" d="M25.762,24.463a.919.919,0,1,0-1.3,1.3l1.949,1.949a.919.919,0,0,0,1.3-1.3Z" transform="translate(-6.55 -6.55)" fill="#007066"/>
  </g>
  <path id="Path_48587" data-name="Path 48587" d="M16.971,11.25a5.721,5.721,0,1,0,5.721,5.721,5.73,5.73,0,0,0-5.721-5.721Z" transform="translate(-4.576 -4.576)" fill="#007066"/>
</svg>
