<svg id="translate-2" xmlns="http://www.w3.org/2000/svg" width="54.628" height="45.428" viewBox="0 0 54.628 45.428">
  <path id="Path_45791" data-name="Path 45791" d="M319.82,191.379a1,1,0,0,1,.033-.189l3.031-10.488a1.086,1.086,0,0,1,.595-.662,2.568,2.568,0,0,1,2.135,0,1.087,1.087,0,0,1,.595.662l3.047,10.488a1.017,1.017,0,0,1,.033.189.925.925,0,0,1-.53.774,2.067,2.067,0,0,1-1.1.326q-.7,0-.831-.5l-.554-2.149h-3.439l-.554,2.149q-.131.5-.831.5a2.067,2.067,0,0,1-1.1-.326.925.925,0,0,1-.529-.774m3.536-3.61h2.379l-1.19-4.608Z" transform="translate(-285.696 -159.566)" fill="#cca079"/>
  <path id="Path_45792" data-name="Path 45792" d="M46.87,13.827H35.976V8.186A7.99,7.99,0,0,0,28.217,0H7.758A7.99,7.99,0,0,0,0,8.186V17.8A8,8,0,0,0,7.583,25.98a26.678,26.678,0,0,1-.3,3.106,2.217,2.217,0,0,0,.721,2.01,1.966,1.966,0,0,0,2.018.374,9.624,9.624,0,0,0,5.593-5.489h7.689v5.642a7.99,7.99,0,0,0,7.758,8.186H39.01A9.626,9.626,0,0,0,44.6,45.3a1.967,1.967,0,0,0,2.017-.374,2.216,2.216,0,0,0,.721-2.01,26.669,26.669,0,0,1-.3-3.106,8,8,0,0,0,7.583-8.184v-9.61a7.99,7.99,0,0,0-7.758-8.186m5.624,17.8a5.792,5.792,0,0,1-5.624,5.935h-.89a1.1,1.1,0,0,0-1.066,1.084,25.423,25.423,0,0,0,.3,4.5,7.387,7.387,0,0,1-4.456-4.81,1.073,1.073,0,0,0-1.011-.769h-8.68a5.793,5.793,0,0,1-5.624-5.935V24.857h0V22.013a6.2,6.2,0,0,1,.706-2.881,1.159,1.159,0,0,0-.413-1.531,1.038,1.038,0,0,0-1.451.436,8.55,8.55,0,0,0-.975,3.976v1.717H14.882a1.074,1.074,0,0,0-1.012.769,7.385,7.385,0,0,1-4.456,4.81,25.494,25.494,0,0,0,.3-4.5,1.1,1.1,0,0,0-1.067-1.084H7.758A5.792,5.792,0,0,1,2.134,17.8V8.186A5.792,5.792,0,0,1,7.758,2.252H28.217a5.792,5.792,0,0,1,5.624,5.934v5.642H32.329a1.127,1.127,0,0,0,0,2.252H46.87a5.792,5.792,0,0,1,5.624,5.934Z" fill="#cca079"/>
  <path id="Path_45793" data-name="Path 45793" d="M112.65,42.581a1.127,1.127,0,0,0,0-2.251h-4.07V38.645a1.069,1.069,0,1,0-2.134,0v1.685h-4.07a1.127,1.127,0,0,0,0,2.251h7.072a11.224,11.224,0,0,1-1.93,4.154,12.452,12.452,0,0,1-1.3-2.244,1.044,1.044,0,0,0-1.418-.544,1.153,1.153,0,0,0-.516,1.5,14.9,14.9,0,0,0,1.79,3,19.669,19.669,0,0,1-4.062,3.131A1.159,1.159,0,0,0,101.6,53.1a1.057,1.057,0,0,0,.931.575,1.016,1.016,0,0,0,.521-.144,21.832,21.832,0,0,0,4.461-3.434,21.7,21.7,0,0,0,4.451,3.434,1.019,1.019,0,0,0,.521.144,1.058,1.058,0,0,0,.931-.575,1.159,1.159,0,0,0-.408-1.532,19.558,19.558,0,0,1-4.054-3.13,13.388,13.388,0,0,0,2.66-5.861Z" transform="translate(-90.5 -33.295)" fill="#cca079"/>
  <path id="Path_45794" data-name="Path 45794" d="M253.79,129.641h0a1.127,1.127,0,1,0,1.069,1.126,1.1,1.1,0,0,0-1.069-1.126" transform="translate(-225.758 -115.047)" fill="#cca079"/>
</svg>
