<svg xmlns="http://www.w3.org/2000/svg" width="18.195" height="14.778" viewBox="0 0 18.195 14.778">
  <path id="tw-Icon" d="M16.325,7.064c.012.162.012.323.012.485a10.537,10.537,0,0,1-10.61,10.61A10.538,10.538,0,0,1,0,16.485a7.714,7.714,0,0,0,.9.046,7.468,7.468,0,0,0,4.63-1.593,3.736,3.736,0,0,1-3.487-2.586,4.7,4.7,0,0,0,.7.058,3.944,3.944,0,0,0,.981-.127,3.73,3.73,0,0,1-2.99-3.66V8.576a3.756,3.756,0,0,0,1.686.473A3.735,3.735,0,0,1,1.27,4.062a10.6,10.6,0,0,0,7.689,3.9,4.21,4.21,0,0,1-.092-.854,3.733,3.733,0,0,1,6.454-2.552,7.342,7.342,0,0,0,2.367-.9,3.719,3.719,0,0,1-1.639,2.055A7.476,7.476,0,0,0,18.2,5.136a8.016,8.016,0,0,1-1.87,1.928Z" transform="translate(0 -3.381)" fill="#1da1f2"/>
</svg>
