<svg id="vote-Icon" xmlns="http://www.w3.org/2000/svg" width="129.215" height="130.427" viewBox="0 0 129.215 130.427">
  <path id="Path_48952" data-name="Path 48952" d="M200.1,68.543A25.375,25.375,0,0,0,175.065,45.93a25.147,25.147,0,0,0-18.575,42.2,19.52,19.52,0,0,1,4.644,12.114,3.731,3.731,0,0,0-2.221,3.432v10.9a3.833,3.833,0,0,0,3.836,3.836h2.221a10.492,10.492,0,0,0,20.594,0h2.221a3.833,3.833,0,0,0,3.836-3.836v-10.9a3.732,3.732,0,0,0-2.221-3.432,18.955,18.955,0,0,1,4.644-12.316A24.763,24.763,0,0,0,200.1,68.543Zm-37.351,35.736h24.43v3.23h-24.43Zm12.316,18.777a6.3,6.3,0,0,1-6.057-4.442h12.114a6.3,6.3,0,0,1-6.057,4.442m-12.316-11.508h24.43v3.23h-24.43Zm22.209-11.508H164.97A22.775,22.775,0,0,0,159.317,85.5a21.143,21.143,0,0,1,15.546-35.534,21.267,21.267,0,0,1,21.2,18.978,21.626,21.626,0,0,1-5.25,16.556,22.325,22.325,0,0,0-5.855,14.537" transform="translate(-109.65 -33.614)" fill="#fff"/>
  <path id="Path_48953" data-name="Path 48953" d="M203.63,95.744a6.461,6.461,0,1,0-6.461-6.461v1.01L190.3,93.726a6.572,6.572,0,0,0-4.644-2.019,6.461,6.461,0,1,0,0,12.921,7.352,7.352,0,0,0,4.644-1.817l6.865,3.432v1.01a6.461,6.461,0,1,0,6.461-6.461,7.354,7.354,0,0,0-4.644,1.817l-6.865-3.432a2.8,2.8,0,0,0,0-1.817l6.865-3.432a6.4,6.4,0,0,0,4.644,1.817m0,9.086a2.332,2.332,0,0,1,2.423,2.423,2.423,2.423,0,1,1-4.845,0,2.332,2.332,0,0,1,2.423-2.423m-17.969-4.24a2.423,2.423,0,1,1,2.423-2.423,2.333,2.333,0,0,1-2.423,2.423M203.63,86.861a2.423,2.423,0,1,1-2.423,2.423,2.333,2.333,0,0,1,2.423-2.423" transform="translate(-131.148 -60.614)" fill="#fff"/>
  <path id="Path_48954" data-name="Path 48954" d="M383.685,90.658a2,2,0,1,0-3.028,2.625,23.377,23.377,0,0,1,.606,29.074V116.7a2.019,2.019,0,0,0-4.038,0v10.7a2.023,2.023,0,0,0,2.019,2.019h10.7a2.019,2.019,0,1,0,0-4.038h-5.855A27.653,27.653,0,0,0,383.685,90.658Z" transform="translate(-276.072 -65.824)" fill="#fff"/>
  <path id="Path_48955" data-name="Path 48955" d="M64.753,127.954a1.907,1.907,0,0,0,2.019,2.019h10.7a2.023,2.023,0,0,0,2.019-2.019v-10.7a2.019,2.019,0,0,0-4.038,0v5.653a23.74,23.74,0,0,1-4.846-12.114,22.238,22.238,0,0,1,5.451-16.758,2,2,0,0,0-3.028-2.625A26.893,26.893,0,0,0,66.772,111.2a27.174,27.174,0,0,0,6.057,14.941H66.974A1.824,1.824,0,0,0,64.753,127.954Z" transform="translate(-47.39 -66.375)" fill="#fff"/>
  <path id="Path_48956" data-name="Path 48956" d="M244.979,5.451V2.019a2.019,2.019,0,0,0-4.038,0V5.451a2.019,2.019,0,0,0,4.038,0" transform="translate(-176.333)" fill="#fff"/>
  <path id="Path_48957" data-name="Path 48957" d="M160.961,36.726a1.952,1.952,0,0,0,0-2.827l-2.423-2.423a2,2,0,1,0-2.827,2.827l2.423,2.423a1.952,1.952,0,0,0,2.827,0" transform="translate(-113.515 -22.593)" fill="#fff"/>
  <path id="Path_48958" data-name="Path 48958" d="M323.6,31.476a1.951,1.951,0,0,0-2.827,0L318.347,33.9a2,2,0,0,0,2.827,2.827L323.6,34.3a1.952,1.952,0,0,0,0-2.827" transform="translate(-232.54 -22.592)" fill="#fff"/>
  <path id="Path_48959" data-name="Path 48959" d="M14.537,297.617A15.5,15.5,0,0,0,0,313.163v12.518A1.907,1.907,0,0,0,2.019,327.7H47.648a1.907,1.907,0,0,0,2.019-2.019V313.163a15.644,15.644,0,0,0-14.537-15.546,7.651,7.651,0,0,1-2.019-2.625,11.922,11.922,0,0,0,3.432-8.278v-5.249a6.741,6.741,0,0,0-7.874-10.9,11.814,11.814,0,0,0-4.442-1.01,11.719,11.719,0,0,0-11.71,11.71,15.757,15.757,0,0,0,.807,4.442v1.01a11.922,11.922,0,0,0,3.432,8.278A12.793,12.793,0,0,1,14.537,297.617Zm31.092,15.546v10.5H39.37v-8.076a2.019,2.019,0,0,0-4.038,0v8.076h-21v-8.076a1.907,1.907,0,0,0-2.019-2.019,1.907,1.907,0,0,0-2.019,2.019v8.076H4.038v-10.5a11.467,11.467,0,0,1,10.5-11.508l8.883,8.883a1.952,1.952,0,0,0,2.827,0l8.883-8.883a11.467,11.467,0,0,1,10.5,11.508M32.506,286.714a7.672,7.672,0,0,1-15.344,0V285.3c-.2-3.23,3.836-6.057,7.268-4.24,4.442,2.423,7.268,2.221,7.47,2.221h.606Zm-8.48-13.124a7.007,7.007,0,0,1,3.836,1.01,2.21,2.21,0,0,0,2.221-.2,2.679,2.679,0,0,1,2.019-.808,2.76,2.76,0,0,1,2.827,2.827,2.815,2.815,0,0,1-3.028,2.827,12.341,12.341,0,0,1-5.451-1.818,8.615,8.615,0,0,0-9.288.4A7.309,7.309,0,0,1,24.026,273.591Zm.808,24.834a10.946,10.946,0,0,0,5.048-1.211,8.965,8.965,0,0,0,1.615,2.221L24.834,306.1l-6.663-6.46a8.964,8.964,0,0,0,1.615-2.221,14.059,14.059,0,0,0,5.048,1.01" transform="translate(0 -197.273)" fill="#fff"/>
  <path id="Path_48960" data-name="Path 48960" d="M346.325,313.714a15.5,15.5,0,0,0-14.537-15.546,10.706,10.706,0,0,1-2.019-2.423,18.911,18.911,0,0,0,4.845-12.316,13.123,13.123,0,0,0-26.247,0,18.91,18.91,0,0,0,4.846,12.316,7.623,7.623,0,0,1-2.019,2.423,15.788,15.788,0,0,0-14.537,15.546v12.518a1.908,1.908,0,0,0,2.019,2.019h45.629a1.908,1.908,0,0,0,2.019-2.019Zm-24.834-13.931a8.836,8.836,0,0,0,5.048-1.615,14.221,14.221,0,0,0,1.413,1.817l-6.663,6.663-6.663-6.663c.4-.606,1.01-1.211,1.413-1.817A11.3,11.3,0,0,0,321.492,299.783Zm0-25.641a9.047,9.047,0,0,1,9.085,9.085c0,5.451-4.442,12.518-9.085,12.518s-9.085-7.066-9.085-12.518a9.048,9.048,0,0,1,9.085-9.085m20.8,50.071h-6.259v-8.076a2.019,2.019,0,0,0-4.038,0v8.076h-21v-8.076a2.019,2.019,0,0,0-4.038,0v8.076H300.7v-10.5a11.467,11.467,0,0,1,10.5-11.508l8.884,8.884a1.952,1.952,0,0,0,2.827,0l8.883-8.884a11.761,11.761,0,0,1,10.5,11.508Z" transform="translate(-217.11 -197.824)" fill="#fff"/>
</svg>
