<svg id="weather-Icon" xmlns="http://www.w3.org/2000/svg" width="51.495" height="44.459" viewBox="0 0 51.495 44.459">
  <path id="Path_308" data-name="Path 308" d="M171.252,41.029a1.509,1.509,0,0,0,1.509-1.509V36.483a1.509,1.509,0,1,0-3.017,0v3.038A1.509,1.509,0,0,0,171.252,41.029Z" transform="translate(-152.671 -34.974)" fill="#fff"/>
  <path id="Path_309" data-name="Path 309" d="M4.894,134.692l-2.631-1.519a1.509,1.509,0,1,0-1.509,2.613L3.385,137.3a1.509,1.509,0,1,0,1.509-2.613Z" transform="translate(0 -123.114)" fill="#fff"/>
  <path id="Path_310" data-name="Path 310" d="M3.385,314.07.754,315.589A1.509,1.509,0,0,0,2.263,318.2l2.631-1.519a1.509,1.509,0,1,0-1.509-2.613Z" transform="translate(0 -285.818)" fill="#fff"/>
  <path id="Path_311" data-name="Path 311" d="M315.585,137.3l2.631-1.519a1.509,1.509,0,0,0-1.509-2.613l-2.631,1.519a1.509,1.509,0,0,0,1.509,2.613Z" transform="translate(-281.81 -123.114)" fill="#fff"/>
  <path id="Path_312" data-name="Path 312" d="M98.352,140.184a11.341,11.341,0,0,0-10.525-7.069,12.067,12.067,0,1,0-17.5,15.1,8.515,8.515,0,0,0,7.182,13.06c23.737-.025,22.438.061,22.852-.068a10.561,10.561,0,0,0-2.009-21.024ZM67.76,138.042a9.049,9.049,0,0,1,16.918-4.471,11.315,11.315,0,0,0-8.13,10.742,8.356,8.356,0,0,0-4.129,1.639A9.058,9.058,0,0,1,67.76,138.042Zm32.03,20.19c-.537.044-14.228.018-22.281.026a5.5,5.5,0,0,1-3.7-9.546,5.43,5.43,0,0,1,4.2-1.408,1.509,1.509,0,0,0,1.631-1.712,8.3,8.3,0,0,1,16.223-3.346,1.509,1.509,0,0,0,1.761,1.082,7.544,7.544,0,1,1,2.161,14.9Z" transform="translate(-58.231 -116.821)" fill="#fff"/>
</svg>
