<svg xmlns="http://www.w3.org/2000/svg" xmlns:xlink="http://www.w3.org/1999/xlink" width="334.276" height="88.924" viewBox="0 0 334.276 88.924">
  <defs>
    <clipPath id="clip-path">
      <rect id="Rectangle_2962" data-name="Rectangle 2962" width="334.276" height="88.924" transform="translate(0 0)" fill="none"/>
    </clipPath>
    <clipPath id="clip-path-2">
      <rect id="Rectangle_2960" data-name="Rectangle 2960" width="19.392" height="14.17" transform="translate(19.141 8.063)" fill="none"/>
    </clipPath>
    <clipPath id="clip-path-3">
      <rect id="Rectangle_2961" data-name="Rectangle 2961" width="19.392" height="14.17" transform="translate(296.565 8.063)" fill="none"/>
    </clipPath>
  </defs>
  <g id="Welcome" transform="translate(0 0)">
    <g id="Group_14247" data-name="Group 14247" clip-path="url(#clip-path)">
      <path id="Path_48961" data-name="Path 48961" d="M334.276,62.452A540.871,540.871,0,0,1,0,62.452L20.292,0A475.2,475.2,0,0,0,313.984,0l20.292,62.452" fill="#007066"/>
      <path id="Path_48962" data-name="Path 48962" d="M71.864,33.124q2.562.5,5.127.979.783,4.79,1.629,9.581,2.452-4.2,4.846-8.425,2.59.446,5.183.862-3.449,5.8-7.017,11.56,1.122,4.668,2.312,9.332,5.98-9.891,11.614-19.909,3.046.446,6.1.853Q93.951,50.848,85.607,63.5q-2.481-.393-4.961-.81-1.671-6.153-3.222-12.313Q73.839,55.62,70.14,60.814q-2.472-.468-4.941-.959-3.417-14.75-6.165-29.507,2.974.666,5.954,1.3Q66.838,43,69.05,54.353q2.691-3.972,5.321-7.969-1.315-6.63-2.507-13.26" fill="#fff"/>
      <path id="Path_48963" data-name="Path 48963" d="M122.746,63.3q-.2,2.343-.4,4.686-10.622-.915-21.212-2.265,1.746-13.686,3.49-27.372,9.846,1.255,19.726,2.114l-.408,4.685q-7.128-.62-14.241-1.444l-.765,6.6q6.227.722,12.468,1.288-.2,2.169-.394,4.336-6.294-.572-12.576-1.3-.413,3.572-.827,7.142,7.563.876,15.143,1.529" fill="#fff"/>
      <path id="Path_48964" data-name="Path 48964" d="M127,68.361q1.061-13.755,2.122-27.511,2.818.216,5.639.4-.75,11.421-1.5,22.841,7.739.508,15.486.784-.084,2.349-.167,4.7-10.8-.384-21.58-1.217" fill="#fff"/>
      <path id="Path_48965" data-name="Path 48965" d="M148.911,55.59a13.493,13.493,0,0,1,1.158-4.957,13.768,13.768,0,0,1,2.974-4.321,14.7,14.7,0,0,1,4.6-3.039,15.014,15.014,0,0,1,6.079-1.126,14.192,14.192,0,0,1,6.948,1.671,11.236,11.236,0,0,1,4.439,4.3q-2.171,1.454-4.367,2.888a7.086,7.086,0,0,0-3.209-3.213,8.574,8.574,0,0,0-1.985-.683,10.262,10.262,0,0,0-2.023-.224,8.063,8.063,0,0,0-6.442,2.846,9.237,9.237,0,0,0-1.668,2.918,10.434,10.434,0,0,0-.624,3.271,9.864,9.864,0,0,0,.552,3.531,8.927,8.927,0,0,0,1.741,3.011,8.782,8.782,0,0,0,2.783,2.107,8.2,8.2,0,0,0,3.608.815,10.279,10.279,0,0,0,2.144-.222,8.623,8.623,0,0,0,2.118-.736,7.871,7.871,0,0,0,1.852-1.309,5.929,5.929,0,0,0,1.354-1.931q2.409,1.245,4.842,2.467a8.2,8.2,0,0,1-2.037,2.771,13.116,13.116,0,0,1-3.032,2.032,16.243,16.243,0,0,1-3.644,1.255,17.089,17.089,0,0,1-3.8.413,13.888,13.888,0,0,1-5.986-1.322,14.974,14.974,0,0,1-4.587-3.353,14.5,14.5,0,0,1-2.891-4.638,13.061,13.061,0,0,1-.9-5.223" fill="#fff"/>
      <path id="Path_48966" data-name="Path 48966" d="M192.7,69.476a14.822,14.822,0,0,1-6.158-.921,14.525,14.525,0,0,1-4.791-2.992,13.874,13.874,0,0,1-3.121-4.412,13.163,13.163,0,0,1-.17-10.453,14.773,14.773,0,0,1,7.35-7.784,14.5,14.5,0,0,1,5.639-1.393,13.733,13.733,0,0,1,5.818.906,14.8,14.8,0,0,1,4.666,2.908,15.008,15.008,0,0,1,3.224,4.286,13.419,13.419,0,0,1,1.44,5.034,12.84,12.84,0,0,1-.7,5.335,13.835,13.835,0,0,1-2.747,4.641A14.516,14.516,0,0,1,198.634,68a15.1,15.1,0,0,1-5.932,1.473m-9.349-13.623a10.211,10.211,0,0,0,.7,3.438,8.94,8.94,0,0,0,1.823,2.892,8.332,8.332,0,0,0,2.855,1.949,9.24,9.24,0,0,0,7.518-.389,8.292,8.292,0,0,0,2.647-2.279,9.071,9.071,0,0,0,1.509-3.075,10.192,10.192,0,0,0,.345-3.39,10.056,10.056,0,0,0-.833-3.413,9.542,9.542,0,0,0-1.893-2.84,8.21,8.21,0,0,0-2.809-1.878,9.02,9.02,0,0,0-7.254.4,8.2,8.2,0,0,0-2.609,2.2,9.337,9.337,0,0,0-1.545,3.009,10.426,10.426,0,0,0-.457,3.379" fill="#fff"/>
      <path id="Path_48967" data-name="Path 48967" d="M237.135,65.192q-1.226-9.051-2.45-18.1-2.877,7.252-5.966,14.474-1.6.192-3.194.373-4.668-6.315-9.135-12.711.893,9.088,1.786,18.179-2.971.291-5.945.55-1.192-13.746-2.384-27.491,3.02-.261,6.039-.561,5.055,7.389,10.376,14.673,3.543-8.317,6.805-16.68,2.988-.4,5.974-.841l4.014,27.3q-2.958.435-5.92.836" fill="#fff"/>
      <path id="Path_48968" data-name="Path 48968" d="M269.508,54.972q.465,2.305.931,4.61-10.492,2.119-21.046,3.8-2.175-13.625-4.349-27.249,9.812-1.566,19.572-3.529l.927,4.611q-7.041,1.416-14.113,2.628l1.122,6.55q6.192-1.061,12.361-2.277.422,2.136.842,4.271-6.222,1.227-12.467,2.3.607,3.543,1.214,7.085,7.518-1.289,15.006-2.8" fill="#fff"/>
      <path id="Path_48969" data-name="Path 48969" d="M273.429,48.365q-1.818-8.555-3.635-17.107,2.7-.573,5.387-1.176l3.825,17.065q-2.786.624-5.577,1.218m2.156,10.15q-.609-2.869-1.22-5.74,2.817-.6,5.627-1.229l1.284,5.727q-2.842.638-5.691,1.242" fill="#fff"/>
      <g id="Group_14243" data-name="Group 14243" opacity="0.1">
        <g id="Group_14242" data-name="Group 14242">
          <g id="Group_14241" data-name="Group 14241" clip-path="url(#clip-path-2)">
            <path id="Path_48970" data-name="Path 48970" d="M23.88,8.063a11.16,11.16,0,0,1-.335,3.782,31.924,31.924,0,0,1-1.093,3.62,34.729,34.729,0,0,1-3.311,6.769c.659-2.443,1.522-4.778,2.373-7.114L22.8,11.627A26.344,26.344,0,0,0,23.88,8.063"/>
            <path id="Path_48971" data-name="Path 48971" d="M24.876,8.9a12.132,12.132,0,0,1,1.235,3.024,20.482,20.482,0,0,1,.607,3.21,18.845,18.845,0,0,1-.406,6.486c-.142-1.087-.2-2.152-.3-3.214s-.183-2.116-.289-3.169c-.22-2.109-.5-4.191-.848-6.337"/>
            <path id="Path_48972" data-name="Path 48972" d="M27.245,8.063a23.348,23.348,0,0,0,2.46,2.269,20.586,20.586,0,0,0,2.7,1.853,21.027,21.027,0,0,0,2.95,1.432c1.019.429,2.084.73,3.173,1.1a11.182,11.182,0,0,1-3.415-.355,12.373,12.373,0,0,1-3.211-1.311A12.306,12.306,0,0,1,29.179,10.9a9.216,9.216,0,0,1-1.934-2.842"/>
          </g>
        </g>
      </g>
      <g id="Group_14246" data-name="Group 14246" opacity="0.1">
        <g id="Group_14245" data-name="Group 14245">
          <g id="Group_14244" data-name="Group 14244" clip-path="url(#clip-path-3)">
            <path id="Path_48973" data-name="Path 48973" d="M311.218,8.063a26.346,26.346,0,0,0,1.081,3.564l1.285,3.493c.851,2.336,1.714,4.671,2.373,7.114a34.729,34.729,0,0,1-3.311-6.769,31.92,31.92,0,0,1-1.093-3.62,11.159,11.159,0,0,1-.335-3.782"/>
            <path id="Path_48974" data-name="Path 48974" d="M310.223,8.9c-.349,2.146-.628,4.228-.848,6.337-.106,1.053-.207,2.107-.289,3.169s-.157,2.127-.3,3.214a18.869,18.869,0,0,1-.4-6.486,20.368,20.368,0,0,1,.607-3.21A12.133,12.133,0,0,1,310.223,8.9"/>
            <path id="Path_48975" data-name="Path 48975" d="M307.854,8.063A9.217,9.217,0,0,1,305.92,10.9a12.507,12.507,0,0,1-5.939,3.454,11.185,11.185,0,0,1-3.416.355c1.09-.367,2.155-.668,3.174-1.1a21.028,21.028,0,0,0,2.95-1.432,20.586,20.586,0,0,0,2.705-1.853,23.35,23.35,0,0,0,2.46-2.269"/>
          </g>
        </g>
      </g>
      <path id="Path_48976" data-name="Path 48976" d="M27.245,8.063a2.371,2.371,0,1,1-2.37-2.37,2.37,2.37,0,0,1,2.37,2.37" fill="#263238"/>
      <path id="Path_48977" data-name="Path 48977" d="M311.772,8.063a2.37,2.37,0,1,1-2.371-2.37,2.37,2.37,0,0,1,2.371,2.37" fill="#263238"/>
    </g>
  </g>
</svg>
