<svg xmlns="http://www.w3.org/2000/svg" width="17.232" height="12.308" viewBox="0 0 17.232 12.308">
  <path id="youtube-Icon2" d="M14.879,12.765a.553.553,0,0,0-.288-.519L9.667,9.168a.58.58,0,0,0-.625-.019.573.573,0,0,0-.317.538v6.154a.573.573,0,0,0,.317.538.665.665,0,0,0,.3.077.548.548,0,0,0,.327-.1l4.923-3.077a.553.553,0,0,0,.288-.519Zm4.923,0q0,.923-.01,1.442t-.082,1.313a10.637,10.637,0,0,1-.216,1.418,2.25,2.25,0,0,1-.663,1.183,2.028,2.028,0,0,1-1.192.558,63.042,63.042,0,0,1-6.452.24,63.042,63.042,0,0,1-6.452-.24,2.05,2.05,0,0,1-1.2-.558,2.235,2.235,0,0,1-.668-1.183,11.9,11.9,0,0,1-.207-1.418q-.072-.793-.082-1.313t-.01-1.442q0-.923.01-1.442t.082-1.313a10.637,10.637,0,0,1,.216-1.418,2.249,2.249,0,0,1,.664-1.183,2.028,2.028,0,0,1,1.192-.558,63.042,63.042,0,0,1,6.452-.24,63.041,63.041,0,0,1,6.452.24,2.05,2.05,0,0,1,1.2.558A2.236,2.236,0,0,1,19.5,8.591a11.9,11.9,0,0,1,.207,1.418q.072.793.082,1.313T19.8,12.765Z" transform="translate(-2.571 -6.61)" fill="#323e48"/>
</svg>
