<svg xmlns="http://www.w3.org/2000/svg" width="25.236" height="28.842" viewBox="0 0 25.236 28.842">
  <path id="mngr-Icon" d="M24.561,27.039H23.434V1.352A1.352,1.352,0,0,0,22.082,0H3.155A1.352,1.352,0,0,0,1.8,1.352V27.039H.676A.676.676,0,0,0,0,27.715v1.127H25.236V27.715A.676.676,0,0,0,24.561,27.039ZM7.21,4.281a.676.676,0,0,1,.676-.676H10.14a.676.676,0,0,1,.676.676V6.534a.676.676,0,0,1-.676.676H7.886a.676.676,0,0,1-.676-.676Zm0,5.408a.676.676,0,0,1,.676-.676H10.14a.676.676,0,0,1,.676.676v2.253a.676.676,0,0,1-.676.676H7.886a.676.676,0,0,1-.676-.676Zm2.929,8.337H7.886a.676.676,0,0,1-.676-.676V15.1a.676.676,0,0,1,.676-.676H10.14a.676.676,0,0,1,.676.676V17.35A.676.676,0,0,1,10.14,18.026Zm4.281,9.013H10.816V22.307a.676.676,0,0,1,.676-.676h2.253a.676.676,0,0,1,.676.676Zm3.605-9.689a.676.676,0,0,1-.676.676H15.1a.676.676,0,0,1-.676-.676V15.1a.676.676,0,0,1,.676-.676H17.35a.676.676,0,0,1,.676.676Zm0-5.408a.676.676,0,0,1-.676.676H15.1a.676.676,0,0,1-.676-.676V9.689a.676.676,0,0,1,.676-.676H17.35a.676.676,0,0,1,.676.676Zm0-5.408a.676.676,0,0,1-.676.676H15.1a.676.676,0,0,1-.676-.676V4.281a.676.676,0,0,1,.676-.676H17.35a.676.676,0,0,1,.676.676Z" fill="#007066"/>
</svg>
