<svg xmlns="http://www.w3.org/2000/svg" width="264.949" height="264.168" viewBox="0 0 264.949 264.168">
  <g id="Empty_Pattern" data-name="Empty Pattern" transform="translate(0.462 0.983)">
    <path id="Path_48858" data-name="Path 48858" d="M261.514,64.814a128.736,128.736,0,0,1,21.407,64.456" transform="translate(-25.596 -7.108)" fill="none" stroke="#dfc3a6" stroke-linecap="round" stroke-linejoin="round" stroke-width="1.845"/>
    <path id="Path_48859" data-name="Path 48859" d="M185.781,21.517A128.715,128.715,0,0,1,242.3,59.173" transform="translate(-18.264 -2.916)" fill="none" stroke="#dad8d8" stroke-linecap="round" stroke-linejoin="round" stroke-width="2"/>
    <path id="Path_48860" data-name="Path 48860" d="M56.732,246.46a123.724,123.724,0,0,1-14.2-13.528" transform="translate(-4.395 -23.384)" fill="none" stroke="#cea277" stroke-linecap="round" stroke-linejoin="round" stroke-width="1.845"/>
    <path id="Path_48861" data-name="Path 48861" d="M22.274,204.813a120.429,120.429,0,0,1-11.8-31.61" transform="translate(-1.292 -17.601)" fill="none" stroke="#dfc3a6" stroke-linecap="round" stroke-linejoin="round" stroke-width="1.845"/>
    <path id="Path_48862" data-name="Path 48862" d="M106.52,18.906c19.562-6.013,40.65-6.316,60.624-1.755" transform="translate(-10.59 -2.191)" fill="none" stroke="#dad8d8" stroke-linecap="round" stroke-linejoin="round" stroke-width="2"/>
    <path id="Path_48863" data-name="Path 48863" d="M71.155,26.706A124.766,124.766,0,0,1,108.64,11.085" transform="translate(-7.167 -1.906)" fill="none" stroke="#cea277" stroke-linecap="round" stroke-linejoin="round" stroke-width="1.845"/>
    <path id="Path_48864" data-name="Path 48864" d="M61.5,25.51l5.162-3.424,2.6-1.672c.885-.527,1.8-1,2.7-1.5" transform="translate(-6.232 -2.664)" fill="none" stroke="#bbbaba" stroke-linecap="round" stroke-linejoin="round" stroke-width="2"/>
    <path id="Path_48865" data-name="Path 48865" d="M25.667,61.317c.887-1.311,1.76-2.633,2.687-3.915l2.96-3.715c2.022-2.441,3.957-4.947,6.151-7.247" transform="translate(-2.763 -5.329)" fill="none" stroke="#cea277" stroke-linecap="round" stroke-linejoin="round" stroke-width="1.845"/>
    <path id="Path_48866" data-name="Path 48866" d="M35.062,60.237q2.375-2.985,4.82-5.915" transform="translate(-3.672 -6.092)" fill="none" stroke="#cea277" stroke-linecap="round" stroke-linejoin="round" stroke-width="1.845"/>
    <path id="Path_48867" data-name="Path 48867" d="M24.423,113.229q1.15-4.148,2.4-8.27" transform="translate(-2.642 -10.994)" fill="none" stroke="#dfc3a6" stroke-linecap="round" stroke-linejoin="round" stroke-width="1.845"/>
    <path id="Path_48868" data-name="Path 48868" d="M8.984,92.558q1.475-3.778,3.048-7.519" transform="translate(-1.147 -9.066)" fill="none" stroke="#cea277" stroke-linecap="round" stroke-linejoin="round" stroke-width="1.845"/>
    <path id="Path_48869" data-name="Path 48869" d="M28.9,161.624c-.428-2.092-.54-4.232-.8-6.35" transform="translate(-2.999 -15.866)" fill="none" stroke="#cea277" stroke-linecap="round" stroke-linejoin="round" stroke-width="1.845"/>
    <path id="Path_48870" data-name="Path 48870" d="M115,23.793a112.919,112.919,0,0,1,50.145-.32" transform="translate(-11.411 -2.848)" fill="none" stroke="#dfc3a6" stroke-linecap="round" stroke-linejoin="round" stroke-width="1.845"/>
    <path id="Path_48871" data-name="Path 48871" d="M127.982,8.379c2.573-.265,5.147-.551,7.727-.712q3.88-.092,7.766-.094c1.294.008,2.589-.011,3.881.042l3.876.3c2.584.219,5.169.456,7.741.751q3.837.649,7.665,1.392l3.818.767,3.757,1.035q3.753,1.066,7.477,2.224c2.447.866,4.853,1.857,7.266,2.826" transform="translate(-12.668 -1.566)" fill="none" stroke="#5f8e88" stroke-linecap="round" stroke-linejoin="round" stroke-width="2.461"/>
    <path id="Path_48872" data-name="Path 48872" d="M155.3.922a129.178,129.178,0,0,1,32.82,7.032" transform="translate(-15.313 -0.922)" fill="none" stroke="#cea277" stroke-linecap="round" stroke-linejoin="round" stroke-width="1.845"/>
    <path id="Path_48873" data-name="Path 48873" d="M75.954,272.225a136.285,136.285,0,0,1-39.521-26.932A134.184,134.184,0,0,1,8.66,206.078" transform="translate(-1.116 -20.784)" fill="none" stroke="#eeedec" stroke-linecap="round" stroke-linejoin="round" stroke-width="2"/>
    <path id="Path_48874" data-name="Path 48874" d="M204.673,257.182a111.523,111.523,0,0,1-18.457,9.841l-4.19,1.713c-1.448.579-2.931,1.195-4.511,1.652-3.135.984-6.434,2.006-9.859,2.928-3.465.759-7.051,1.483-10.689,2.151-3.661.508-7.4.862-11.124,1.2-3.729.227-7.475.182-11.143.186-3.665-.048-7.265-.487-10.737-.789l-2.579-.266-2.508-.429-4.838-.9c-1.567-.305-3.093-.6-4.557-.921l-4.185-1.17c-2.677-.77-5.122-1.5-7.272-2.184l-5.44-2.132-4.7-1.936" transform="translate(-8.786 -25.732)" fill="none" stroke="#eeedec" stroke-linecap="round" stroke-linejoin="round" stroke-width="2"/>
    <path id="Path_48875" data-name="Path 48875" d="M260.226,76.069a121.943,121.943,0,0,1,16.246,58.538" transform="translate(-25.472 -8.197)" fill="none" stroke="#dad8d8" stroke-linecap="round" stroke-linejoin="round" stroke-width="2"/>
    <path id="Path_48876" data-name="Path 48876" d="M283.462,160.036a125.82,125.82,0,0,1-8.729,33.661" transform="translate(-26.876 -16.327)" fill="none" stroke="#bbbaba" stroke-linecap="round" stroke-linejoin="round" stroke-width="0.615"/>
    <path id="Path_48877" data-name="Path 48877" d="M197.919,278.787a132.107,132.107,0,0,1-15.465,5.835c-2.639.789-5.271,1.621-7.941,2.275q-4.029.886-8.084,1.666c-1.352.254-2.7.527-4.06.737l-4.1.476q-4.1.451-8.217.792c-2.748.095-5.5.126-8.261.135l-4.13-.019c-1.376-.022-2.75-.172-4.124-.265" transform="translate(-13.206 -27.824)" fill="none" stroke="#dad8d8" stroke-linecap="round" stroke-linejoin="round" stroke-width="0.615"/>
    <path id="Path_48878" data-name="Path 48878" d="M274.6,158.748a80.971,80.971,0,0,1-1.314,8.62,82.953,82.953,0,0,1-1.883,8.522q-1.179,4.208-2.474,8.383c-.97,2.744-2.085,5.44-3.178,8.14-.565,1.342-1.089,2.7-1.713,4.017l-1.984,3.883c-1.371,2.56-2.649,5.192-4.193,7.637a123.56,123.56,0,0,1-10.052,14.13" transform="translate(-24.269 -16.202)" fill="none" stroke="#dfc3a6" stroke-linecap="round" stroke-linejoin="round" stroke-width="1.845"/>
    <path id="Path_48879" data-name="Path 48879" d="M289.119,113.815q.671,3.321,1.268,6.654.419,3.358.763,6.731c.212,2.251.473,4.5.577,6.749q.087,3.387.1,6.781" transform="translate(-28.269 -11.852)" fill="none" stroke="#dfc3a6" stroke-linecap="round" stroke-linejoin="round" stroke-width="1.845"/>
    <path id="Path_48880" data-name="Path 48880" d="M224.99,30.168q2.8,1.913,5.548,3.885,2.64,2.116,5.238,4.294c1.721,1.464,3.473,2.892,5.118,4.436q2.424,2.367,4.8,4.79" transform="translate(-22.06 -3.753)" fill="none" stroke="#9bb4b1" stroke-linecap="round" stroke-linejoin="round" stroke-width="2.461"/>
    <path id="Path_48881" data-name="Path 48881" d="M52.757,232.593c-1.926-1.906-3.838-3.83-5.708-5.787q-2.627-3.108-5.181-6.286a68.265,68.265,0,0,1-4.762-6.6l-2.238-3.4a36.452,36.452,0,0,1-2.094-3.485" transform="translate(-3.451 -20.877)" fill="none" stroke="#dfc3a6" stroke-linecap="round" stroke-linejoin="round" stroke-width="1.845"/>
    <path id="Path_48882" data-name="Path 48882" d="M43.822,67.93c1.374-2.038,3.018-3.883,4.546-5.811a68.877,68.877,0,0,1,4.854-5.566q2.6-2.645,5.251-5.235a32.919,32.919,0,0,1,2.766-2.467l2.868-2.361a110.419,110.419,0,0,1,12.1-8.6c2.085-1.331,4.318-2.41,6.489-3.592a62.526,62.526,0,0,1,6.679-3.211" transform="translate(-4.52 -3.843)" fill="none" stroke="#dfc3a6" stroke-linecap="round" stroke-linejoin="round" stroke-width="1.845"/>
    <path id="Path_48883" data-name="Path 48883" d="M130,282.9a133.631,133.631,0,0,1-38.7-7.621q-4.621-1.786-9.188-3.719c-3-1.359-5.9-2.942-8.815-4.473-1.44-.8-2.933-1.518-4.306-2.411l-4.127-2.671-4.088-2.735-2.021-1.4-1.928-1.524" transform="translate(-5.78 -25.652)" fill="none" stroke="#dfc3a6" stroke-linecap="round" stroke-linejoin="round" stroke-width="1.845"/>
    <path id="Path_48884" data-name="Path 48884" d="M263.987,138.527a109.535,109.535,0,0,1-6.339,41.533" transform="translate(-25.222 -14.244)" fill="none" stroke="#9bb4b1" stroke-linecap="round" stroke-linejoin="round" stroke-width="2.461"/>
    <path id="Path_48886" data-name="Path 48886" d="M232.158,224.307a113.892,113.892,0,0,1-42.026,32.222,117.858,117.858,0,0,1-51.906,10.027" transform="translate(-13.66 -22.549)" fill="none" stroke="#dad8d8" stroke-linecap="round" stroke-linejoin="round" stroke-width="2"/>
    <path id="Path_48887" data-name="Path 48887" d="M121.015,267.473a115.229,115.229,0,0,1-57.659-24.7" transform="translate(-6.412 -24.336)" fill="none" stroke="#5f8e88" stroke-linecap="round" stroke-linejoin="round" stroke-width="2.461"/>
    <path id="Path_48888" data-name="Path 48888" d="M13.325,197.387a129.548,129.548,0,0,1-10.6-81.213" transform="translate(-0.307 -12.08)" fill="none" stroke="#dad8d8" stroke-linecap="round" stroke-linejoin="round" stroke-width="0.615"/>
    <path id="Path_48889" data-name="Path 48889" d="M258.152,223.888a130.224,130.224,0,0,1-18.308,21.234" transform="translate(-23.498 -22.509)" fill="none" stroke="#bbbaba" stroke-linecap="round" stroke-linejoin="round" stroke-width="2"/>
    <path id="Path_48890" data-name="Path 48890" d="M269.539,214.911c-.024.047-.48.893-1.261,2.346-.741,1.481-2.055,3.386-3.549,5.724-1.537,2.307-3.268,5.039-5.335,7.8-2.132,2.71-4.455,5.566-6.824,8.371-1.147,1.431-2.473,2.724-3.737,4.026l-3.772,3.775c-1.242,1.2-2.414,2.393-3.6,3.446l-3.431,2.872c-2.138,1.764-3.943,3.2-5.21,4.2-1.255,1.017-2.027,1.523-2.027,1.523" transform="translate(-22.622 -21.639)" fill="none" stroke="#e0dfdf" stroke-linecap="round" stroke-linejoin="round" stroke-width="2"/>
    <path id="Path_48891" data-name="Path 48891" d="M7.3,132.388A124.835,124.835,0,0,1,23.6,75.6" transform="translate(-0.985 -8.152)" fill="none" stroke="#bbbaba" stroke-linecap="round" stroke-linejoin="round" stroke-width="0.615"/>
    <path id="Path_48892" data-name="Path 48892" d="M23.485,188.5c-1.035-2.477-2.054-4.964-3.018-7.467q-1.227-3.826-2.365-7.686a70.709,70.709,0,0,1-1.883-7.81l-.777-3.943a37.726,37.726,0,0,1-.622-3.967q-.461-3.991-.824-7.995c-.256-2.666-.171-5.356-.223-8.037l.006-4.021c.014-1.339.172-2.677.265-4.015.223-2.677.463-5.353.763-8.018" transform="translate(-1.611 -12.987)" fill="none" stroke="#bbbaba" stroke-linecap="round" stroke-linejoin="round" stroke-width="2"/>
    <path id="Path_48893" data-name="Path 48893" d="M14.143,129.326A116.535,116.535,0,0,1,24.224,89.811" transform="translate(-1.647 -9.528)" fill="none" stroke="#bbbaba" stroke-linecap="round" stroke-linejoin="round" stroke-width="2"/>
    <path id="Path_48894" data-name="Path 48894" d="M36.574,203.1q-1.719-3.134-3.377-6.308c-.545-1.061-1.116-2.11-1.622-3.187l-1.389-3.291c-.908-2.2-1.829-4.4-2.661-6.63q-1.081-3.4-2.1-6.824" transform="translate(-2.74 -17.955)" fill="none" stroke="#bbbaba" stroke-linecap="round" stroke-linejoin="round" stroke-width="0.615"/>
    <path id="Path_48895" data-name="Path 48895" d="M46.078,55.246A116.891,116.891,0,0,1,81.406,27.875" transform="translate(-4.739 -3.531)" fill="none" stroke="#dad8d8" stroke-linecap="round" stroke-linejoin="round" stroke-width="2"/>
  </g>
</svg>
