<svg xmlns="http://www.w3.org/2000/svg" width="1550" height="1000" viewBox="0 0 1550 1000">
  <g id="Map" transform="translate(4)">
    <rect id="BG" width="1550" height="1000" transform="translate(-4 0)" fill="rgba(187,187,187,0.2)"/>
    <g id="Map-2" data-name="Map" transform="translate(89.141 56.542)">
      <path id="Path_54228" data-name="Path 54228" d="M1831.485,410.308l-6.805-7.724-7.984-1.953V407.4c-3.577-.422-4.009-3.393-4.1-6.058-.158-4.707-2.4-7.675-6.312-10.015-2.618-1.566-4.813-3.834-7.218-5.763-3.65-2.927-7.123-6.134-11.037-8.655-3.257-2.1-7.042-3.378-10.892-5.159-6.228,2.738-12.64-1.769-20.01-1.433.927,3.76,1.688,6.845,2.59,10.5l-4.48,2.829-7.757-6.967c1.229-.891,2.19-1.512,3.06-2.241s1.633-1.555,2.591-2.48l-3.4-1.653-6.381,6.6a72.33,72.33,0,0,0-19.612-2.054c-3.375.133-5.831-.308-6.745-3.19l-1.378-9.673c-9.771-4.776-11.055-4.8-19.29-2.41a49.834,49.834,0,0,1-7.555,1.207l-12.542-11.936,3.139-.89c-3.21-3.924-6.585-5.471-11-4.395l-1.575,3.725-4.794-.66c.443-2.051.8-3.7,1.146-5.305-7.908-3.547-15.745-5.187-23.415.43.3,3.816.6,7.782.955,12.33l-4.638-1.336-3.83,4.522c-.249-1.823-.374-2.738-.527-3.856l-6.111-2.006-6.873,4.034-5.679-5.994c-2.934,3.523-1.132,9.407-6.024,12.988-2.539-3.079-5.466-5.137-7.194-9.187-1.978-4.635-3.769-10.224-9.531-12.255l8.271-8.587-3.961-4.278-5.036,1.391-7.9-5.006-4.017,2.178c.421,2.161.827,4.247,1.318,6.777l-5.082,3.005-14.46-3.95c-.495-2.276-.811-3.733-1.084-4.984l-10.607-2.415q.073.3.145.605l-8.7,1.057c-.444-1.425-.691-2.222-.959-3.081-5.607,2.588-8.389-2.694-12.687-3.729v-4.265c2.856-2.072,5.806-3.971,8.476-6.205a20.207,20.207,0,0,0,7.183-14.626c.131-1.922-.683-5.526-1.444-5.632-5.347-.743-4.714-6.773-8.727-8.919H1519.84l-2.021,2.337-4.665-.783,2.96-5.657-8.085-4.055,2.819-5.45-7.243-3.857c-2.754,2.7-5.755,5.589-8.7,8.534-3.415,3.41-.316,8.491-2.8,12.314l-6.642.944.623.893-7.781,7.393c-5.472-1.935-11.043-5.86-17.018-.979.109.443.318,1.282.534,2.154-6.5,4.054-16.165,3.225-19.182,11.882l-7.078,3.027c.263,2.521.481,4.616.67,6.438l4.145,7.048c-6.542,1.225-11.975,2.626-17.491,3.146-4.02.379-7.346,1.251-8.949,3.667.843,4.528,1.5,8.081,1.987,10.68l7.85,7.689-4.3,3.864-10.8-9.591-10.176,5.358c-.125,1.276-.27,2.759-.4,4.066l3.8,3.061c-2.506,3.051-4.953,2.792-8.181.089.365-3.939.755-8.157,1.149-12.41-.793,3.785-4.12,5.423-7.065,7.1l-1.5,4.344,4.677,10.443c-2.9,5.022-3.6,9.907-1.419,15.469l7.384-1.621,4.456,3.157-10.311,2.926,1.725,10.46-10.859,15.179c-3.233-3.161-8.778.166-11-5.242l10.385-2.925,5.96-15.429-4.124-5.014c0-4.642-.973-9.191.232-13.062,1.737-5.584.732-9.879-2.588-13.332.44-6.312,5.778-11.234,2.445-17.817l-11.92-.533c-1.124,4.994-2.226,9.887-3.494,15.518l-5.077,4.38c.6,5.282,1.13,9.944,1.633,14.368l-2.911,2.323,4.416,2.021c1.733,3.452,3.095,6.165,4.8,9.549l-1.2,2.385h-3.038c-4.446-3.233-8.409-6.4-12.666-9.1a32.3,32.3,0,0,0-8.229-3.55c-4.974-1.451-10.132-2.388-12.9-7.879l-1.791,2.375,5.12,5.487c.386-.337.676-.589.969-.843.948,2.767,1.893,5.536,2.917,8.536l-3.262,3.074-6.12-2.773-4.471,4.017H1319.1q.1.362.2.723l-6.827,2.263c-.346-2.8-.564-4.579-.974-7.9l-4.43,6.041c-6.761,1.227-11.748,5.907-17.419,9.3-.2,1.737-.4,3.478-.639,5.623l-6.913,1.662-4.144-7.188,6.13-4.96-3.245-5.513-4.666.272c-.384,4.3-.708,7.937-1.1,12.338l2.114,4.478c-.651,2.382-1.264,4.621-1.967,7.2l-6.617-3.763-10.028,9.582c1.324,4.21,1.324,4.21-.8,7.119l-5.438-.7-3.386-3.218-2.5,2.265,5.418,5.271-.483,2.993c-5.736,1.715-7.273-4.153-11.79-4.952-.261-4.207-.509-8.214-.844-13.609l-4.386-4.37,1.782-2.852c4.932,1.734,9.4,3.2,13.793,4.876,5.144,1.959,9.81.458,12.439-4.2,2.6-4.6,1.439-9.564-2.929-12.916-5.159-3.957-10.274-7.973-14.916-11.581l-16.378-5.475,4.032-1.487q.029-.38.058-.759h-13.168l2.908-2.375-2.8-.756,5.716-3.317-12.177-9.276-1.739,4.446-3.87-2.38-6.083,1.465-4.432,8.37-7.3-1.1,2.257,3.724-.536,1-6.293-2.378c.475,1.7.993,3.543,1.442,5.144-1.983,4.606-6.223,1.836-8.969,3.335l-8.436,9.138c.1,1.157.252,3,.407,4.844l-3.475.514-7.9,13.017,3.259,3.064c-8.865.838-5.416,8.893-8.331,14.106l-2.167-3.005-1.6,2.708,1.067.776-7.327,10.717-9.544,5.707-2.495,4.59,2.268,4.451-5.728-1.181c.08,1.475.125,2.3.168,3.1l7.712,1.73q-.055.619-.109,1.237l-7.663.835c.284,1.707.534,3.207.738,4.438l5.388-.684L1129,464.315c.183,2.684.338,4.943.523,7.637,3.32,3.606,3.32,3.606,7.733,3.443l8.168-7.445,1.049-5.468c2,8.79,6.741,16.079,9.622,24.022v7.662l4.017.552c-.51-5.173,3.943-4.714,6.131-5.8l4.694-6.689c-1.787-3.882-1.229-7.183,1.541-10.423,2.533-2.962,4.661-6.269,7.053-9.541l-6.809-7.086c-1.206-9.069.807-15.683,8.347-22.06,2.77-2.342,5.277-5,7.741-7.352-2.8-5.628,1.045-8.756,2.739-11.849,4.375-1.25,8.478-2.177,12.013,1.471-.2,1.552-.424,3.212-.683,5.174l-15.2,19.7c.792,4.8,2.208,7.915,1.524,11.924-.519,3.045,1.868,6.589,2.992,9.9.035.1.416.09,1.174.23.113-1.335.212-2.505.359-4.238,2.457,2.921,4.634,3.443,8.044,1.962,4.319-1.877,9.193-2.476,13.045-3.431l5.369,4.045-8.052,6.21c-5.762-2.732-11.536-1.858-16.246,3.229l-1.556-1.93-1.672,3.222,4.361.647,3.311,4.2c-.83,2.1,2.475,7.218-3.809,7.8l-4.178-5.16c-7.3,4.9-4.48,11.793-3.622,16.957l-8.91,5.856-5.25-3.268-12.4,7.253-7.042-4.065-5.192,2.49-5.349-3.7c-.192-8.609-.17-8.7,3.238-13.048-4.719-4.253-4.719-4.253-9.461.029.533,2.972,1.06,5.945,1.693,9.512l-1.259,1.862,3.413,5.987c-4.542,1.292-8.628,2.134-12.432,3.672-1.915.774-4.259,2.538-4.78,4.328-1.682,5.779-6.2,8.258-11.086,10.936.3,4.979-4.413,5.974-7.141,8.773l-6.194-.473,1.021,3.716-2.666,1.968-8.347-1.56c-.13,1.47-.218,2.485-.312,3.544,14.4,7.1,15.35,14.8,10.324,26.59-4.684-.464-9.686-1.023-14.7-1.436-4.6-.378-9.338-1.2-13.585,2.918.644,3.113,1.982,6.489,1.856,9.809-.136,3.568-1.648,7.084-2.406,10.025l2.644,9.011h6.18l3.891,3.451,14.679-3.078,6.836-6.837c-1.575-11.308,7.444-13.094,12.986-17.385-1.052-3.686-.977-6.711,2.971-8.487l7.9,2.632,10.934-6.669,4.229,1.707c4.013,6.484,8.1,11.817,14.95,15.015,7.83,3.658,9.557,8.078,8.155,15.337l3.21-5.055-1.333-4.6,4.717-2.839-13.664-8.691-2.226-5.267-5.126-4.833c.131-2.6.241-4.786.346-6.861l4.834-1.218c.291,1.292.578,2.569.823,3.659l3.207-1.858,4.249,9.23.874-.857,14.354,11.039-1.338,5.418c3.488,5.305,5.483,12.2,13.238,11.105-.412-3.16-.847-6.5-1.345-10.318l4.452,1.43,3.531-4.383,9.8,2.366-2.159,3.538c.7,2.732,1.185,4.776,1.748,6.8.583,2.1,1.24,4.172,1.814,6.087,4.594,2.262,8.984,4.437,13.815,1.552l6.815,3.639,7.48-3.292,3.28,1.989c.317,2.987.613,5.788,1,9.442-4.334,3.741-2.645,11.388-8.04,15.2l-12.061-1.654-6.782,3.282-29.046-9.248-5.235,2.624c1.062,4.419,1.232,8.252-2.973,8.876-4.034-1.48-7.152-2.394-10.05-3.771a17.311,17.311,0,0,1-4.953-3.728c-2.4-2.531-5.007-4.235-8.641-4.219-4.964.022-8.772-2.434-12.209-5.98l3.718-4.307c-.38-2.858-.708-5.318-1.11-8.339l-2.247-1.093c-3.842.412-6.424.894-9.01.922-5.18.055-10.567-.321-15.491.463-7.132,1.136-13.922,4.421-20.857,6.79l.254.735h-10.715l-4.681-3.694c-.622,7.973-5.339,11.906-11.487,14.065-1.053,4.692-5.853,8.192-1.918,13.127-4.612,3.581-6.951,9.41-12.6,9.279l-7.175,9.584.374.155-11.159,20.334c4.331-1.264,4.715.523,4.832,2.792.149,2.888.442,5.769.753,9.648l-4.022,11.793c.549,1.182,1.948,2.729,1.7,3.936-.739,3.574.81,5.2,3.5,7.3a35.273,35.273,0,0,1,8.7,9.895c2.026,3.517,3.774,6.727,7.526,8.793a44.091,44.091,0,0,1,7.772,6.132c2.686,2.411,6.166,4.106,9.105,2.54,6.466-3.444,12.759-2.655,19.359-.842.8-.414,1.594-.78,2.345-1.214,5.654-3.271,11.869-4.414,18.272-4.9,5.716-.436,7.979,3.333,9.259,7.9,5.811-.906,11.067-1.215,15.634,4.054-.7,2.734-2.467,5.849-1.921,8.484.715,3.454-.46,5.624-2.927,8.375,4.471,5.26,8.814,10.367,13.542,15.928,1.992,7.124,4.15,14.843,6.55,23.428-1.273,2.2-2.728,5.06-4.5,7.711-4.266,6.4-3.932,16.959-.359,23.854,2.841,5.482,6.564,10.583,6.743,17.525.148,5.737,2.007,11.707,4.334,17.038,2.766,6.336,6.844,12.1,10.11,17.691-.722,11.261.4,9.613,5.041,13.012,6.457-.755,12.3-1.666,18.183-2.052,4.546-.3,8.7-1.39,12.251-4.2,7.4-5.849,12.238-13.915,17.93-21.229a9.419,9.419,0,0,0,1.376-4.312c.4-2.721.542-5.479.77-7.986l10.484-5.446c-1.073-6.284-2.04-11.94-3.059-17.9,6.005-5.111,11.437-11.136,19.041-13.474l2.907-5.808c-.315-6.65-.576-12.142-.859-18.1-7.718-3.425-.194-12.788-6.362-16.729,3.849-11.893,11.353-20.912,20.563-27.608,8.818-6.41,16.226-13.45,20.751-23.206,2.5-5.382,7.27-10.3,5.233-16.761l-24.912,4.771c-4.439-2.845-4.121-6.323-4.1-9.686,3.157.337,6.273.691,8.969-1.75.733-.663,1.986-.746,2.994-1.111q10.083-3.654,20.175-7.319l2.6-4.316,9.177-2.17,10.514-8.582a22.247,22.247,0,0,1,3.807-6.212c1.578-2.067,3.109-4.169,5.209-6.993l-13.83-8.764c-.13-2.429-.213-3.981-.279-5.218-2.767,2.306-5.357,6.056-8.524,6.632-2.851.518-6.876,4.073-9.4.185-.36-2.85-.64-5.064-1.106-8.748-.676,2.869-1,4.229-1.317,5.588l-1.075.211-2.862-7.323c-3.785-3.629-6.521-8.683-8.066-15.036h9.825l4.3,8.036,9.7,6.74,9.189-3.211,5.118,6.5c10.586,3.943,22.3,2.875,33.491,1.563l11.728,12.829-.578,1.785,5.35,5.7,6.861-5.384c1.123,9.885,1.93,19.408,5.968,28.3,4.027,8.866,7.23,18.1,12.276,27.078l9.105-10.749c.619-6.556,1.261-13.348,1.865-19.744,10.211-3.641,14.843-14.294,24.454-18.078.365-1.911.69-3.6.984-5.138,12.459-3.8,15.973-4.3,19.5-2.694.191,1.831.4,3.8.538,5.141,2.054,3.717,7.655,2.7,7.883,7.789.169,3.773.79,7.526,1.3,12.051,3.593,1.269,6.382-1.691,9.486-5.15,2.182,5.815,5.076,10.945,5.884,16.386.853,5.742-.284,11.78-.571,18.123,8.5,4.792,6.746,15.121,11.634,22.2l9.225,5.427-3.345-15.81c-2-1.3-5.739-2.966-8.392-5.687-2.6-2.661-4.084-6.4-6.666-10.674.332-4.811,1.954-10.328,5.561-16.5l2.065,5.135c7.4-1.309,7.44,8.524,13.743,8.655.227,2.186.4,3.894.666,6.423l17.265-12.792c-.733-4.505-1.4-8.586-1.889-11.619l-13.988-16.274,9.069-10.028h7.354l1.508,3.954,2.631-3.241,22.471-7.836c9.547-2.921,11.421-15,19.246-23.312.117-.668.45-2.555.8-4.56a13.243,13.243,0,0,0-1.4-1.305c-.635-.45-1.351-.783-3.123-1.783l3.982-.947c-2.362-6.639-2.649-14.188-9.609-18.862,1.688-2.964,2.548-6.305,6.894-7.215,2.288-.479,4.227-2.621,6.711-4.27l-7.225-1.792-7.77,2.377c.408-1.636.61-2.448.818-3.278l-5.361-2.6,14.079-13.3,4.288,2.145c-1.143,2.529-2.063,4.564-3.259,7.209l11.715-4.328c.237,1.769.335,2.5.436,3.251l2.8-.665c-.423,2.216-.82,4.3-1.227,6.433l5.136,3.055v13.5c4.788,1.145,7.535-1.966,10.8-3.788v-8.129l-7.7-10.957c2.846-4.181,10.593-5.2,9.585-11.8l7.935-7.262c5.8,3.456,8.8,2.618,13.237-3.3a245.886,245.886,0,0,0,15.714-22.716,19.249,19.249,0,0,0,3.071-9.182c.232-4.6-.25-9.541,3.514-13.268,3.752-.944,4.253,2.172,4.308,4.268.1,3.944-.727,7.9-.978,11.869a29.763,29.763,0,0,0,.466,4.88c1.97-3.252,2.356-7.322,6.628-7.108l-4.166-24.546-2.564,1.782-1.275,5.369-3.08-2.457,1.851-2.763-7.823-6.423-7.122,5.587c-.388-6.522-4-8.164-8.825-8.471.421-1.45.409-2.74,1.047-3.408,5.871-6.142,11.878-12.153,17.774-18.271.714-.741.874-1.989,1.518-2.829,3.854-5.026,7.624-10.249,15.254-8.692,1.867.381,3.756.649,5.549.955l1.362-1.554,6.984,1.273,4.564-3.614,8.677,2.1c-.257,1.467-.481,2.745-.766,4.371l12.855-2.824-3.053-2.859c5.252-7.582,8.586-17.341,19.939-17.917l3.1,2.586v7.256l11.121-8.783c.175-1.519.447-3.882.746-6.49l5.088.562c-.544,1.621-1.27,2.837-1.313,4.076-.18,5.244-1.4,9.653-6.651,12.316-1.793.909-2.8,3.322-4.247,4.969-4.925,5.587-9.889,11.141-14.838,16.707a17.392,17.392,0,0,0-4.294,5.661c-1,2.136-2.234,4.537-2.119,6.757.35,6.8,1.248,13.585,2.035,20.363.34,2.929.93,5.828,1.479,9.188a15.888,15.888,0,0,0,7.853-11.823l4.207-2.368c.148-1.878.285-3.629.432-5.489l7.607-3.236c-2.984-5.517-.026-8.578,3.529-10.224V478.2l-4.742-2.9c3-4.6,4.2-7.882,5.88-10.9,1.471-2.646,3.686-4.44,6.948-2.59,1.654-2.355,3.408-3.678,5.23-2.055l10.154-3.141,4.488,3.788c7.354-7.994,15.57-14.451,25.3-18.779,1.535-.682,3.749.281,5.645.25a40.611,40.611,0,0,0,4.861-.667l-6.218-15.613,6.529-4.681V409.221l4.163,2.222,1.282-3.917,2.3,7.858,6.943-.968,3.725,6.725,11.145,6.154c-.868-2.819-1.217-3.949-1.674-5.435l11.052-11.552" transform="translate(-466.833 -117.947)" fill="#d9d9d9"/>
      <path id="Path_54229" data-name="Path 54229" d="M1683.348,405.068a8.68,8.68,0,0,0,.18-1.943q-.09.973-.18,1.943" transform="translate(-755.317 -180.88)" fill="#d9d9d9"/>
      <path id="Path_54230" data-name="Path 54230" d="M320.429,775.125c-.782-4.459,1-9.366,1.66-14.052l-6.368-2.982-15.071.885,7.334-22.276-3.608-1.737-7.779,2.124-3.424,9.227-13.184,2.74-5.813-2.761c-7.935-9.606-9.1-19.3-5.173-30.105-1.422-3.459-.549-6.887,2.349-9.574l8.87-6.409,16.717.879,3.446-4.174,16.217,2.027-.1.91,2.9-.99,5.357,4.26c-.018,7.047,2.194,12.481,8.624,17.5.049-4,.543-6.992,0-9.786a36.5,36.5,0,0,0-3.432-9.86c-2.214-4.227-1.33-7.9,1.588-10.919,3.762-3.891,8.033-7.293,12.169-10.806a1.4,1.4,0,0,1,1.129-.179l7.173-6.9c-.6-2.553-1.265-5.423-1.909-8.18,2.109-2.464,4.925-4.5,2.1-8.128,5.365.062,4.807-3.854,5.275-7.3.121-.9,1.524-1.618,2.587-2.666.4,1.695.655,2.76.847,3.566l5.369-1.257-.616-2.523,4.12-2.5h4.347l-5.161-3.056a9.315,9.315,0,0,1,.524-2.746c4.357-7.636,12.324-9.645,19.769-12.373.555-.2,1.659,1.1,2.766,1.879l-4.366,3.625,1.63,2.837,15.732-8.177c.216-1,.516-2.395.685-3.182l-12.835-1.771,2.514-3.132-3.923-2.779,2.942-9.53c-8.239-3.186-13.69,1.516-18.715,6.079-2.172-.875-4.169-1.613-6.084-2.524-.288-.137-.191-1.084-.362-2.28l4.855,1.306,12.784-10.68H411.44l4.643-5.719,10.505-3.779v-8.83l-3.822-2.384c-1.819-2.749-2.878-6.272-4.634-6.664-6.688-1.49-10.168-6.445-14.288-11.238.046-2.743,1.286-5.849-1.165-8.358,2.4-3.113-5.919-3.731-1.927-6.6l-8.169-14-2.644,8.487-.679-.435-3.846,6-2.8,1.2-7.8-4.916c-.407-4.632-.813-9.262-1.119-12.743l-14.573-14.139c-5.365,4.36-10.868-1.992-16.569.4.555,6.29,1.1,12.468,1.643,18.646l1.17.08-4.351,9.8c7.488,3.392,5.75,11.425,8.741,17.282L337.132,570.5c.748,2.926,1.424,6.591,2.635,10.071,1.744,5.013.466,8.524-4.921,11l-7.806-9.49,5.215-1.577-6.009-2.514c-.189-3.8-.376-7.59-.579-11.663a16.214,16.214,0,0,0-3.182-.319c-7.2.655-12.685-3.065-17.617-7.405-5.046-4.441-10.289-7.085-17-5.017l-3.956-12.114-5.6-2.185c-2.4-12.626,4.552-21.6,10.451-30.735l4.484-.832,3.875-9.367c1.148.265,2.12.839,2.743.577,5.188-2.174,7.123-6.837,8.105-11.81.427-2.164.76-3.235,3.41-2.639-.47,5.44,2.146,11.212-2.384,16.34l4.63,1.046,1.955,4.3,6.735-8.858,8.332,5.828,3.016-3.961-5.757-.6c-.38-1.954-.707-3.634-.916-4.706l-10.83-8.64,6.36-9.624c7.5-3.979,7.711-4.746,3.975-13.625-.722-1.716-.7-3.742-1.025-5.612l3.628-1.542c2.18-5.634-3.375-6.938-4.963-10.578L313.481,442.2l2.62,7.62a86.309,86.309,0,0,0-3.164,8.207c-1.119,4.139-1.431,8.6-5.595,11.634l-4.192-5.718c.511-3.274,1.043-6.688,1.52-9.746l-4.6-5.242-5.418,8.517c-.546-4.215-.986-7.614-1.4-10.82l-5.9-4.468,1.34-4.118c-1.085-4.287-1.772-7.923-2.944-11.393a11.936,11.936,0,0,0-8.422-8.115c-.5-.136-1.169.366-2.039.669.418,1.78.806,3.429,1.218,5.182l-4.046,1.6c.434,5.757.866,11.487,1.213,16.091l6.9,2.908v9.485l2.866-2.572c-1.759,6.714-5.091,10.765-7.859,10.232l-4.924-3.72,3.939-5.37c-.662-2.264-1.234-4.217-1.747-5.969l-5.753-4.873-6.175,8.881,5.081,2.993-2.248,5.349,6.313,2.753c-.267,1.113-.5,2.081-.664,2.766a33.735,33.735,0,0,0-16.876-.249c-3.294-1.168-6.8-1.95-9.82-3.617-2.807-1.55-5.725-3.633-5.05-7.715l-2.916-1.42-9.717,5.338,4.05,3.148v8c-1.588-.767-4.178-1.416-4.194-2.124-.1-4.237-3.236-3.731-5.482-3.46-3.652.44-7.211,1.644-11,2.572l-10.144-3.86,6.861-4.117-4.386-5.73c-7.537,2.325-12.85-3.241-20.2-4.531l-3.437-4.387h-5.446c-2.2,1.591-1.323,6.01-5.6,4.859-.437-2.426-.88-4.886-1.623-9.013-1.21,3.646-1.915,5.77-2.687,8.1-7.363-.917-4.585-9.273-9.365-11.853l-2.491,6.022-3.84,1.759c-2-3.763-4.37-3.575-7.4-1.059-2.538,2.11-5.353,4.55-8.391,5.184-2.411.5-5.284-1.139-7.537,1.636.332,1.738.679,3.545,1.285,6.713l-16.281-8.811L94.12,440.689q.106-.5.213-.994l-7.306,1.142a23.193,23.193,0,0,0-4.281-2.186c-4.359-1.272-8.793-2.286-14.338-3.69l-7.038,1.153-4.785-5.692-6.144,1.161-1.133-3.094L44.9,430.7c.362-1.713.562-2.66.746-3.529l-3.6-1.769-2.834,4.69-7.772,1.7c-.152.933-.361,2.215-.554,3.4l-9.6,2.755-5.741,13.121-9.789,2.881c-.866,8.569,11.211,7.924,9.968,15.562l5.509,2.808,1.246,3.36c2.068.229,4.088-2.734,6.6,1.2l-6.8,1.454-2.351,2.65-4.459-1.328-1.753-4.313-6.6,3.946-.988-1.422-1.033,3.87-1.3-1.675L0,484.14l3.037,2.992,2.339-.12c-1.78,4.87,1.332,6.161,4.292,7.232,2.785-.364,5.515-.139,8.187-.429a63.434,63.434,0,0,0,7.435-1.675c.566,3.138,1.029,5.7,1.568,8.689l-1.325,2.529-15.5,6.25,1.189,1.32-4.135,7.607c.779,2.084,1.368,3.661,1.555,4.16l8.415,2.323-5.151,5.4c3.141,2.871,6.282,2.213,9.99-1.087.662,4.367,1.208,7.973,1.76,11.616l4.338-2.336,5.5,3.4H39v7.7L27.318,560.4c-3.314-.134-6.029,1.394-7.54,5.319l13.678-5.628,20.921-19.146-3.821-3.575,6.208-5.042,3.248-7.044,3.585.945c-.767,2.462-1.449,4.651-2.128,6.829.531.415,1.034.809,1.538,1.205q-.858,1.464-1.716,2.924c3.538-1.558,6.149-4.784,9.42-5.731,4.42-1.281,3.972-3.606,3.336-6.719-.074-.362.266-.807.29-.874l5.722-.679c4.915,6.227,11.547,8.754,19.414,8.314l7.9,2.419,9.117,9.042,5.452-.979-1.814,5.271,6.592,1.977-1.556,7.293,1.755,3.381,4.214-1.365-1.754-2.768,4.484-3,2.787,5.134,6.958,4.665c.522,9.963.522,9.963,2.254,12.266l7.128,1.2c-2.132,4.885-1.951,5.532,1.942,7.773a13.562,13.562,0,0,0,3.165.676l-3.7,2.6-2.82,7.869,13.462,12.293c-1.6,4.873,3.72,8.832,2.814,14.151-.987,5.8-1.5,11.678-2.209,17.444.864,6.5,1.728,13,2.18,16.4l12.349,22.027c4.4,2.559,7.831,4.455,11.141,6.538a5.122,5.122,0,0,1,2.04,2.56c2.406,7.7,6.207,14.531,12.381,19.952l-2.184,3.942,8.126,5.446c1.054,5.766,1.054,5.766,5.914,8.541-.52-1.975-.578-3.515-1.283-4.654-3.8-6.139-7.6-12.3-11.74-18.2a15.027,15.027,0,0,1-3.015-8.918c5.1-.3,7.051.216,7.847,3.348,1.9,7.5,7.373,12.162,12.471,17.236,1.054,1.048,1.565,2.64,2.451,4.2,4.022,4.292,8.568,8.622,12.41,13.506,1.5,1.905,2.539,5.449,1.807,7.558-1.4,4.028.942,5.15,3.362,6.637a115.619,115.619,0,0,0,29.63,13.263l10.081-2.2c6.1,9.733,15.94,10.945,24.828,12.7l6.35,7.279c-1.464,3.443.441,4.618,3.169,5.818,2.32,1.021,4.3,2.824,7.045,4.706l9.783,4.2,2.389-6.187-7.933,1.614c-2.547-3.9-6.149-7.2-6.819-11.023" transform="translate(0 -187.792)" fill="#d9d9d9"/>
      <path id="Path_54231" data-name="Path 54231" d="M625.452,891.112l-.056.053c.11-.008.112-.031.056-.053" transform="translate(-280.615 -399.839)" fill="#d9d9d9"/>
      <path id="Path_54232" data-name="Path 54232" d="M607.981,1082.214l.288-.058c.081-.053.154-.086.234-.135l-.423-.063-.1.256" transform="translate(-272.801 -485.472)" fill="#d9d9d9"/>
      <path id="Path_54233" data-name="Path 54233" d="M834.565,250.518l-11.593-3.407,5.324-1.728c.086-1.68.165-3.22.189-3.685l12.451-4.5c1.461,2.991,2.959,6.058,4.436,9.078h6.459c1.47-7.214-2.322-12.684-5.175-18.1.751-2.36,1.4-4.4,2.206-6.936l-4.331-3.018-4.275,3.648c-1.068-2.792-1.859-4.862-2.9-7.577l6.042.948-1.262-3-3.353-.567-1.989-7.778,8.325,3.323c.206,1.781.423,3.667.7,6.051l11.131-3.949c-1.189-1.98,1.186-4.9-2.375-5.344l-3.226,3.46c.169-7.252,8.293-6.44,11.147-11.8l-7.515-2.387,3.708-3.267c-.257-1.068-.535-2.222-.789-3.28l3.958-2.315-2.973-12.905-6.846-1.561V162.95l4.792-5.564,8.5,2.236c-.156-2.865-.279-5.117-.392-7.19l-7.088-1.082c-.7-2.385-1.232-4.212-1.735-5.931l2.628-1.974-5.526-2.764c.472-12.454,5.728-23.911,8.8-36.179l4.449.329,2.861-6.1-5.438-2.88,8.209-1.333,2.188-4.042-2.261-3.048-6.354.854-.47-1.342,3.6-3.918,5.9,1.422,5.128-3.695c.218-1.379.423-2.668.389-2.455l10.312-9.876c.594-10.5-8.929-9.728-14.706-13.437l-6.691,6.45,2.4,4.353-6.6-1.2L861.6,66.728c-.194-2.173-.347-3.886-.532-5.96L850.38,77.443c-2.553-6.384,2.268-9.623,3.14-13.961a35.725,35.725,0,0,0,.575-13.576h-7.028c-.234,2.691-.442,5.077-.691,7.951-5.088,1.548-8.413,6.586-15.169,8.128,1.632-6.521,8.733-6.151,10.005-12.233l-1.2-4.169c-3.922,0-7.579-.527-11,.146a33.085,33.085,0,0,0-10.2,4.02c-2.813,1.66-5.062,4.276-8.107,6.95V54.167l12.2-9.408H842.5l11.17-4.631,5.383-7.612c-3.965-5.99-9.586-8.613-15.828-10.189l-2.7-9.316-7.579,4.376-6.608-.293c2.568-1.711,4.4-2.814,6.1-4.1,2.055-1.552,6.024-1.861,4.146-6.427-3.79-1.857-7.079-7.162-11.452-2.316L817.337,0l-23.87,1.418L790.7,5.266l-3.1-1.14L777.267,12.16l3.5,2.978L778.9,17.772l3.872,7.217-7.007-2.762c-.247-2.3-.434-4.037-.58-5.393l-7-3.532c-.58,1.826-1.114,3.507-1.665,5.237-2.244.755-5.76-2.543-6.868,2.073l3.629,5.686c3.789,1.117,8.564-1.26,11.42,3.9L764.42,27.874c-.115,1.242-.183,1.973-.283,3.056l-5.348-1.309c3,4.92,3,4.92,1.18,7.5-2.462-1.822-4.346-5.519-8.508-2.583.687,2.805,1.355,5.538,2.137,8.738l5.79,5.082-.654.409,4.913,12.421-3.522.412-5.974-11.04-1.638,1.687L746.575,41.33l.215-.526c-2.581-1.3-4.429-4.752-8.418-2.722-2.384,5.621,1.645,10.042,3.454,15.429l-5.986,3.138c-1.366-3.977-2.58-7.512-3.755-10.939l2.075-.512-1.171-1.6h-3.866c-.478,1.131-.933,2.212-1.715,4.064l-3.095-5.692L706.4,49.144v2.961l-6.354,4.005c.275,4.761.472,8.207.67,11.653a7.7,7.7,0,0,0,1.447,5.342c1.672,2.345,1.352,4.043-1.372,5.883-1.254-1.76-2.39-3.612-3.78-5.248-2.27-2.673-4.338-2.14-6.488,1.009-2.694,3.945-5.741,7.647-8.57,11.5-1.543,2.1-2.95,4.307-4.48,6.556l2.185,4.525,9.746.681v9.412c-1.952,3.535-3.748,6.789-5.485,9.937l-10.282,2.346c-2.382,6.742-9.922,6.073-14.1,10.5q-.808,2.467-1.819,5.56l6.94,8.458,1.529-1.707c2.647,1.147,2.114,5.9,5.992,5.3,2.984-.46,5.845-1.7,9.636-2.865.2,1.726.427,3.665.673,5.779-7.573-.793-13.506,1.493-20.449,5.572l13.048,6.781-5,3.767c2.679,3.4,5.59,6.311,10.255,5.851.572-1.314,1.1-2.528,1.661-3.815l4,2.668,4.23-3.8c1.852.716,3.507.169,5.117.278a65.4,65.4,0,0,1,7.245,1.281c3.623,5.011,13.711,6.388,9.984,16.5l6.319,4.671c-.034,3.492,4.273,7.17.022,11.094l4.6,2.629-2.375,1.76,3.36,3.817c.178,2.107.328,3.864.437,5.159l2.491,1.831V225.9l3.285-2.89,1.764,7.809c5.79,4.313,7.272,10.589,8.206,17.69l-6.8-4.362c-.394-.024-1.505-.031-2.6-.173-.955-.124-1.889-.4-3.012-.648,0,2.224.513,4.093-.089,5.476-2.592,5.939-2.661,6.272,1.911,11.479l5.4-2.516c1.79-2.105-1.458-4.86,2.415-5.376,2.623,4.8,3.711,9.885,2.169,14.849l-8.345,3.989,1.67,3.234,8.973.669c-.5,1.54-.753,2.517-1.159,3.429-.063.142-.8-.017-1.226-.04-.065-.719-.13-1.433-.226-2.5l-6.638,2.045-.946,5.641,2.684.819V286.7l2.944-.641q.4.638.809,1.276l-4.111,4.176,3.454,1.461-3.053,2.667c.75,4.565,1.051,8.1,1.96,11.472.935,3.471.909,7.918,6.38,8.218.727,9.347,5.14,17.165,11.67,21.147l6.895-3V338.3l8.881,4.512c1.048-7.558,1.978-14.269,2.985-21.522l2.77-6.116,3.639-.559c-.515-4.38-.992-8.423-1.471-12.468,4.428.726,4.305-3.219,5.752-5.822l6.709-.31q.5-2.528.85-4.336l5.161,2.8c.968-1.63,1.606-4.248,3.02-4.773,3.155-1.171,4.4-3.094,5.18-6.147,2.049-7.97,8.72-11.553,15.51-13.885,11.042-3.793,11.126-3.431,18.36-9.23,2.148-1.722,4.816-2.8,7.219-4.153.3-1.435.6-2.85.919-4.4l-8.689-3.637-4.047,2.265" transform="translate(-295.116 0.004)" fill="#d9d9d9"/>
      <path id="Path_54234" data-name="Path 54234" d="M773.5,1127.821c-8.293,1.527-11.012-7.167-16.694-8.993l-14.929-1.232-2.9,1.748c-.363-1.777-.665-3.257-1.152-5.639l-21.92-5.853c-.016-.319-.3-1.111-.036-1.624a35.728,35.728,0,0,1,2.178-3.436c-1.707-2.83-3.823-5.2-4.613-7.951-.886-3.089-2.814-4.5-5.1-6.38-5.223-4.3-11.245-3.268-17.02-3.634l-13.811-10.859-5.132-4.706,3.548-3.126c-9.434,2.866-17.889,2.66-26.572.928l-4.606-3.591c-3.734.308-6.838,3.975-9.979.672l1.712-3.235-14.373,6.2-6.119,9.448c-3.695-2.426-6.281-7.137-11.392-3.982l3.761.558,5.442,9.245c.159,3.328.347,7.276.587,12.275-2.187,2.441-5.391,5.413-7.841,8.913-2.714,3.878-7.182,7.337-4.413,12.65l2.913,3.195-5.772,4.937c.706,2.678,1.258,4.772,1.81,6.865,5.314,3.7,15.926,22.658,17.418,31.613,2.87,2.257,5.793,5.994,9.517,7.147,5.579,1.727,8.82,5.625,11.026,7.774,6.036,10.389,1.559,19.286,1.378,28.047-.182,8.816-3.218,17.573-5,26.356.891,2.6,1.748,5.35,1.167,7.75a87.937,87.937,0,0,1-5.395,16.817c-2.315,4.914-3.38,9.446-1.8,12.631-.971,5.171-1.621,8.638-2.275,12.119l6.008,1.039-4.075,1.531c4.2,3.6,1.592,7.784,1.188,11.819.678.529,1.358,1.056,1.639,1.274l-4.313,10.557-3.306-3.017-1.711,3.367,6.191,9.173-3.264.8c-.179,3.9,2.9,7.657-.372,10.928l-4.473-1.2,3.3,4.223,4.893-.388-2.1,2.943,2.238,4.346,1.644-2.842,1.4,1.193c-.135.955-.27,1.911-.436,3.091l7.321,4.9,3.266,6.593-3.522,6.261,8.262.922,2.382,3.234,4.169-2.882h6.329l-8.7-5.9-5.881-10.509,1.195-1.089-2.092-9.446,5.121-4.3-.628-.418,9.561-13.769c-2.9-2.764-7.974-2.5-7.718-8.681,1.3-1.148,2.956-3.389,5.167-4.351,2.485-1.081,2.983-2.859,3.568-4.959.744-2.671,1.572-5.319,2.422-8.171l-2.043-9.076h10.592c.8-3.732,1.476-6.9,2.175-10.168,1.353,0,2.466-.017,3.579,0,8.307.149,13.92-2.567,16.974-11.4a12.712,12.712,0,0,1,5.314-6.51c8.247-4.52,11.118-13.518,17.253-19.76,2.552-2.6,4.209-6.113,6.072-9.327a11.244,11.244,0,0,0,1.177-4.119c.462-3.515.756-7.051,1.133-10.733l15.882-9.384h7.7c10.448-11.3,12.791-25.133,12.538-37.08,5.809-9.685,13.679-15.006,16.2-24.236l-2.845-8.127" transform="translate(-268.893 -476.027)" fill="#d9d9d9"/>
      <path id="Path_54235" data-name="Path 54235" d="M2096.691,1279.863l-9.31-10.471.634-.512-4.029-2.2c-1.414-6.431-6.255-9.711-11.513-12.415-4.357-6.976-2.228-17.242-10.793-20.922-1.528-4.132-2.817-7.619-4.106-11.107l-1.515-.017c-.6,3.778-1.605,7.545-1.714,11.338a36.771,36.771,0,0,1-3.341,14.72h-5.323c-4.112-5.531-12.927-4.958-15.8-12.633l4.861-1.3c-.634-2.382-1.237-4.642-1.65-6.192l-14.922-4.07.809,3.287-6.219-2.236c.29.966.524,1.74.71,2.359l-4.682,4.036c-.106,2.021-.188,3.573-.267,5.083l-6.137,1.814-2.963-4.573-8.1,3.379c.964,5.047-5.232,4.792-6.339,8.366l-3.169-.3-4.706,10.231-27.44,9.757c-.91,3.162-1.873,6.5-2.834,9.845,1.05,4.255.816,8.6,1.753,12.677,1.262,5.493,3.393,10.789,5.211,16.149,1.71,5.041,2.547,9.977-1.214,14.55,1.58,1.167,3.159,2.329,4.7,3.463h7.628c5.425-5.749,12.556-5.057,19.494-4.356,3.518-5.008,7.864-7.3,13.772-7.8,5.354-.455,10.576-2.459,15.848-3.778,1.368.888,2.638,2.407,3.932,2.428,4.86.078,7.659,2.729,9.835,6.627,1.1,1.967,2.445,3.8,3.445,5.329,2.9-.167,2.584-5.58,6.8-2.791v6.245l3.34-5.514c.584,2.752.458,5.167,1.284,5.555,4.808,2.257,3.44,8.162,6.444,10.772,3.274,2.844,7.942,4.084,12.165,6.1l5.019-4.24,4.313,3.7,14.1-6.3a45.247,45.247,0,0,1,1.66-7.153c1.781-4.685,3.043-10.1,6.293-13.53,2.724-2.876,3.449-5.781,4.3-9.021.934-3.568,1.635-7.2,2.347-10.4a74.323,74.323,0,0,1-2.234-7.854,42.462,42.462,0,0,1-.373-6.137" transform="translate(-873.542 -548.406)" fill="#d9d9d9"/>
      <path id="Path_54236" data-name="Path 54236" d="M497.305,127.97l10.32-2.976c.116,1.6.237,3.261.334,4.6l2.461,1.257-.286.7-5.053-.34,2.387,2.228-6.686.329,8.946,8.994c-.631,0-1.116.01-1.6,0-.558-.014-1.116-.049-1.749-.078,1.082,5.77,5.757,6.182,9.549,7.515l6.546-2.389c.345-1.812.658-3.457.866-4.547l3.555-1.611-2.061-1.346,4.022-3.655c2.883,3.915-.777,6.024-1.821,8.821l1.66,3.615,9.325,3.855-1.512,5.822,3.788,3.381-4.466.281c-3.2-6.7-6.744-7.946-10.776-4.609,1.281,3.6,2.517,7.078,3.53,9.927l-8.294,4.353c.286,3.366.486,5.721.6,7.049,5.671,5.34,8.111-3.079,12.394-1.708-.175,1.353-.3,2.291-.432,3.334h5.739c.412-1.218.745-2.2,1.179-3.484l3.939,3.135,8.529-2.246c.361,2.091.607,3.515,1.036,6,3.909-3.618,7.325-6.636,10.489-9.9.385-.4-.59-2.112-.906-3.123l-2.955,2.571c-.549-2.846-.947-4.912-1.345-6.975L563.341,161c-.3-2.268-.652-4.978-1.077-8.228l5.555,1.26,5.9-3.587c-2.024-5.843,4.486-11.468-.91-17.252l3.26-.76c-.133-1.19-.258-2.3-.373-3.324l-4.095-.593c1.8-4.6,5.336-4.741,7.465-4.613,3.426-2.148,5.682-3.481,7.842-4.955.9-.613,2.4-1.753,2.254-2.264-1.082-3.817,2.435-5.423,3.73-7.988a158.478,158.478,0,0,1,9-15.122c2.023-3.1,4.531-5.877,6.821-8.8,1.726-2.6,6.637-2.978,4.917-8.273l-5.854,2.42a10.325,10.325,0,0,1-1.41-2.1,7.087,7.087,0,0,1-.044-1.984c6.49-4.716,6.49-4.716,9.241-4.48,4.939-4.921,11.13-9.042,12.394-17.77l-7.632-3.822,1.7-1.139c-3.851-2.146-3.066-8.622-8.63-9.028l-1.128,1.441-1.192-1.589L607.446,42.5c-.217-2.746-.335-4.24-.435-5.51l-11.2-3.115-2.362-2.814c-6.844,2.119-13.4,1.619-16.522-.735l-9.54,1.1-3.528,6.412-7.7-1.427L554.746,40l-3.927.756,1.872,4.382h-4.45l-3.31,10.619-10.014-5.061v6.644l-4.435.916c-.926,2.567-1.724,4.779-2.591,7.181L526,61.461a33.154,33.154,0,0,0-3.557,1.92c-1.7,1.212-3.162,2.819-4.968,3.816-2.553,1.407-4.92,2.868-6.2,5.62.568.937,1.137,1.873,1.6,2.628l3.883-3.215,1.323.948-1.946,5.154,5.127,5.273-4.965,1.9,5.313,4.285c-.105.525-.307,1.529-.542,2.7l6.077,5.741,2.27-2.825,2.914,3.9c5.5,3.038,9.529.307,13.628.017,4.448-.314,8.679-3.707,12.774-5.648-.3-1.293-.515-2.253-1.081-4.73l5.957,5.462c-2.384,1.327-4.806,1.858-5.7,3.323-3.055,4.993-8.182,6.094-13,7.6-.181,2.162,2.721,4.2-.5,6.161l-2.833-3.6-9.923-1.718v5.911l3.628,1.429-5.445,1.17,2.6,6.355c-5.71-1.649-3.246-5.831-4.2-8.278L525,110.5l1.359-.826q.343-2.8.687-5.6l-11.829-4.268c-1.448-4.192-2.836-8.8-4.641-13.234a8.966,8.966,0,0,0-7.268-5.835c-.346-.049-.755.339-1.94.916.987,1.517,1.909,2.935,2.933,4.509l-1.976,3.633-4.618-.471c.414,2.486.713,4.292.977,5.876l-4.473,11.4,4.227,2.231-5.788.886,4.655,18.252" transform="translate(-221.052 -13.603)" fill="#d9d9d9"/>
      <path id="Path_54237" data-name="Path 54237" d="M619.538,412.6l-6.567-1.873c-1.854-2.861-3.7-5.708-5.883-9.074l-4.021,2.724a21.99,21.99,0,0,1-8.775-13.928c-4.176-.221-6.286-2.556-5.366-6.886l-8.824-.611-4.242-7.426c-5.284.314-9.816-2.942-14.6,2.138-4.094,4.35-6.094,8.251-5.125,13.893.618.058,1.236.114,2.006.183v1.818l-5.877,4.9c-.617-4.557-1.141-8.414-1.745-12.87a56.548,56.548,0,0,1,2.505-6.159,62.873,62.873,0,0,1,4.044-5.951c-8.266-1.588-14.275,2.341-15.8,10.429-1.211,6.415-1.852,12.937-2.769,19.577l10.365,2.78-7.465,3.293c1.053,3.586,3.071,5.823,7.108,5.719a5.5,5.5,0,0,1,3.072.772,19.435,19.435,0,0,0,13.383,3.141c.211-1.057.352-1.893.566-2.71.034-.131.388-.18.851-.374,2.986,2.445,8.421.513,10.418,5.845l7.255-5.172,6.975,8.144-1.548.653c.148,1.911.257,3.825.482,5.727.04.345.552.633.984,1.1l3.23-1.82c7.3,4.216,11.2,10.567,12.391,18.523l-7.673,10.484,3.093,5.461c-5.074,1.755-9.332,4.4-14.306,1.109l-4.289,6.881c3.261,3,5.272,3.013,8.1,1.324,2.044-1.22,4.985-.938,8.088-1.412l9.822,9.378c-.191.911-.393,1.874-.556,2.653,3.331,2.244,6.164,4.568,9.354,6.188,3.386,1.72,7.111,2.772,10.689,4.116l.632-1.022-8.984-9.724,3.171-1.859,8.955,5.277,1.242-.854c-.511-1.977-1.78-4.127-1.376-5.9.86-3.766-.857-5.773-3.1-8.4a42.823,42.823,0,0,1-6.513-11.168c-1.546-3.671-.368-5.382,3.263-6.94l7.015,6.159c-.468,3.271.791,5.824,4.942,7.031l1.167-4.265,3.092-.876.463-4.474,3.211-4.131c-3.7-2.516-7.9-3.875-9.194-6.608-1.788-3.79-4.171-4.446-7.261-5.01-3.5-2.9-7.245-5.426-10.927-8.042a9.311,9.311,0,0,1-1.575-2.136l3.9-1.739c-.089-1.046-.17-2.008-.236-2.792l1.5-.521L619.538,412.6" transform="translate(-241.625 -167.421)" fill="#d9d9d9"/>
      <path id="Path_54238" data-name="Path 54238" d="M381.577,421.249c.563-.708.616-1.823.991-3.029l-4.645.319q-.1-.56-.2-1.12l8-3.743c-.033-.731-.091-1.992-.138-3.007-5.843-3.142-11.575-5.705-13.83-12.1,2.7-7.838-4.588-14.027-3.355-22.224l-8.5-4.983-1.438.887c.821,5.838,1.642,11.675,2.457,17.472-.939.341-1.771.643-2.6.943-2.164-4.172-.535-10.213-6.314-12.974L346.3,383.82c-.537-2.443-.9-4.107-1.378-6.267L336,376.316c-.48-2.017-.862-3.617-1.313-5.508a19.847,19.847,0,0,1-2.609,1.133,18.769,18.769,0,0,1-2.4.251c.456-5.6.456-5.6-8.245-13.364l-4.638,1.773-8.939-5.574-12.179,2.105,2.71,8.493-6.934,22.182c5.393,1.616,8.152,5.962,10.024,10.849l8.582-4.946-.8-.416,7.429-14.376,5.7-3.391c-.456,2.857-3.165,5.553-2.627,7.166,1.336,4-3.729,4.87-2.869,8.45l8.9,5.58-5.838,3.351,2.787,4.9c3.952-.56,7.863-1.034,11.742-1.685,4.1-.689,6.5,1.044,6.545,5.187-5.908.846-12.451-1.143-18.152,3.59l6.259,7.591h8.144l1.169,7.29c2.346.127,4.363.614,6.228.272,7.479-1.373,14.768-3.335,20.264-8.448l4.143,2.62-.4,3.214,3.169-2.231c4.222,2.84,6.81,2.535,9.72-1.129" transform="translate(-130.773 -159.299)" fill="#d9d9d9"/>
      <path id="Path_54239" data-name="Path 54239" d="M431.333,481.24l-.255.18c-.006.032-.007.062-.012.094l.22.107c.015-.126.031-.254.047-.381" transform="translate(-193.419 -215.93)" fill="#d9d9d9"/>
      <path id="Path_54240" data-name="Path 54240" d="M1236.54,209.523h9.056l-1.88,3.255,3.026,3.618,4.027-8.574,8.216,3.408-11.49,9.18V222.8l3.863,2.1-3.188,5.888,7.75,7.773-.441,1.745,3.244,2.707c2.274-5.318.515-11.933,5.839-16.465v-7.574l2.614-1.53v-8.356l9.63-4.474-11-7.438v-7.117l-3.054,2.813-1.054-.515c.533-1.968,1.067-3.936,1.963-7.242l-6.718-5.667c-.682,2.789-1.136,4.618-1.574,6.451-.416,1.742-.816,3.489-1.529,6.548l-2.67-6.963-3.1,2.584-1.859-4.274-5.025,2.085c-.94-.657-1.375-1-1.852-1.258-.08-.044-.342.244-.52.378-3,7.344-2.989,7.444,1.888,15.21v6.148l-4.157,3.163" transform="translate(-554.835 -80.517)" fill="#d9d9d9"/>
      <path id="Path_54241" data-name="Path 54241" d="M522.944,318.425l.564.771-1.385,2.651c5.95,2.3,11.806.178,17.52.644l3.486-2.951,4.747,3.193,8.155-2.391L554,318.164l2.97-1.263-3.032-1.187,3.745-5.105c-7.359-7.314-7.359-7.314-19.989-4.648l-5.031,2.825-11.1-1.934-4.912-6.707,2.708-4.08-7.305-3.305,3.089-1.242q.017-.478.036-.955l-9.375-.5c-2.5-5.124-7.532-6.727-13.508-6.4-1.654,5.135,3,7.892,4.248,11.886h10.647c.708,3.278,2.954,7.375,1.934,10.356-1.737,5.076.488,8.946,1.061,13.446l8.16,2.034,4.6-2.964" transform="translate(-220.734 -127.261)" fill="#d9d9d9"/>
      <path id="Path_54242" data-name="Path 54242" d="M1804.3,157.408l1.247,1.031-4.134,6.467,3.22,2.243c.687,2.891,1.337,5.63,2.007,8.449l6.57,1.136,4.042,3.684,7.492-1.64V157.207l-7.492-3.167c-4.4-5.867-2.173-11.664-.078-16.359-4.793-2.913-4.69-8.283-8-11.057a37.351,37.351,0,0,1-4.448,4.757,35.087,35.087,0,0,1-5.521,2.938c-.5,2.578,1.812,4.591.136,6.977-1.568,2.233-2.737,4.746-4.049,7.078l5.85,7.752-7.389-1.536c-.434,2.116-.82,4-1.326,6.46l5.907,1.6,5.966-5.246" transform="translate(-804.26 -56.814)" fill="#d9d9d9"/>
      <path id="Path_54243" data-name="Path 54243" d="M1953.015,1104.824l-6.752-5.561-17.063,14.625-4.887.989-1.633,4.6c-2.682-.511-5.7-3.012-7.41,1.871,1.662,4.2,3.473,8.772,5.459,13.79l14.216,2.3,4.807,2.762c3.608-7.075,6.992-13.714,10.646-20.879-3.631-6.834-3.235-10.281,2.618-14.5" transform="translate(-859.38 -493.236)" fill="#d9d9d9"/>
      <path id="Path_54244" data-name="Path 54244" d="M2125.2,1169.325c-9.726-4.47-19.453-9.745-30.021-9.4l-6.628,6.144-4.928-4.475-6.529,1.411c6.877,5.474,14.816,5.31,21.34,8.928l5.28,9.641,7.521,5.139h4.921l6.6-6.9,6.535,3.317,6.824,7.8,6.978-.367-11.227-12,3.5-1.816-10.174-7.421" transform="translate(-931.989 -520.447)" fill="#d9d9d9"/>
      <path id="Path_54245" data-name="Path 54245" d="M351.371,303.346l5.129,3.523-6.384.515c-.506,2.517-.986,4.908-1.5,7.473,5.645,3.068,11.454,1.831,17.712,2.137l-5.692,6.8,4.644,4.016,14.843-9.18,8.748.43c4.246-4.072,5.694-10.608,3.518-15.675l-8.113-.493c-1.006-4.295-1.958-8.36-3.006-12.838l-5.5,6.962,3.8,4.424c-.294,1.422-.55,2.657-.8,3.894,1.025,1.313,2.048,2.626,4,5.127l-10.508.5-6.2-11.19-3.942.551-2.725-5.367c-3.732,2.027-6.762,4.384-8.026,8.4" transform="translate(-156.423 -130.143)" fill="#d9d9d9"/>
      <path id="Path_54246" data-name="Path 54246" d="M1482.391,1238.256a21.175,21.175,0,0,1-12.939,10.431c-1.777.54-3.031,2.8-4.381,4.129.754,3.856,1.385,7.086,2.153,11.02-6.434,5.921-4.3,13.038-1.469,20.643h9.836c3.72-13.277,7.309-26.08,11.051-39.435l1.328-.6-2.493-9.641c-1.458,1.605-2.5,2.4-3.087,3.457" transform="translate(-656.452 -554.051)" fill="#d9d9d9"/>
      <path id="Path_54247" data-name="Path 54247" d="M1125.371,668.765l4.708-.777c1.135,3.109,2.334,6.4,3.32,9.1l-5.477,3.128c2.533,3.494.661,5.374-2.089,6.886l4.406,2.656-4.093,5.041,2.516,1.833c6.01-3.959,12.847-2.182,19.143-4.064l-.659-4.48,2.58-3.522c-2.26-2.85-4.44-5.065-5.988-7.657-3.728-6.243-7.161-12.663-10.379-18.417l2.664-8.725-6.515-1.983,2.358-5.568-7.232,2.108c-3.1,6.85-1.931,13.161,1.816,18.886-.383,1.973-.7,3.579-1.079,5.553" transform="translate(-503.823 -288.16)" fill="#d9d9d9"/>
      <path id="Path_54248" data-name="Path 54248" d="M1286.679,177.105l8.132.909-1.141,4.721,3.993,3.593,5.928-.8,2.623,3.55,6.971-3.381,7.149-10.463c1.185-8.122-7.6-4.553-10.192-8.418l-3.3,2.96c-.717-2.13-1.278-3.8-1.839-5.463l-1.281.049-.968,8.091-9.652-7.926-6.842,5.138,2.432,2.62-2.016,4.816" transform="translate(-577.145 -73.727)" fill="#d9d9d9"/>
      <path id="Path_54249" data-name="Path 54249" d="M2088.2,854.049c-3.944.985-5.451,3.23-6.173,6.56a2.654,2.654,0,0,1-.745.24c-10.618-.665-10.581-.628-17.554,6.129-1.714,1.662-3.766,2.971-5.629,4.485-.234.19-.258.638-.454,1.169l3.521-.452c-1.186,2.877-.6,5.289,1.578,8.366l3.454-7.209,12.254-5.037-2.191-4.392,1.388-.649,3.493,6.03,4.344-5.355,2.449.729,10.9-4.316,5.771-20.5-3.2-5.837c-5.55,1.261-4.128,4.649-3.446,7.441-1.647,5.7-3.768,11.1-9.76,12.6" transform="translate(-923.265 -374.218)" fill="#d9d9d9"/>
      <path id="Path_54250" data-name="Path 54250" d="M1545.67,340.775c1.008-4.4,1.818-7.922,2.418-10.541l15.207-17.109a134.388,134.388,0,0,1,20.448-12.563c3.715-1.938,6.477-4.554,7.853-8.531a3.741,3.741,0,0,0,.018-1.218,5.671,5.671,0,0,0-.853-1.131,22.809,22.809,0,0,0-2.205-1.312c-6.816,5.547-12.232,14.611-22.588,11.841-1.592,1.512-2.621,3.324-4.008,3.658-4.944,1.193-7.756,4.626-10.446,8.487-2.059,2.957-4.449,5.684-6.989,8.888,2.27,6.308-3.728,9.445-6.609,15.085l7.755,4.446" transform="translate(-690.061 -129.389)" fill="#d9d9d9"/>
      <path id="Path_54251" data-name="Path 54251" d="M1893.48,1183.926v.237l.139.066c.025-.087.049-.173.074-.26-.07-.017-.142-.028-.213-.043" transform="translate(-849.603 -531.225)" fill="#d9d9d9"/>
      <path id="Path_54252" data-name="Path 54252" d="M1850.443,1131.6c.113-.8.286-2.026.374-2.656l-24.849-19.753-6-.363-1.164,1.514c1.5.944,3.026,1.857,4.506,2.838,7.743,5.127,11.862,13.365,16.495,20.807,3.726,5.985,7.8,11.077,13.687,14.641,1.818,1.1,4.284,1.133,6.483,1.6v-9.165l-9.528-9.465" transform="translate(-816.094 -497.527)" fill="#d9d9d9"/>
      <path id="Path_54253" data-name="Path 54253" d="M485.32,326.349l2.2-6.381-4.712-7.424c-4.22-.584-9.821,4.356-12.762-3.518V298.8c-3.64-4.387-8.755-1-12.661-2.893l-2.239,3.042a53.967,53.967,0,0,1-.447,7.1,47.672,47.672,0,0,1-2.094,6.086l10.131-.836-2.648,4.507,2.115,5.419,4.936-1.431,2.7-6.3,6.636,2.733c-.221,2.025-.4,3.641-.617,5.65l9.463,4.477" transform="translate(-203.083 -132.769)" fill="#d9d9d9"/>
      <path id="Path_54254" data-name="Path 54254" d="M452.4,381.855l-2.125,2.389,15.682,18.34,6.728-6.426c.487-2.916.915-5.483,1.453-8.7l-2.862-4.059,2.061-1.772-5.074-1.125,3.969-9.845-8.646,1.571-3.819-2.733-5.13,6.836,4.021,1.463c.507,2.775.914,5,1.392,7.616h-4.628l-3.021-3.552" transform="translate(-202.04 -165.789)" fill="#d9d9d9"/>
      <path id="Path_54255" data-name="Path 54255" d="M2120.131,331.73c-.246-1.165-.441-2.084-.552-2.611,6.029-1.707,12.2,2.185,18.2-2.749.711-2.1,1.654-4.894,2.609-7.727l-5.941-3.618-3.812,7.9c-1.445-1.641-1.974-2.952-1.708-4.074a15.883,15.883,0,0,1,1.976-3.744l-2.628-3.907-3.512.632c.455,2.232.869,4.261,1.329,6.521h-2.877l-6.416-8.568c-2.679,2.108-4.773,3.758-6.428,5.059.282,3.606.507,6.5.819,10.494,1.792,2.2,3.283,6.958,8.935,6.394" transform="translate(-946.925 -138.997)" fill="#d9d9d9"/>
      <path id="Path_54256" data-name="Path 54256" d="M1039.206,537.747l-6.015-7.453-12.777,2.761L1009.7,539.92c.481,2.421,1.1,5.549,1.715,8.621l9.508,4.187,15.167-8.658,3.114-6.323" transform="translate(-453.052 -237.94)" fill="#d9d9d9"/>
      <path id="Path_54257" data-name="Path 54257" d="M518.986,368.64c-7.894-4.818-15.732-5.121-19.329-.721l1.5,1.241c-3.338,2.849-1.971,6.768-1.821,10.2.161,3.692,1.381,7.338,2.275,11.66l5.578.3-1.916-9.246,7.364.372,6.348-13.806" transform="translate(-223.871 -163.689)" fill="#d9d9d9"/>
      <path id="Path_54258" data-name="Path 54258" d="M434.51,223.835l13.261,2.511,3.249,7.28,4.445-.558c-.933-4.917-1.527-9.477-2.781-13.848-.422-1.472-2.524-2.462-3.859-3.672l-.719.624-.971-2.858-10.459-9.142c-4.559,1.829-4.559,1.829-4.9,4.8l6.558,8.864c-3.481,2.108-6,3.94-3.819,6" transform="translate(-193.736 -91.609)" fill="#d9d9d9"/>
      <path id="Path_54259" data-name="Path 54259" d="M322.555,294.908l2.271-2.391-2.972-2.151,4.337-.564c.785-3.128,1.512-6.025,2.239-8.921l1.46.056q.9,3.785,1.808,7.569l1.072-.148c.268-1.415.536-2.83.783-4.134l3.892-1.693c-.4-2.554-.777-4.905-1.2-7.58l2.521-3.535-3.423-3.587-.93,2.912-8.389,1.111c-4.152,6.352-7.136,13.1-14.291,16.5l2.154,4.547,8.668,2.007" transform="translate(-139.875 -120.173)" fill="#d9d9d9"/>
      <path id="Path_54260" data-name="Path 54260" d="M1850.264,231.925l6.971-4.832c6.186-.789,12.7-.327,15.217-8.024l-6.748-9.348-4.243.783c.552-2.245.952-3.874,1.353-5.5l-.988-.818c-1.463,1.076-3.718,1.851-4.257,3.276-2.97,7.853-5.522,15.865-8.218,23.822l.913.643" transform="translate(-829.803 -91.615)" fill="#d9d9d9"/>
      <path id="Path_54261" data-name="Path 54261" d="M2336.922,1456.478l-5.585,10.024c-6.465,4.624-13.5,8.358-16,16.6l10.727,3.668,7.511-13.947,3.227-1.764c.391-4.93,7.727-7.316,5.976-12.554l-5.852-2.031" transform="translate(-1038.888 -653.518)" fill="#d9d9d9"/>
      <path id="Path_54262" data-name="Path 54262" d="M762.518,729.521c-.788.734-1.847,1.3-2.268,2.179-3.011,6.269-5.892,12.6-8.844,18.976l17.67,1.687,4.623,3.572c1.867-4.272,1.647-5.342-2.97-14.754l-5.961.509-2.739-6.842c.524-1.24,3.445-2.619.489-5.327" transform="translate(-337.156 -327.333)" fill="#d9d9d9"/>
      <path id="Path_54263" data-name="Path 54263" d="M1527.155,417.04h9.221c-6.417-9.346-6.7-18.853-2.965-28.77H1525.8l-3.424,13.936-5.173,3.2c4.268,3.084,7.709,5.57,11.15,8.055-.334.988-.666,1.979-1.2,3.576" transform="translate(-680.77 -174.214)" fill="#d9d9d9"/>
      <path id="Path_54264" data-name="Path 54264" d="M1104.461,704.481c.583-4.9,1.118-9.392,1.651-13.878l.9.062c-.618-1.381-1.238-2.761-1.823-4.067h-6.927c-.573,2.25-1.08,4.242-1.582,6.214l-4.611.206c-.077,1.56-.14,2.848-.2,4.136l.978.147,3.153,5.14-5.918,4.618c6.5,4.622,9.375-3.029,14.38-2.577" transform="translate(-489.119 -308.074)" fill="#d9d9d9"/>
      <path id="Path_54265" data-name="Path 54265" d="M2372.145,1423.534c-.479-2.33-.764-3.719-1.148-5.583-6.135,3.259.12,10.882-6.3,13.074l5.664,4.839c-.947,1.6-1.793,3.035-2.7,4.566l3.875,2.261,5.252-12.425c3.673-.532,4.384-3.021,3.953-5.751l-8.6-.981" transform="translate(-1061.037 -636.231)" fill="#d9d9d9"/>
      <path id="Path_54266" data-name="Path 54266" d="M2139.979,793.54l-4.87,13.973,7.952,1.336,8.98-5.2c.12-.284.667-1.584,1.757-4.166-8.224,4.075-10.148-3.3-13.819-5.943" transform="translate(-958.022 -356.059)" fill="#d9d9d9"/>
      <path id="Path_54267" data-name="Path 54267" d="M1998.267,1150.919l-6.785,2-3.893-2.81c-1.21,3.539-2.25,6.581-2.821,8.247,1.276,4.36,2.189,7.481,3.1,10.6l1.043-.2c.229-3.314.456-6.627.749-10.88l6.173,7.749,2.325-1.273c-1.14-3.023-2.264-6.006-3.487-9.248l3.971-3.516-.378-.677" transform="translate(-890.564 -516.053)" fill="#d9d9d9"/>
      <path id="Path_54268" data-name="Path 54268" d="M1306.082,235.855c.629,6.478,1.179,12.147,1.721,17.728l5.165-1.807c.4,1.474.66,2.454.906,3.367,4.013-1.477,3.261-5.084,3.649-6.968l-4.446-6.718-2.965-.691v-4.435l-4.03-.477" transform="translate(-586.038 -105.826)" fill="#d9d9d9"/>
      <path id="Path_54269" data-name="Path 54269" d="M485.18,236.374l.706,5.757,7.159-2.791c-.192-2.876-.34-5.108-.49-7.359l-10.334-8.036-1.352.75c.359,3.024.719,6.049,1.116,9.381l3.2,2.3" transform="translate(-215.766 -100.482)" fill="#d9d9d9"/>
      <path id="Path_54270" data-name="Path 54270" d="M1914.96,1189.125c-4.186.286-7.392,1.257-10.133.514-4.043-1.095-7.766-3.368-11.62-5.161-.216.756-.431,1.512-.644,2.257,3.246,3.908,5.532,5.221,9.732,5.747,3.229.4,6.439.99,9.675,1.326,4.283.445,8.55,2.557,13.807.259l-10.819-4.942" transform="translate(-849.192 -531.472)" fill="#d9d9d9"/>
      <path id="Path_54271" data-name="Path 54271" d="M2163.345,1455.337c.913,5.855,1.572,11,6.321,14.11l5.667-3.658,1.8-9.851-8.137,1.714-5.655-2.314" transform="translate(-970.691 -653.006)" fill="#d9d9d9"/>
      <path id="Path_54272" data-name="Path 54272" d="M388.48,258.413l-3.712-6.1,4.327-2.4-2.011-2.155-13.7,5.471,6,8.271,9.1-3.087" transform="translate(-167.535 -111.167)" fill="#d9d9d9"/>
      <path id="Path_54273" data-name="Path 54273" d="M577.473,985.564c8.91-4.593,15.017,1.592,21.467,2.177l5.723,6.242h9.255q.05-.584.1-1.168c-6.736-3.437-13.37-7.1-20.245-10.234-4.6-2.1-11.5-.837-16.3,2.983" transform="translate(-259.112 -440.429)" fill="#d9d9d9"/>
      <path id="Path_54274" data-name="Path 54274" d="M2181.048,340.5l7.54-.492c.134-1.894.243-3.447.372-5.286-5.494-.969-9.9-4.445-15.583-2.379.514,4.8,6.609,4.17,7.671,8.157" transform="translate(-975.193 -148.832)" fill="#d9d9d9"/>
    </g>
    <g id="Pins" transform="translate(305.446 162.438)">
      <path id="Icon" d="M17.906,3.375c-5.538,0-10.031,4.173-10.031,9.314,0,7.245,10.031,19.665,10.031,19.665s10.031-12.42,10.031-19.665C27.937,7.548,23.444,3.375,17.906,3.375Zm0,13.3a3.267,3.267,0,1,1,3.267-3.267A3.267,3.267,0,0,1,17.906,16.673Z" transform="translate(920.447 596.308)" fill="#007066"/>
      <path id="Icon-2" data-name="Icon" d="M17.906,3.375c-5.538,0-10.031,4.173-10.031,9.314,0,7.245,10.031,19.665,10.031,19.665s10.031-12.42,10.031-19.665C27.937,7.548,23.444,3.375,17.906,3.375Zm0,13.3a3.267,3.267,0,1,1,3.267-3.267A3.267,3.267,0,0,1,17.906,16.673Z" transform="translate(543.689 314.329)" fill="#007066"/>
      <path id="Icon-3" data-name="Icon" d="M17.906,3.375c-5.538,0-10.031,4.173-10.031,9.314,0,7.245,10.031,19.665,10.031,19.665s10.031-12.42,10.031-19.665C27.937,7.548,23.444,3.375,17.906,3.375Zm0,13.3a3.267,3.267,0,1,1,3.267-3.267A3.267,3.267,0,0,1,17.906,16.673Z" transform="translate(520.658 265.351)" fill="#007066"/>
      <path id="Icon-4" data-name="Icon" d="M17.906,3.375c-5.538,0-10.031,4.173-10.031,9.314,0,7.245,10.031,19.665,10.031,19.665s10.031-12.42,10.031-19.665C27.937,7.548,23.444,3.375,17.906,3.375Zm0,13.3a3.267,3.267,0,1,1,3.267-3.267A3.267,3.267,0,0,1,17.906,16.673Z" transform="translate(572.172 363.259)" fill="#007066"/>
      <path id="Icon-5" data-name="Icon" d="M17.906,3.375c-5.538,0-10.031,4.173-10.031,9.314,0,7.245,10.031,19.665,10.031,19.665s10.031-12.42,10.031-19.665C27.937,7.548,23.444,3.375,17.906,3.375Zm0,13.3a3.267,3.267,0,1,1,3.267-3.267A3.267,3.267,0,0,1,17.906,16.673Z" transform="translate(604.595 321.713)" fill="#007066"/>
      <path id="Icon-6" data-name="Icon" d="M17.906,3.375c-5.538,0-10.031,4.173-10.031,9.314,0,7.245,10.031,19.665,10.031,19.665s10.031-12.42,10.031-19.665C27.937,7.548,23.444,3.375,17.906,3.375Zm0,13.3a3.267,3.267,0,1,1,3.267-3.267A3.267,3.267,0,0,1,17.906,16.673Z" transform="translate(559.509 222.624)" fill="#007066"/>
      <path id="Icon-7" data-name="Icon" d="M17.906,3.375c-5.538,0-10.031,4.173-10.031,9.314,0,7.245,10.031,19.665,10.031,19.665s10.031-12.42,10.031-19.665C27.937,7.548,23.444,3.375,17.906,3.375Zm0,13.3a3.267,3.267,0,1,1,3.267-3.267A3.267,3.267,0,0,1,17.906,16.673Z" transform="translate(792.172 231.715)" fill="#007066"/>
      <path id="Icon-8" data-name="Icon" d="M17.906,3.375c-5.538,0-10.031,4.173-10.031,9.314,0,7.245,10.031,19.665,10.031,19.665s10.031-12.42,10.031-19.665C27.937,7.548,23.444,3.375,17.906,3.375Zm0,13.3a3.267,3.267,0,1,1,3.267-3.267A3.267,3.267,0,0,1,17.906,16.673Z" transform="translate(672.11 369.894)" fill="#007066"/>
      <path id="Icon-9" data-name="Icon" d="M17.906,3.375c-5.538,0-10.031,4.173-10.031,9.314,0,7.245,10.031,19.665,10.031,19.665s10.031-12.42,10.031-19.665C27.937,7.548,23.444,3.375,17.906,3.375Zm0,13.3a3.267,3.267,0,1,1,3.267-3.267A3.267,3.267,0,0,1,17.906,16.673Z" transform="translate(459.993 283.84)" fill="#007066"/>
      <path id="Icon-10" data-name="Icon" d="M17.906,3.375c-5.538,0-10.031,4.173-10.031,9.314,0,7.245,10.031,19.665,10.031,19.665s10.031-12.42,10.031-19.665C27.937,7.548,23.444,3.375,17.906,3.375Zm0,13.3a3.267,3.267,0,1,1,3.267-3.267A3.267,3.267,0,0,1,17.906,16.673Z" transform="translate(392.116 393.224)" fill="#007066"/>
      <path id="Icon-11" data-name="Icon" d="M17.906,3.375c-5.538,0-10.031,4.173-10.031,9.314,0,7.245,10.031,19.665,10.031,19.665s10.031-12.42,10.031-19.665C27.937,7.548,23.444,3.375,17.906,3.375Zm0,13.3a3.267,3.267,0,1,1,3.267-3.267A3.267,3.267,0,0,1,17.906,16.673Z" transform="translate(-27.875 218.742)" fill="#007066"/>
      <path id="Icon-12" data-name="Icon" d="M17.906,3.375c-5.538,0-10.031,4.173-10.031,9.314,0,7.245,10.031,19.665,10.031,19.665s10.031-12.42,10.031-19.665C27.937,7.548,23.444,3.375,17.906,3.375Zm0,13.3a3.267,3.267,0,1,1,3.267-3.267A3.267,3.267,0,0,1,17.906,16.673Z" transform="translate(242.423 16.625)" fill="#007066"/>
      <path id="Icon-13" data-name="Icon" d="M17.906,3.375c-5.538,0-10.031,4.173-10.031,9.314,0,7.245,10.031,19.665,10.031,19.665s10.031-12.42,10.031-19.665C27.937,7.548,23.444,3.375,17.906,3.375Zm0,13.3a3.267,3.267,0,1,1,3.267-3.267A3.267,3.267,0,0,1,17.906,16.673Z" transform="translate(540.056 414.803)" fill="#007066"/>
    </g>
  </g>
</svg>
